<svg version="1.1" viewBox="0.0 0.0 600.0 371.0" fill="none" stroke="none" stroke-linecap="square" stroke-miterlimit="10" width="600" height="371" xmlns:xlink="http://www.w3.org/1999/xlink" xmlns="http://www.w3.org/2000/svg"><path fill="#ffffff" d="M0 0L600.0 0L600.0 371.0L0 371.0L0 0Z" fill-rule="nonzero"/><path fill="#4285f4" d="M300.0 78.416664C316.91547 78.416664 333.68466 81.5489 349.4596 87.65495L324.7298 151.54414C316.84235 148.49112 308.45773 146.925 300.0 146.925Z" fill-rule="nonzero"/><path fill="#ea4335" d="M349.4596 87.65495C395.1326 105.333755 427.89664 146.04617 435.39935 194.4432C442.90204 242.84024 424.00238 291.56177 385.82574 322.23926L342.91287 268.8363C362.0012 253.49756 371.45102 229.1368 367.69968 204.93828C363.94833 180.73976 347.5663 160.38354 324.7298 151.54414Z" fill-rule="nonzero"/><path fill="#ff6d01" d="M277.85922 80.217384C285.1786 79.01888 292.58316 78.416664 300.0 78.416664L300.0 146.925C296.2916 146.925 292.5893 147.2261 288.92963 147.82536Z" fill-rule="nonzero"/><path fill="#34a853" d="M181.40672 284.05695C158.85718 245.08751 156.89157 197.52678 176.14864 156.82953C195.4057 116.13228 233.4276 87.49279 277.85922 80.217384L288.92963 147.82536C266.7138 151.46306 247.70285 165.7828 238.07431 186.13144C228.44579 206.48006 229.42859 230.26042 240.70337 249.74515Z" fill-rule="nonzero"/><path fill="#fbbc04" d="M385.82574 322.23926C354.66888 347.2759 314.1328 357.45944 274.8425 350.12064C235.5522 342.7818 201.42526 318.65237 181.40672 284.05695L240.70337 249.74515C250.71263 267.04285 267.7761 279.10757 287.42126 282.77698C307.0664 286.44638 327.33444 281.3546 342.91287 268.8363Z" fill-rule="nonzero"/><path fill="#1a1a1a" d="M19.675 89.416664L19.675 80.822914L20.8 80.822914L20.8 89.416664L19.675 89.416664ZM22.346874 89.416664L22.346874 83.197914L23.284374 83.197914L23.284374 84.072914Q23.971874 83.05729 25.26875 83.05729Q25.83125 83.05729 26.3 83.260414Q26.784374 83.46354 27.01875 83.791664Q27.253124 84.11979 27.346874 84.55729Q27.39375 84.854164 27.39375 85.58854L27.39375 89.416664L26.346874 89.416664L26.346874 85.635414Q26.346874 84.979164 26.221874 84.666664Q26.096874 84.354164 25.784374 84.166664Q25.471874 83.96354 25.05 83.96354Q24.378124 83.96354 23.878124 84.40104Q23.39375 84.822914 23.39375 86.010414L23.39375 89.416664L22.346874 89.416664ZM31.64375 88.479164L31.8 89.40104Q31.346874 89.49479 31.003124 89.49479Q30.425 89.49479 30.1125 89.322914Q29.8 89.135414 29.659374 88.83854Q29.534374 88.541664 29.534374 87.58854L29.534374 84.010414L28.76875 84.010414L28.76875 83.197914L29.534374 83.197914L29.534374 81.65104L30.58125 81.02604L30.58125 83.197914L31.64375 83.197914L31.64375 84.010414L30.58125 84.010414L30.58125 87.65104Q30.58125 88.104164 30.628124 88.229164Q30.690624 88.354164 30.815624 88.43229Q30.940624 88.510414 31.175 88.510414Q31.3625 88.510414 31.64375 88.479164ZM36.596874 87.416664L37.690624 87.541664Q37.440624 88.49479 36.7375 89.02604Q36.034374 89.55729 34.95625 89.55729Q33.596874 89.55729 32.784374 88.71354Q31.9875 87.86979 31.9875 86.354164Q31.9875 84.791664 32.8 83.93229Q33.6125 83.05729 34.89375 83.05729Q36.14375 83.05729 36.925 83.90104Q37.721874 84.74479 37.721874 86.291664Q37.721874 86.385414 37.721874 86.572914L33.08125 86.572914Q33.14375 87.604164 33.659374 88.15104Q34.175 88.68229 34.95625 88.68229Q35.534374 88.68229 35.940624 88.385414Q36.3625 88.072914 36.596874 87.416664ZM33.14375 85.71354L36.6125 85.71354Q36.55 84.916664 36.221874 84.52604Q35.70625 83.916664 34.909374 83.916664Q34.175 83.916664 33.675 84.40104Q33.190624 84.885414 33.14375 85.71354ZM39.33125 89.416664L39.33125 83.197914L40.284374 83.197914L40.284374 84.135414Q40.64375 83.479164 40.940624 83.27604Q41.253124 83.05729 41.628124 83.05729Q42.159374 83.05729 42.70625 83.385414L42.346874 84.36979Q41.95625 84.135414 41.58125 84.135414Q41.221874 84.135414 40.940624 84.354164Q40.675 84.55729 40.565624 84.93229Q40.378124 85.49479 40.378124 86.15104L40.378124 89.416664L39.33125 89.416664ZM47.596874 87.416664L48.690624 87.541664Q48.440624 88.49479 47.7375 89.02604Q47.034374 89.55729 45.95625 89.55729Q44.596874 89.55729 43.784374 88.71354Q42.9875 87.86979 42.9875 86.354164Q42.9875 84.791664 43.8 83.93229Q44.6125 83.05729 45.89375 83.05729Q47.14375 83.05729 47.925 83.90104Q48.721874 84.74479 48.721874 86.291664Q48.721874 86.385414 48.721874 86.572914L44.08125 86.572914Q44.14375 87.604164 44.659374 88.15104Q45.175 88.68229 45.95625 88.68229Q46.534374 88.68229 46.940624 88.385414Q47.3625 88.072914 47.596874 87.416664ZM44.14375 85.71354L47.6125 85.71354Q47.55 84.916664 47.221874 84.52604Q46.70625 83.916664 45.909374 83.916664Q45.175 83.916664 44.675 84.40104Q44.190624 84.885414 44.14375 85.71354ZM49.925 87.55729L50.95625 87.40104Q51.05 88.02604 51.440624 88.354164Q51.846874 88.68229 52.58125 88.68229Q53.3 88.68229 53.64375 88.40104Q54.003124 88.104164 54.003124 87.697914Q54.003124 87.33854 53.690624 87.135414Q53.471874 86.99479 52.6125 86.77604Q51.45625 86.479164 51.003124 86.27604Q50.565624 86.05729 50.33125 85.68229Q50.096874 85.30729 50.096874 84.83854Q50.096874 84.43229 50.284374 84.072914Q50.471874 83.71354 50.8 83.479164Q51.05 83.30729 51.471874 83.18229Q51.89375 83.05729 52.39375 83.05729Q53.1125 83.05729 53.659374 83.27604Q54.221874 83.479164 54.4875 83.83854Q54.753124 84.197914 54.846874 84.791664L53.815624 84.93229Q53.753124 84.46354 53.409374 84.197914Q53.08125 83.916664 52.45625 83.916664Q51.7375 83.916664 51.425 84.166664Q51.1125 84.40104 51.1125 84.729164Q51.1125 84.93229 51.2375 85.08854Q51.378124 85.260414 51.64375 85.36979Q51.8 85.43229 52.58125 85.635414Q53.70625 85.947914 54.14375 86.135414Q54.58125 86.322914 54.83125 86.68229Q55.08125 87.041664 55.08125 87.58854Q55.08125 88.11979 54.76875 88.58854Q54.471874 89.041664 53.89375 89.30729Q53.315624 89.55729 52.58125 89.55729Q51.3625 89.55729 50.721874 89.05729Q50.096874 88.541664 49.925 87.55729ZM59.64375 88.479164L59.8 89.40104Q59.346874 89.49479 59.003124 89.49479Q58.425 89.49479 58.1125 89.322914Q57.8 89.135414 57.659374 88.83854Q57.534374 88.541664 57.534374 87.58854L57.534374 84.010414L56.76875 84.010414L56.76875 83.197914L57.534374 83.197914L57.534374 81.65104L58.58125 81.02604L58.58125 83.197914L59.64375 83.197914L59.64375 84.010414L58.58125 84.010414L58.58125 87.65104Q58.58125 88.104164 58.628124 88.229164Q58.690624 88.354164 58.815624 88.43229Q58.940624 88.510414 59.175 88.510414Q59.3625 88.510414 59.64375 88.479164Z" fill-rule="nonzero"/><path fill="#9e9e9e" d="M24.596874 105.40104L24.596874 106.416664L18.909374 106.416664Q18.909374 106.041664 19.034374 105.68229Q19.253124 105.104164 19.721874 104.541664Q20.20625 103.979164 21.1125 103.24479Q22.51875 102.08854 23.003124 101.416664Q23.503124 100.74479 23.503124 100.15104Q23.503124 99.52604 23.05 99.104164Q22.596874 98.666664 21.878124 98.666664Q21.1125 98.666664 20.659374 99.11979Q20.20625 99.572914 20.190624 100.385414L19.1125 100.27604Q19.221874 99.05729 19.940624 98.43229Q20.675 97.791664 21.909374 97.791664Q23.14375 97.791664 23.8625 98.479164Q24.58125 99.166664 24.58125 100.18229Q24.58125 100.697914 24.3625 101.197914Q24.159374 101.68229 23.659374 102.24479Q23.175 102.791664 22.05 103.74479Q21.096874 104.541664 20.815624 104.83854Q20.55 105.11979 20.378124 105.40104L24.596874 105.40104ZM26.64375 106.416664L26.64375 105.21354L27.846874 105.21354L27.846874 106.416664L26.64375 106.416664ZM34.51875 99.93229L33.471874 100.010414Q33.33125 99.385414 33.08125 99.104164Q32.64375 98.65104 32.01875 98.65104Q31.51875 98.65104 31.128124 98.93229Q30.64375 99.30729 30.346874 100.010414Q30.065624 100.697914 30.05 101.979164Q30.425 101.40104 30.971874 101.11979Q31.534374 100.83854 32.14375 100.83854Q33.190624 100.83854 33.925 101.61979Q34.675 102.40104 34.675 103.61979Q34.675 104.43229 34.315624 105.135414Q33.971874 105.822914 33.3625 106.197914Q32.753124 106.55729 31.9875 106.55729Q30.659374 106.55729 29.83125 105.58854Q29.003124 104.61979 29.003124 102.40104Q29.003124 99.90104 29.925 98.77604Q30.721874 97.791664 32.08125 97.791664Q33.096874 97.791664 33.7375 98.36979Q34.39375 98.93229 34.51875 99.93229ZM30.221874 103.635414Q30.221874 104.18229 30.440624 104.68229Q30.675 105.166664 31.08125 105.43229Q31.503124 105.697914 31.971874 105.697914Q32.628124 105.697914 33.1125 105.166664Q33.596874 104.61979 33.596874 103.697914Q33.596874 102.80729 33.1125 102.291664Q32.64375 101.77604 31.925 101.77604Q31.20625 101.77604 30.70625 102.291664Q30.221874 102.80729 30.221874 103.635414ZM36.253124 99.885414Q36.253124 98.96354 36.70625 98.322914Q37.175 97.68229 38.05 97.68229Q38.8625 97.68229 39.39375 98.260414Q39.925 98.83854 39.925 99.947914Q39.925 101.041664 39.378124 101.635414Q38.846874 102.21354 38.065624 102.21354Q37.284374 102.21354 36.76875 101.635414Q36.253124 101.05729 36.253124 99.885414ZM38.08125 98.40104Q37.690624 98.40104 37.425 98.74479Q37.175 99.08854 37.175 99.99479Q37.175 100.822914 37.425 101.166664Q37.690624 101.49479 38.08125 101.49479Q38.4875 101.49479 38.7375 101.15104Q39.003124 100.80729 39.003124 99.916664Q39.003124 99.072914 38.7375 98.74479Q38.471874 98.40104 38.08125 98.40104ZM38.08125 106.729164L42.784374 97.68229L43.64375 97.68229L38.95625 106.729164L38.08125 106.729164ZM41.8 104.40104Q41.8 103.479164 42.253124 102.83854Q42.721874 102.197914 43.6125 102.197914Q44.425 102.197914 44.95625 102.77604Q45.4875 103.33854 45.4875 104.46354Q45.4875 105.55729 44.940624 106.15104Q44.409374 106.729164 43.6125 106.729164Q42.846874 106.729164 42.315624 106.15104Q41.8 105.572914 41.8 104.40104ZM43.64375 102.916664Q43.2375 102.916664 42.971874 103.260414Q42.721874 103.604164 42.721874 104.510414Q42.721874 105.322914 42.9875 105.666664Q43.253124 106.010414 43.64375 106.010414Q44.034374 106.010414 44.3 105.666664Q44.565624 105.322914 44.565624 104.416664Q44.565624 103.58854 44.3 103.260414Q44.034374 102.916664 43.64375 102.916664Z" fill-rule="nonzero"/><path stroke="#757575" stroke-width="1.0" stroke-linecap="butt" d="M18.55 93.916664L156.98334 93.916664L289.4484 85.69588" fill-rule="nonzero"/><path fill="#9e9e9e" d="M291.4484 85.69588C291.4484 84.59131 290.55298 83.69588 289.4484 83.69588C288.34384 83.69588 287.4484 84.59131 287.4484 85.69588C287.4484 86.800446 288.34384 87.69588 289.4484 87.69588C290.55298 87.69588 291.4484 86.800446 291.4484 85.69588" fill-rule="nonzero"/><path fill="#1a1a1a" d="M19.471874 155.25972L19.471874 146.66597L22.721874 146.66597Q23.565624 146.66597 24.01875 146.7441Q24.659374 146.85347 25.08125 147.15034Q25.51875 147.44722 25.76875 147.97847Q26.034374 148.50972 26.034374 149.15034Q26.034374 150.2441 25.33125 151.00972Q24.64375 151.75972 22.815624 151.75972L20.6125 151.75972L20.6125 155.25972L19.471874 155.25972ZM20.6125 150.75972L22.83125 150.75972Q23.940624 150.75972 24.39375 150.35347Q24.8625 149.9316 24.8625 149.1816Q24.8625 148.65034 24.58125 148.27534Q24.315624 147.88472 23.878124 147.75972Q23.58125 147.6816 22.815624 147.6816L20.6125 147.6816L20.6125 150.75972ZM27.33125 155.25972L27.33125 149.04097L28.284374 149.04097L28.284374 149.97847Q28.64375 149.32222 28.940624 149.1191Q29.253124 148.90034 29.628124 148.90034Q30.159374 148.90034 30.70625 149.22847L30.346874 150.21284Q29.95625 149.97847 29.58125 149.97847Q29.221874 149.97847 28.940624 150.19722Q28.675 150.40034 28.565624 150.77534Q28.378124 151.33784 28.378124 151.9941L28.378124 155.25972L27.33125 155.25972ZM31.346874 147.88472L31.346874 146.66597L32.409374 146.66597L32.409374 147.88472L31.346874 147.88472ZM31.346874 155.25972L31.346874 149.04097L32.409374 149.04097L32.409374 155.25972L31.346874 155.25972ZM34.346874 155.25972L34.346874 149.04097L35.284374 149.04097L35.284374 149.91597Q35.58125 149.44722 36.065624 149.1816Q36.55 148.90034 37.175 148.90034Q37.8625 148.90034 38.3 149.1816Q38.753124 149.46284 38.925 149.97847Q39.675 148.90034 40.846874 148.90034Q41.784374 148.90034 42.26875 149.41597Q42.76875 149.91597 42.76875 150.9941L42.76875 155.25972L41.721874 155.25972L41.721874 151.33784Q41.721874 150.71284 41.6125 150.4316Q41.51875 150.15034 41.253124 149.97847Q40.9875 149.8066 40.6125 149.8066Q39.95625 149.8066 39.51875 150.2441Q39.096874 150.6816 39.096874 151.65034L39.096874 155.25972L38.034374 155.25972L38.034374 151.21284Q38.034374 150.50972 37.76875 150.16597Q37.51875 149.8066 36.940624 149.8066Q36.4875 149.8066 36.1125 150.04097Q35.7375 150.27534 35.565624 150.72847Q35.39375 151.1816 35.39375 152.02534L35.39375 155.25972L34.346874 155.25972ZM49.409374 154.4941Q48.815624 154.9941 48.26875 155.19722Q47.7375 155.40034 47.1125 155.40034Q46.08125 155.40034 45.534374 154.90034Q44.9875 154.40034 44.9875 153.6191Q44.9875 153.16597 45.190624 152.79097Q45.39375 152.40034 45.7375 152.1816Q46.08125 151.94722 46.503124 151.83784Q46.8 151.7441 47.440624 151.66597Q48.70625 151.52534 49.315624 151.3066Q49.315624 151.08784 49.315624 151.04097Q49.315624 150.38472 49.01875 150.1191Q48.6125 149.77534 47.815624 149.77534Q47.08125 149.77534 46.721874 150.04097Q46.3625 150.29097 46.190624 150.94722L45.159374 150.8066Q45.3 150.15034 45.628124 149.7441Q45.95625 149.33784 46.565624 149.1191Q47.175 148.90034 47.971874 148.90034Q48.76875 148.90034 49.26875 149.08784Q49.76875 149.27534 50.003124 149.5566Q50.2375 149.83784 50.33125 150.27534Q50.378124 150.54097 50.378124 151.2441L50.378124 152.65034Q50.378124 154.1191 50.440624 154.50972Q50.51875 154.90034 50.721874 155.25972L49.6125 155.25972Q49.45625 154.9316 49.409374 154.4941ZM49.315624 152.13472Q48.7375 152.3691 47.596874 152.54097Q46.940624 152.63472 46.675 152.75972Q46.409374 152.8691 46.253124 153.08784Q46.1125 153.3066 46.1125 153.58784Q46.1125 154.00972 46.425 154.29097Q46.753124 154.57222 47.3625 154.57222Q47.971874 154.57222 48.440624 154.3066Q48.925 154.04097 49.14375 153.57222Q49.315624 153.21284 49.315624 152.52534L49.315624 152.13472ZM52.33125 155.25972L52.33125 149.04097L53.284374 149.04097L53.284374 149.97847Q53.64375 149.32222 53.940624 149.1191Q54.253124 148.90034 54.628124 148.90034Q55.159374 148.90034 55.70625 149.22847L55.346874 150.21284Q54.95625 149.97847 54.58125 149.97847Q54.221874 149.97847 53.940624 150.19722Q53.675 150.40034 53.565624 150.77534Q53.378124 151.33784 53.378124 151.9941L53.378124 155.25972L52.33125 155.25972ZM56.3 157.65034L56.175 156.66597Q56.51875 156.75972 56.784374 156.75972Q57.128124 156.75972 57.33125 156.63472Q57.55 156.52534 57.690624 156.32222Q57.784374 156.15034 58.01875 155.52534Q58.034374 155.44722 58.1125 155.27534L55.7375 149.04097L56.878124 149.04097L58.175 152.63472Q58.425 153.32222 58.628124 154.08784Q58.815624 153.35347 59.065624 152.66597L60.39375 149.04097L61.440624 149.04097L59.08125 155.3691Q58.690624 156.38472 58.4875 156.77534Q58.20625 157.3066 57.83125 157.54097Q57.471874 157.79097 56.971874 157.79097Q56.675 157.79097 56.3 157.65034ZM64.50313 155.25972L64.50313 146.66597L70.70625 146.66597L70.70625 147.6816L65.64375 147.6816L65.64375 150.3066L70.39375 150.3066L70.39375 151.32222L65.64375 151.32222L65.64375 154.2441L70.90938 154.2441L70.90938 155.25972L64.50313 155.25972ZM71.64375 155.25972L73.90938 152.02534L71.81563 149.04097L73.12813 149.04097L74.08125 150.4941Q74.34688 150.91597 74.51875 151.19722Q74.76875 150.8066 74.9875 150.50972L76.03438 149.04097L77.3 149.04097L75.14375 151.96284L77.45625 155.25972L76.175 155.25972L74.89375 153.32222L74.55 152.8066L72.90938 155.25972L71.64375 155.25972ZM77.34688 157.65034L77.34688 149.04097L78.3 149.04097L78.3 149.83784Q78.64375 149.3691 79.06563 149.13472Q79.50313 148.90034 80.1125 148.90034Q80.90938 148.90034 81.51875 149.3066Q82.12813 149.71284 82.425 150.46284Q82.7375 151.21284 82.7375 152.10347Q82.7375 153.0566 82.39375 153.82222Q82.06563 154.58784 81.40938 154.9941Q80.75313 155.40034 80.03438 155.40034Q79.50313 155.40034 79.08125 155.1816Q78.65938 154.94722 78.39375 154.6191L78.39375 157.65034L77.34688 157.65034ZM78.3 152.1816Q78.3 153.38472 78.78438 153.96284Q79.26875 154.52534 79.95625 154.52534Q80.65938 154.52534 81.15938 153.9316Q81.65938 153.33784 81.65938 152.08784Q81.65938 150.90034 81.175 150.32222Q80.69063 149.72847 80.00313 149.72847Q79.33125 149.72847 78.81563 150.35347Q78.3 150.97847 78.3 152.1816ZM84.64375 155.25972L84.64375 154.0566L85.84688 154.0566L85.84688 155.25972L84.64375 155.25972Z" fill-rule="nonzero"/><path fill="#9e9e9e" d="M19.05 169.9941L20.1125 169.85347Q20.284374 170.7441 20.721874 171.15034Q21.159374 171.54097 21.784374 171.54097Q22.534374 171.54097 23.05 171.02534Q23.565624 170.50972 23.565624 169.7441Q23.565624 169.02534 23.08125 168.5566Q22.6125 168.07222 21.878124 168.07222Q21.58125 168.07222 21.128124 168.19722L21.253124 167.25972Q21.3625 167.27534 21.425 167.27534Q22.096874 167.27534 22.628124 166.9316Q23.175 166.57222 23.175 165.83784Q23.175 165.25972 22.784374 164.88472Q22.39375 164.4941 21.76875 164.4941Q21.159374 164.4941 20.7375 164.88472Q20.33125 165.27534 20.221874 166.04097L19.159374 165.85347Q19.346874 164.8066 20.034374 164.22847Q20.721874 163.63472 21.7375 163.63472Q22.440624 163.63472 23.034374 163.94722Q23.628124 164.2441 23.940624 164.75972Q24.253124 165.27534 24.253124 165.8691Q24.253124 166.41597 23.95625 166.88472Q23.659374 167.33784 23.08125 167.60347Q23.83125 167.77534 24.253124 168.33784Q24.675 168.88472 24.675 169.72847Q24.675 170.85347 23.846874 171.63472Q23.034374 172.41597 21.784374 172.41597Q20.659374 172.41597 19.909374 171.7441Q19.159374 171.0566 19.05 169.9941ZM26.05 168.02534Q26.05 166.4941 26.3625 165.57222Q26.675 164.63472 27.284374 164.13472Q27.909374 163.63472 28.846874 163.63472Q29.534374 163.63472 30.05 163.91597Q30.58125 164.19722 30.925 164.72847Q31.26875 165.2441 31.45625 165.9941Q31.64375 166.7441 31.64375 168.02534Q31.64375 169.54097 31.33125 170.46284Q31.034374 171.38472 30.409374 171.90034Q29.8 172.40034 28.846874 172.40034Q27.6125 172.40034 26.89375 171.50972Q26.05 170.44722 26.05 168.02534ZM27.128124 168.02534Q27.128124 170.13472 27.628124 170.83784Q28.128124 171.54097 28.846874 171.54097Q29.58125 171.54097 30.065624 170.83784Q30.565624 170.13472 30.565624 168.02534Q30.565624 165.90034 30.065624 165.21284Q29.58125 164.50972 28.83125 164.50972Q28.1125 164.50972 27.675 165.1191Q27.128124 165.90034 27.128124 168.02534ZM33.64375 172.25972L33.64375 171.0566L34.846874 171.0566L34.846874 172.25972L33.64375 172.25972ZM37.675 167.60347Q37.01875 167.35347 36.690624 166.91597Q36.378124 166.46284 36.378124 165.85347Q36.378124 164.91597 37.05 164.27534Q37.7375 163.63472 38.846874 163.63472Q39.971874 163.63472 40.659374 164.29097Q41.346874 164.94722 41.346874 165.88472Q41.346874 166.47847 41.034374 166.91597Q40.721874 167.35347 40.08125 167.60347Q40.878124 167.85347 41.284374 168.4316Q41.690624 169.00972 41.690624 169.8066Q41.690624 170.90034 40.909374 171.65034Q40.14375 172.40034 38.8625 172.40034Q37.596874 172.40034 36.815624 171.65034Q36.034374 170.90034 36.034374 169.77534Q36.034374 168.9316 36.45625 168.3691Q36.89375 167.8066 37.675 167.60347ZM37.45625 165.8066Q37.45625 166.41597 37.846874 166.8066Q38.253124 167.19722 38.878124 167.19722Q39.4875 167.19722 39.878124 166.82222Q40.26875 166.4316 40.26875 165.8691Q40.26875 165.29097 39.8625 164.90034Q39.45625 164.4941 38.8625 164.4941Q38.253124 164.4941 37.846874 164.88472Q37.45625 165.27534 37.45625 165.8066ZM37.128124 169.77534Q37.128124 170.22847 37.33125 170.65034Q37.55 171.07222 37.971874 171.3066Q38.39375 171.54097 38.878124 171.54097Q39.628124 171.54097 40.1125 171.0566Q40.6125 170.57222 40.6125 169.82222Q40.6125 169.0566 40.1125 168.5566Q39.6125 168.0566 38.846874 168.0566Q38.096874 168.0566 37.6125 168.5566Q37.128124 169.04097 37.128124 169.77534ZM43.253124 165.72847Q43.253124 164.8066 43.70625 164.16597Q44.175 163.52534 45.05 163.52534Q45.8625 163.52534 46.39375 164.10347Q46.925 164.6816 46.925 165.79097Q46.925 166.88472 46.378124 167.47847Q45.846874 168.0566 45.065624 168.0566Q44.284374 168.0566 43.76875 167.47847Q43.253124 166.90034 43.253124 165.72847ZM45.08125 164.2441Q44.690624 164.2441 44.425 164.58784Q44.175 164.9316 44.175 165.83784Q44.175 166.66597 44.425 167.00972Q44.690624 167.33784 45.08125 167.33784Q45.4875 167.33784 45.7375 166.9941Q46.003124 166.65034 46.003124 165.75972Q46.003124 164.91597 45.7375 164.58784Q45.471874 164.2441 45.08125 164.2441ZM45.08125 172.57222L49.784374 163.52534L50.64375 163.52534L45.95625 172.57222L45.08125 172.57222ZM48.8 170.2441Q48.8 169.32222 49.253124 168.6816Q49.721874 168.04097 50.6125 168.04097Q51.425 168.04097 51.95625 168.6191Q52.4875 169.1816 52.4875 170.3066Q52.4875 171.40034 51.940624 171.9941Q51.409374 172.57222 50.6125 172.57222Q49.846874 172.57222 49.315624 171.9941Q48.8 171.41597 48.8 170.2441ZM50.64375 168.75972Q50.2375 168.75972 49.971874 169.10347Q49.721874 169.44722 49.721874 170.35347Q49.721874 171.16597 49.9875 171.50972Q50.253124 171.85347 50.64375 171.85347Q51.034374 171.85347 51.3 171.50972Q51.565624 171.16597 51.565624 170.25972Q51.565624 169.4316 51.3 169.10347Q51.034374 168.75972 50.64375 168.75972Z" fill-rule="nonzero"/><path stroke="#757575" stroke-width="1.0" stroke-linecap="butt" d="M18.55 159.75972L156.98334 159.75972L182.3412 159.75972" fill-rule="nonzero"/><path fill="#9e9e9e" d="M184.3412 159.75972C184.3412 158.65515 183.44577 157.75972 182.3412 157.75972C181.23663 157.75972 180.3412 158.65515 180.3412 159.75972C180.3412 160.86429 181.23663 161.75972 182.3412 161.75972C183.44577 161.75972 184.3412 160.86429 184.3412 159.75972" fill-rule="nonzero"/><path fill="#1a1a1a" d="M19.4875 332.45L19.4875 323.85626L23.3 323.85626Q24.45625 323.85626 25.05 324.09064Q25.64375 324.325 26.003124 324.91876Q26.3625 325.4969 26.3625 326.2Q26.3625 327.1219 25.76875 327.7469Q25.175 328.3719 23.940624 328.54376Q24.39375 328.7625 24.628124 328.96564Q25.128124 329.41876 25.565624 330.10626L27.065624 332.45L25.628124 332.45L24.503124 330.66876Q24.003124 329.8875 23.675 329.48126Q23.3625 329.075 23.096874 328.91876Q22.846874 328.7469 22.58125 328.66876Q22.39375 328.6375 21.95625 328.6375L20.628124 328.6375L20.628124 332.45L19.4875 332.45ZM20.628124 327.65314L23.08125 327.65314Q23.846874 327.65314 24.284374 327.4969Q24.7375 327.325 24.95625 326.98126Q25.190624 326.6219 25.190624 326.2Q25.190624 325.59064 24.7375 325.2Q24.3 324.8094 23.346874 324.8094L20.628124 324.8094L20.628124 327.65314ZM32.596874 330.45L33.690624 330.575Q33.440624 331.52814 32.7375 332.0594Q32.034374 332.59064 30.95625 332.59064Q29.596874 332.59064 28.784374 331.7469Q27.9875 330.90314 27.9875 329.3875Q27.9875 327.825 28.8 326.96564Q29.6125 326.09064 30.89375 326.09064Q32.14375 326.09064 32.925 326.9344Q33.721874 327.77814 33.721874 329.325Q33.721874 329.41876 33.721874 329.60626L29.08125 329.60626Q29.14375 330.6375 29.659374 331.1844Q30.175 331.71564 30.95625 331.71564Q31.534374 331.71564 31.940624 331.41876Q32.3625 331.10626 32.596874 330.45ZM29.14375 328.7469L32.6125 328.7469Q32.55 327.95 32.221874 327.5594Q31.70625 326.95 30.909374 326.95Q30.175 326.95 29.675 327.4344Q29.190624 327.91876 29.14375 328.7469ZM37.065624 332.45L34.70625 326.23126L35.815624 326.23126L37.159374 329.95Q37.3625 330.5594 37.55 331.2Q37.690624 330.71564 37.940624 330.02814L39.33125 326.23126L40.409374 326.23126L38.05 332.45L37.065624 332.45ZM44.596874 330.45L45.690624 330.575Q45.440624 331.52814 44.7375 332.0594Q44.034374 332.59064 42.95625 332.59064Q41.596874 332.59064 40.784374 331.7469Q39.9875 330.90314 39.9875 329.3875Q39.9875 327.825 40.8 326.96564Q41.6125 326.09064 42.89375 326.09064Q44.14375 326.09064 44.925 326.9344Q45.721874 327.77814 45.721874 329.325Q45.721874 329.41876 45.721874 329.60626L41.08125 329.60626Q41.14375 330.6375 41.659374 331.1844Q42.175 331.71564 42.95625 331.71564Q43.534374 331.71564 43.940624 331.41876Q44.3625 331.10626 44.596874 330.45ZM41.14375 328.7469L44.6125 328.7469Q44.55 327.95 44.221874 327.5594Q43.70625 326.95 42.909374 326.95Q42.175 326.95 41.675 327.4344Q41.190624 327.91876 41.14375 328.7469ZM47.346874 332.45L47.346874 326.23126L48.284374 326.23126L48.284374 327.10626Q48.971874 326.09064 50.26875 326.09064Q50.83125 326.09064 51.3 326.29376Q51.784374 326.4969 52.01875 326.825Q52.253124 327.15314 52.346874 327.59064Q52.39375 327.8875 52.39375 328.6219L52.39375 332.45L51.346874 332.45L51.346874 328.66876Q51.346874 328.0125 51.221874 327.7Q51.096874 327.3875 50.784374 327.2Q50.471874 326.9969 50.05 326.9969Q49.378124 326.9969 48.878124 327.4344Q48.39375 327.85626 48.39375 329.04376L48.39375 332.45L47.346874 332.45ZM58.425 332.45L58.425 331.52814Q57.690624 332.59064 56.440624 332.59064Q55.89375 332.59064 55.409374 332.3875Q54.940624 332.16876 54.70625 331.85626Q54.471874 331.52814 54.378124 331.0594Q54.315624 330.7625 54.315624 330.075L54.315624 326.23126L55.378124 326.23126L55.378124 329.6844Q55.378124 330.4969 55.440624 330.79376Q55.534374 331.2 55.846874 331.45Q56.175 331.6844 56.659374 331.6844Q57.128124 331.6844 57.534374 331.45Q57.95625 331.2 58.128124 330.77814Q58.315624 330.35626 58.315624 329.5594L58.315624 326.23126L59.3625 326.23126L59.3625 332.45L58.425 332.45ZM65.59688 330.45L66.69063 330.575Q66.44063 331.52814 65.7375 332.0594Q65.03438 332.59064 63.95625 332.59064Q62.596874 332.59064 61.784374 331.7469Q60.9875 330.90314 60.9875 329.3875Q60.9875 327.825 61.8 326.96564Q62.6125 326.09064 63.89375 326.09064Q65.14375 326.09064 65.925 326.9344Q66.72188 327.77814 66.72188 329.325Q66.72188 329.41876 66.72188 329.60626L62.08125 329.60626Q62.14375 330.6375 62.659374 331.1844Q63.175 331.71564 63.95625 331.71564Q64.53438 331.71564 64.94063 331.41876Q65.3625 331.10626 65.59688 330.45ZM62.14375 328.7469L65.6125 328.7469Q65.55 327.95 65.22188 327.5594Q64.70625 326.95 63.909374 326.95Q63.175 326.95 62.675 327.4344Q62.190624 327.91876 62.14375 328.7469Z" fill-rule="nonzero"/><path fill="#9e9e9e" d="M24.596874 348.4344L24.596874 349.45L18.909374 349.45Q18.909374 349.075 19.034374 348.71564Q19.253124 348.1375 19.721874 347.575Q20.20625 347.0125 21.1125 346.27814Q22.51875 345.1219 23.003124 344.45Q23.503124 343.77814 23.503124 343.1844Q23.503124 342.5594 23.05 342.1375Q22.596874 341.7 21.878124 341.7Q21.1125 341.7 20.659374 342.15314Q20.20625 342.60626 20.190624 343.41876L19.1125 343.3094Q19.221874 342.09064 19.940624 341.46564Q20.675 340.825 21.909374 340.825Q23.14375 340.825 23.8625 341.5125Q24.58125 342.2 24.58125 343.21564Q24.58125 343.73126 24.3625 344.23126Q24.159374 344.71564 23.659374 345.27814Q23.175 345.825 22.05 346.77814Q21.096874 347.575 20.815624 347.8719Q20.55 348.15314 20.378124 348.4344L24.596874 348.4344ZM26.1125 341.98126L26.1125 340.96564L31.675 340.96564L31.675 341.79376Q30.8625 342.66876 30.05 344.1219Q29.253124 345.5594 28.815624 347.09064Q28.4875 348.16876 28.409374 349.45L27.315624 349.45Q27.33125 348.4344 27.70625 346.9969Q28.096874 345.5594 28.8 344.23126Q29.51875 342.90314 30.33125 341.98126L26.1125 341.98126ZM33.64375 349.45L33.64375 348.2469L34.846874 348.2469L34.846874 349.45L33.64375 349.45ZM39.425 349.45L39.425 347.3875L35.70625 347.3875L35.70625 346.41876L39.628124 340.85626L40.4875 340.85626L40.4875 346.41876L41.64375 346.41876L41.64375 347.3875L40.4875 347.3875L40.4875 349.45L39.425 349.45ZM39.425 346.41876L39.425 342.5594L36.7375 346.41876L39.425 346.41876ZM43.253124 342.91876Q43.253124 341.9969 43.70625 341.35626Q44.175 340.71564 45.05 340.71564Q45.8625 340.71564 46.39375 341.29376Q46.925 341.8719 46.925 342.98126Q46.925 344.075 46.378124 344.66876Q45.846874 345.2469 45.065624 345.2469Q44.284374 345.2469 43.76875 344.66876Q43.253124 344.09064 43.253124 342.91876ZM45.08125 341.4344Q44.690624 341.4344 44.425 341.77814Q44.175 342.1219 44.175 343.02814Q44.175 343.85626 44.425 344.2Q44.690624 344.52814 45.08125 344.52814Q45.4875 344.52814 45.7375 344.1844Q46.003124 343.84064 46.003124 342.95Q46.003124 342.10626 45.7375 341.77814Q45.471874 341.4344 45.08125 341.4344ZM45.08125 349.7625L49.784374 340.71564L50.64375 340.71564L45.95625 349.7625L45.08125 349.7625ZM48.8 347.4344Q48.8 346.5125 49.253124 345.8719Q49.721874 345.23126 50.6125 345.23126Q51.425 345.23126 51.95625 345.8094Q52.4875 346.3719 52.4875 347.4969Q52.4875 348.59064 51.940624 349.1844Q51.409374 349.7625 50.6125 349.7625Q49.846874 349.7625 49.315624 349.1844Q48.8 348.60626 48.8 347.4344ZM50.64375 345.95Q50.2375 345.95 49.971874 346.29376Q49.721874 346.6375 49.721874 347.54376Q49.721874 348.35626 49.9875 348.7Q50.253124 349.04376 50.64375 349.04376Q51.034374 349.04376 51.3 348.7Q51.565624 348.35626 51.565624 347.45Q51.565624 346.6219 51.3 346.29376Q51.034374 345.95 50.64375 345.95Z" fill-rule="nonzero"/><path stroke="#757575" stroke-width="1.0" stroke-linecap="butt" d="M18.55 336.95L156.98334 336.95L276.10037 343.38626" fill-rule="nonzero"/><path fill="#9e9e9e" d="M278.10037 343.38626C278.10037 342.2817 277.20496 341.38626 276.10037 341.38626C274.99582 341.38626 274.10037 342.2817 274.10037 343.38626C274.10037 344.49084 274.99582 345.38626 276.10037 345.38626C277.20496 345.38626 278.10037 344.49084 278.10037 343.38626" fill-rule="nonzero"/><path fill="#1a1a1a" d="M506.325 89.416664L506.325 80.822914L509.5594 80.822914Q510.54376 80.822914 511.1375 81.08854Q511.73126 81.354164 512.0594 81.90104Q512.40314 82.43229 512.40314 83.02604Q512.40314 83.572914 512.10626 84.05729Q511.8094 84.541664 511.2 84.83854Q511.98126 85.072914 512.3875 85.635414Q512.8094 86.18229 512.8094 86.93229Q512.8094 87.52604 512.5594 88.05729Q512.3094 88.572914 511.9344 88.854164Q511.5594 89.135414 510.98126 89.27604Q510.41876 89.416664 509.60626 89.416664L506.325 89.416664ZM507.46564 84.43229L509.325 84.43229Q510.075 84.43229 510.40314 84.33854Q510.84064 84.21354 511.0594 83.916664Q511.27814 83.604164 511.27814 83.15104Q511.27814 82.729164 511.075 82.40104Q510.8719 82.072914 510.48126 81.96354Q510.10626 81.83854 509.1844 81.83854L507.46564 81.83854L507.46564 84.43229ZM507.46564 88.40104L509.60626 88.40104Q510.15314 88.40104 510.3719 88.354164Q510.77814 88.291664 511.02814 88.135414Q511.29376 87.96354 511.46564 87.65104Q511.6375 87.33854 511.6375 86.93229Q511.6375 86.447914 511.3875 86.08854Q511.15314 85.729164 510.71564 85.58854Q510.27814 85.447914 509.45 85.447914L507.46564 85.447914L507.46564 88.40104ZM518.325 89.416664L518.325 88.49479Q517.59064 89.55729 516.34064 89.55729Q515.79376 89.55729 515.3094 89.354164Q514.84064 89.135414 514.60626 88.822914Q514.3719 88.49479 514.27814 88.02604Q514.21564 87.729164 514.21564 87.041664L514.21564 83.197914L515.27814 83.197914L515.27814 86.65104Q515.27814 87.46354 515.34064 87.760414Q515.4344 88.166664 515.7469 88.416664Q516.075 88.65104 516.5594 88.65104Q517.02814 88.65104 517.4344 88.416664Q517.85626 88.166664 518.02814 87.74479Q518.21564 87.322914 518.21564 86.52604L518.21564 83.197914L519.2625 83.197914L519.2625 89.416664L518.325 89.416664ZM525.27814 89.416664L525.27814 88.635414Q524.6844 89.55729 523.54376 89.55729Q522.79376 89.55729 522.16876 89.15104Q521.54376 88.729164 521.2 87.99479Q520.85626 87.260414 520.85626 86.30729Q520.85626 85.385414 521.16876 84.61979Q521.48126 83.854164 522.10626 83.46354Q522.73126 83.05729 523.4969 83.05729Q524.0594 83.05729 524.4969 83.291664Q524.9344 83.52604 525.21564 83.90104L525.21564 80.822914L526.2625 80.822914L526.2625 89.416664L525.27814 89.416664ZM521.95 86.30729Q521.95 87.510414 522.45 88.104164Q522.95 88.68229 523.6375 88.68229Q524.325 88.68229 524.8094 88.11979Q525.29376 87.55729 525.29376 86.40104Q525.29376 85.11979 524.79376 84.52604Q524.3094 83.93229 523.59064 83.93229Q522.8875 83.93229 522.41876 84.510414Q521.95 85.072914 521.95 86.30729ZM528.04376 89.93229L529.075 90.08854Q529.1375 90.55729 529.4344 90.77604Q529.825 91.072914 530.4969 91.072914Q531.23126 91.072914 531.6219 90.77604Q532.02814 90.479164 532.16876 89.96354Q532.2625 89.635414 532.2469 88.604164Q531.5594 89.416664 530.52814 89.416664Q529.2469 89.416664 528.54376 88.49479Q527.84064 87.55729 527.84064 86.27604Q527.84064 85.385414 528.15314 84.635414Q528.48126 83.86979 529.09064 83.46354Q529.7 83.05729 530.52814 83.05729Q531.6375 83.05729 532.35626 83.947914L532.35626 83.197914L533.325 83.197914L533.325 88.572914Q533.325 90.02604 533.02814 90.635414Q532.73126 91.24479 532.09064 91.58854Q531.45 91.947914 530.5125 91.947914Q529.40314 91.947914 528.71564 91.447914Q528.02814 90.947914 528.04376 89.93229ZM528.91876 86.197914Q528.91876 87.416664 529.40314 87.979164Q529.8875 88.541664 530.6219 88.541664Q531.35626 88.541664 531.84064 87.979164Q532.34064 87.416664 532.34064 86.229164Q532.34064 85.08854 531.825 84.510414Q531.325 83.93229 530.60626 83.93229Q529.90314 83.93229 529.40314 84.510414Q528.91876 85.072914 528.91876 86.197914ZM539.4969 87.416664L540.59064 87.541664Q540.34064 88.49479 539.6375 89.02604Q538.9344 89.55729 537.85626 89.55729Q536.4969 89.55729 535.6844 88.71354Q534.8875 87.86979 534.8875 86.354164Q534.8875 84.791664 535.7 83.93229Q536.5125 83.05729 537.79376 83.05729Q539.04376 83.05729 539.825 83.90104Q540.6219 84.74479 540.6219 86.291664Q540.6219 86.385414 540.6219 86.572914L535.98126 86.572914Q536.04376 87.604164 536.5594 88.15104Q537.075 88.68229 537.85626 88.68229Q538.4344 88.68229 538.84064 88.385414Q539.2625 88.072914 539.4969 87.416664ZM536.04376 85.71354L539.5125 85.71354Q539.45 84.916664 539.1219 84.52604Q538.60626 83.916664 537.8094 83.916664Q537.075 83.916664 536.575 84.40104Q536.09064 84.885414 536.04376 85.71354ZM544.54376 88.479164L544.7 89.40104Q544.2469 89.49479 543.90314 89.49479Q543.325 89.49479 543.0125 89.322914Q542.7 89.135414 542.5594 88.83854Q542.4344 88.541664 542.4344 87.58854L542.4344 84.010414L541.66876 84.010414L541.66876 83.197914L542.4344 83.197914L542.4344 81.65104L543.48126 81.02604L543.48126 83.197914L544.54376 83.197914L544.54376 84.010414L543.48126 84.010414L543.48126 87.65104Q543.48126 88.104164 543.52814 88.229164Q543.59064 88.354164 543.71564 88.43229Q543.84064 88.510414 544.075 88.510414Q544.2625 88.510414 544.54376 88.479164ZM548.3719 89.416664L548.3719 80.822914L551.34064 80.822914Q552.34064 80.822914 552.8719 80.947914Q553.60626 81.11979 554.1219 81.55729Q554.8094 82.135414 555.1375 83.041664Q555.48126 83.93229 555.48126 85.072914Q555.48126 86.05729 555.2469 86.80729Q555.02814 87.55729 554.66876 88.05729Q554.3094 88.55729 553.8719 88.83854Q553.45 89.11979 552.85626 89.27604Q552.2625 89.416664 551.48126 89.416664L548.3719 89.416664ZM549.5125 88.40104L551.34064 88.40104Q552.2 88.40104 552.6844 88.24479Q553.16876 88.08854 553.45 87.791664Q553.85626 87.40104 554.075 86.71354Q554.3094 86.02604 554.3094 85.05729Q554.3094 83.71354 553.85626 82.99479Q553.41876 82.260414 552.79376 82.010414Q552.325 81.83854 551.325 81.83854L549.5125 81.83854L549.5125 88.40104ZM561.4969 87.416664L562.59064 87.541664Q562.34064 88.49479 561.6375 89.02604Q560.9344 89.55729 559.85626 89.55729Q558.4969 89.55729 557.6844 88.71354Q556.8875 87.86979 556.8875 86.354164Q556.8875 84.791664 557.7 83.93229Q558.5125 83.05729 559.79376 83.05729Q561.04376 83.05729 561.825 83.90104Q562.6219 84.74479 562.6219 86.291664Q562.6219 86.385414 562.6219 86.572914L557.98126 86.572914Q558.04376 87.604164 558.5594 88.15104Q559.075 88.68229 559.85626 88.68229Q560.4344 88.68229 560.84064 88.385414Q561.2625 88.072914 561.4969 87.416664ZM558.04376 85.71354L561.5125 85.71354Q561.45 84.916664 561.1219 84.52604Q560.60626 83.916664 559.8094 83.916664Q559.075 83.916664 558.575 84.40104Q558.09064 84.885414 558.04376 85.71354ZM564.4969 89.416664L564.4969 84.010414L563.5594 84.010414L563.5594 83.197914L564.4969 83.197914L564.4969 82.52604Q564.4969 81.90104 564.60626 81.604164Q564.7625 81.18229 565.1375 80.93229Q565.52814 80.68229 566.21564 80.68229Q566.66876 80.68229 567.2 80.791664L567.04376 81.697914Q566.71564 81.65104 566.41876 81.65104Q565.9344 81.65104 565.73126 81.854164Q565.54376 82.05729 565.54376 82.61979L565.54376 83.197914L566.7625 83.197914L566.7625 84.010414L565.54376 84.010414L565.54376 89.416664L564.4969 89.416664ZM567.2469 82.041664L567.2469 80.822914L568.3094 80.822914L568.3094 82.041664L567.2469 82.041664ZM567.2469 89.416664L567.2469 83.197914L568.3094 83.197914L568.3094 89.416664L567.2469 89.416664ZM574.3094 87.135414L575.34064 87.27604Q575.16876 88.33854 574.46564 88.947914Q573.7625 89.55729 572.7469 89.55729Q571.46564 89.55729 570.6844 88.729164Q569.91876 87.885414 569.91876 86.322914Q569.91876 85.322914 570.2469 84.572914Q570.59064 83.80729 571.2625 83.43229Q571.95 83.05729 572.7625 83.05729Q573.7625 83.05729 574.40314 83.572914Q575.0594 84.072914 575.2469 85.02604L574.21564 85.18229Q574.075 84.55729 573.7 84.24479Q573.325 83.916664 572.79376 83.916664Q571.9969 83.916664 571.4969 84.49479Q570.9969 85.05729 570.9969 86.291664Q570.9969 87.55729 571.48126 88.11979Q571.96564 88.68229 572.73126 88.68229Q573.35626 88.68229 573.7625 88.30729Q574.1844 87.93229 574.3094 87.135414ZM576.2469 82.041664L576.2469 80.822914L577.3094 80.822914L577.3094 82.041664L576.2469 82.041664ZM576.2469 89.416664L576.2469 83.197914L577.3094 83.197914L577.3094 89.416664L576.2469 89.416664ZM581.54376 88.479164L581.7 89.40104Q581.2469 89.49479 580.90314 89.49479Q580.325 89.49479 580.0125 89.322914Q579.7 89.135414 579.5594 88.83854Q579.4344 88.541664 579.4344 87.58854L579.4344 84.010414L578.66876 84.010414L578.66876 83.197914L579.4344 83.197914L579.4344 81.65104L580.48126 81.02604L580.48126 83.197914L581.54376 83.197914L581.54376 84.010414L580.48126 84.010414L580.48126 87.65104Q580.48126 88.104164 580.52814 88.229164Q580.59064 88.354164 580.71564 88.43229Q580.84064 88.510414 581.075 88.510414Q581.2625 88.510414 581.54376 88.479164Z" fill-rule="nonzero"/><path fill="#9e9e9e" d="M553.95 104.166664L555.0594 104.072914Q555.1844 104.885414 555.6219 105.291664Q556.075 105.697914 556.71564 105.697914Q557.46564 105.697914 557.9969 105.11979Q558.52814 104.541664 558.52814 103.604164Q558.52814 102.697914 558.0125 102.18229Q557.5125 101.65104 556.6844 101.65104Q556.1844 101.65104 555.7625 101.885414Q555.35626 102.11979 555.1219 102.479164L554.1375 102.354164L554.96564 97.947914L559.2469 97.947914L559.2469 98.947914L555.8094 98.947914L555.35626 101.260414Q556.1219 100.71354 556.96564 100.71354Q558.09064 100.71354 558.85626 101.49479Q559.6375 102.27604 559.6375 103.510414Q559.6375 104.666664 558.96564 105.52604Q558.1375 106.55729 556.71564 106.55729Q555.54376 106.55729 554.79376 105.90104Q554.0594 105.24479 553.95 104.166664ZM561.54376 106.416664L561.54376 105.21354L562.7469 105.21354L562.7469 106.416664L561.54376 106.416664ZM564.10626 104.43229L565.1219 104.33854Q565.2469 105.05729 565.60626 105.385414Q565.98126 105.697914 566.54376 105.697914Q567.02814 105.697914 567.3875 105.479164Q567.7625 105.24479 567.9969 104.885414Q568.23126 104.510414 568.3875 103.885414Q568.54376 103.24479 568.54376 102.58854Q568.54376 102.510414 568.54376 102.36979Q568.23126 102.86979 567.6844 103.197914Q567.1375 103.510414 566.4969 103.510414Q565.41876 103.510414 564.6844 102.74479Q563.95 101.96354 563.95 100.697914Q563.95 99.385414 564.71564 98.58854Q565.4969 97.791664 566.65314 97.791664Q567.48126 97.791664 568.16876 98.24479Q568.8719 98.697914 569.23126 99.541664Q569.59064 100.36979 569.59064 101.947914Q569.59064 103.58854 569.23126 104.572914Q568.8875 105.541664 568.16876 106.05729Q567.46564 106.55729 566.52814 106.55729Q565.5125 106.55729 564.8719 106.010414Q564.23126 105.447914 564.10626 104.43229ZM568.41876 100.635414Q568.41876 99.729164 567.9344 99.197914Q567.46564 98.666664 566.77814 98.666664Q566.075 98.666664 565.54376 99.24479Q565.02814 99.80729 565.02814 100.729164Q565.02814 101.541664 565.52814 102.05729Q566.02814 102.572914 566.7469 102.572914Q567.48126 102.572914 567.95 102.05729Q568.41876 101.541664 568.41876 100.635414ZM571.15314 99.885414Q571.15314 98.96354 571.60626 98.322914Q572.075 97.68229 572.95 97.68229Q573.7625 97.68229 574.29376 98.260414Q574.825 98.83854 574.825 99.947914Q574.825 101.041664 574.27814 101.635414Q573.7469 102.21354 572.96564 102.21354Q572.1844 102.21354 571.66876 101.635414Q571.15314 101.05729 571.15314 99.885414ZM572.98126 98.40104Q572.59064 98.40104 572.325 98.74479Q572.075 99.08854 572.075 99.99479Q572.075 100.822914 572.325 101.166664Q572.59064 101.49479 572.98126 101.49479Q573.3875 101.49479 573.6375 101.15104Q573.90314 100.80729 573.90314 99.916664Q573.90314 99.072914 573.6375 98.74479Q573.3719 98.40104 572.98126 98.40104ZM572.98126 106.729164L577.6844 97.68229L578.54376 97.68229L573.85626 106.729164L572.98126 106.729164ZM576.7 104.40104Q576.7 103.479164 577.15314 102.83854Q577.6219 102.197914 578.5125 102.197914Q579.325 102.197914 579.85626 102.77604Q580.3875 103.33854 580.3875 104.46354Q580.3875 105.55729 579.84064 106.15104Q579.3094 106.729164 578.5125 106.729164Q577.7469 106.729164 577.21564 106.15104Q576.7 105.572914 576.7 104.40104ZM578.54376 102.916664Q578.1375 102.916664 577.8719 103.260414Q577.6219 103.604164 577.6219 104.510414Q577.6219 105.322914 577.8875 105.666664Q578.15314 106.010414 578.54376 106.010414Q578.9344 106.010414 579.2 105.666664Q579.46564 105.322914 579.46564 104.416664Q579.46564 103.58854 579.2 103.260414Q578.9344 102.916664 578.54376 102.916664Z" fill-rule="nonzero"/><path stroke="#757575" stroke-width="1.0" stroke-linecap="butt" d="M581.45 93.916664L443.01666 93.916664L323.89963 87.4804" fill-rule="nonzero"/><path fill="#9e9e9e" d="M325.89963 87.4804C325.89963 86.37583 325.00418 85.4804 323.89963 85.4804C322.79504 85.4804 321.89963 86.37583 321.89963 87.4804C321.89963 88.58498 322.79504 89.4804 323.89963 89.4804C325.00418 89.4804 325.89963 88.58498 325.89963 87.4804" fill-rule="nonzero"/><path fill="#1a1a1a" d="M517.40314 190.99272L517.40314 182.39897L523.60626 182.39897L523.60626 183.4146L518.54376 183.4146L518.54376 186.0396L523.29376 186.0396L523.29376 187.05522L518.54376 187.05522L518.54376 189.9771L523.8094 189.9771L523.8094 190.99272L517.40314 190.99272ZM524.54376 190.99272L526.8094 187.75835L524.71564 184.77397L526.02814 184.77397L526.98126 186.2271Q527.2469 186.64897 527.41876 186.93022Q527.66876 186.5396 527.8875 186.24272L528.9344 184.77397L530.2 184.77397L528.04376 187.69585L530.35626 190.99272L529.075 190.99272L527.79376 189.05522L527.45 188.5396L525.8094 190.99272L524.54376 190.99272ZM530.2469 193.38335L530.2469 184.77397L531.2 184.77397L531.2 185.57085Q531.54376 185.1021 531.96564 184.86772Q532.40314 184.63335 533.0125 184.63335Q533.8094 184.63335 534.41876 185.0396Q535.02814 185.44585 535.325 186.19585Q535.6375 186.94585 535.6375 187.83647Q535.6375 188.7896 535.29376 189.55522Q534.96564 190.32085 534.3094 190.7271Q533.65314 191.13335 532.9344 191.13335Q532.40314 191.13335 531.98126 190.9146Q531.5594 190.68022 531.29376 190.3521L531.29376 193.38335L530.2469 193.38335ZM531.2 187.9146Q531.2 189.11772 531.6844 189.69585Q532.16876 190.25835 532.85626 190.25835Q533.5594 190.25835 534.0594 189.6646Q534.5594 189.07085 534.5594 187.82085Q534.5594 186.63335 534.075 186.05522Q533.59064 185.46147 532.90314 185.46147Q532.23126 185.46147 531.71564 186.08647Q531.2 186.71147 531.2 187.9146ZM541.4969 188.99272L542.59064 189.11772Q542.34064 190.07085 541.6375 190.6021Q540.9344 191.13335 539.85626 191.13335Q538.4969 191.13335 537.6844 190.2896Q536.8875 189.44585 536.8875 187.93022Q536.8875 186.36772 537.7 185.50835Q538.5125 184.63335 539.79376 184.63335Q541.04376 184.63335 541.825 185.4771Q542.6219 186.32085 542.6219 187.86772Q542.6219 187.96147 542.6219 188.14897L537.98126 188.14897Q538.04376 189.18022 538.5594 189.7271Q539.075 190.25835 539.85626 190.25835Q540.4344 190.25835 540.84064 189.96147Q541.2625 189.64897 541.4969 188.99272ZM538.04376 187.2896L541.5125 187.2896Q541.45 186.49272 541.1219 186.1021Q540.60626 185.49272 539.8094 185.49272Q539.075 185.49272 538.575 185.9771Q538.09064 186.46147 538.04376 187.2896ZM544.2469 190.99272L544.2469 184.77397L545.1844 184.77397L545.1844 185.64897Q545.8719 184.63335 547.16876 184.63335Q547.73126 184.63335 548.2 184.83647Q548.6844 185.0396 548.91876 185.36772Q549.15314 185.69585 549.2469 186.13335Q549.29376 186.43022 549.29376 187.1646L549.29376 190.99272L548.2469 190.99272L548.2469 187.21147Q548.2469 186.55522 548.1219 186.24272Q547.9969 185.93022 547.6844 185.74272Q547.3719 185.5396 546.95 185.5396Q546.27814 185.5396 545.77814 185.9771Q545.29376 186.39897 545.29376 187.58647L545.29376 190.99272L544.2469 190.99272ZM555.27814 190.99272L555.27814 190.21147Q554.6844 191.13335 553.54376 191.13335Q552.79376 191.13335 552.16876 190.7271Q551.54376 190.30522 551.2 189.57085Q550.85626 188.83647 550.85626 187.88335Q550.85626 186.96147 551.16876 186.19585Q551.48126 185.43022 552.10626 185.0396Q552.73126 184.63335 553.4969 184.63335Q554.0594 184.63335 554.4969 184.86772Q554.9344 185.1021 555.21564 185.4771L555.21564 182.39897L556.2625 182.39897L556.2625 190.99272L555.27814 190.99272ZM551.95 187.88335Q551.95 189.08647 552.45 189.68022Q552.95 190.25835 553.6375 190.25835Q554.325 190.25835 554.8094 189.69585Q555.29376 189.13335 555.29376 187.9771Q555.29376 186.69585 554.79376 186.1021Q554.3094 185.50835 553.59064 185.50835Q552.8875 185.50835 552.41876 186.08647Q551.95 186.64897 551.95 187.88335ZM558.2469 183.61772L558.2469 182.39897L559.3094 182.39897L559.3094 183.61772L558.2469 183.61772ZM558.2469 190.99272L558.2469 184.77397L559.3094 184.77397L559.3094 190.99272L558.2469 190.99272ZM563.54376 190.05522L563.7 190.9771Q563.2469 191.07085 562.90314 191.07085Q562.325 191.07085 562.0125 190.89897Q561.7 190.71147 561.5594 190.4146Q561.4344 190.11772 561.4344 189.1646L561.4344 185.58647L560.66876 185.58647L560.66876 184.77397L561.4344 184.77397L561.4344 183.2271L562.48126 182.6021L562.48126 184.77397L563.54376 184.77397L563.54376 185.58647L562.48126 185.58647L562.48126 189.2271Q562.48126 189.68022 562.52814 189.80522Q562.59064 189.93022 562.71564 190.00835Q562.84064 190.08647 563.075 190.08647Q563.2625 190.08647 563.54376 190.05522ZM568.325 190.99272L568.325 190.07085Q567.59064 191.13335 566.34064 191.13335Q565.79376 191.13335 565.3094 190.93022Q564.84064 190.71147 564.60626 190.39897Q564.3719 190.07085 564.27814 189.6021Q564.21564 189.30522 564.21564 188.61772L564.21564 184.77397L565.27814 184.77397L565.27814 188.2271Q565.27814 189.0396 565.34064 189.33647Q565.4344 189.74272 565.7469 189.99272Q566.075 190.2271 566.5594 190.2271Q567.02814 190.2271 567.4344 189.99272Q567.85626 189.74272 568.02814 189.32085Q568.21564 188.89897 568.21564 188.1021L568.21564 184.77397L569.2625 184.77397L569.2625 190.99272L568.325 190.99272ZM571.23126 190.99272L571.23126 184.77397L572.1844 184.77397L572.1844 185.71147Q572.54376 185.05522 572.84064 184.8521Q573.15314 184.63335 573.52814 184.63335Q574.0594 184.63335 574.60626 184.96147L574.2469 185.94585Q573.85626 185.71147 573.48126 185.71147Q573.1219 185.71147 572.84064 185.93022Q572.575 186.13335 572.46564 186.50835Q572.27814 187.07085 572.27814 187.7271L572.27814 190.99272L571.23126 190.99272ZM579.4969 188.99272L580.59064 189.11772Q580.34064 190.07085 579.6375 190.6021Q578.9344 191.13335 577.85626 191.13335Q576.4969 191.13335 575.6844 190.2896Q574.8875 189.44585 574.8875 187.93022Q574.8875 186.36772 575.7 185.50835Q576.5125 184.63335 577.79376 184.63335Q579.04376 184.63335 579.825 185.4771Q580.6219 186.32085 580.6219 187.86772Q580.6219 187.96147 580.6219 188.14897L575.98126 188.14897Q576.04376 189.18022 576.5594 189.7271Q577.075 190.25835 577.85626 190.25835Q578.4344 190.25835 578.84064 189.96147Q579.2625 189.64897 579.4969 188.99272ZM576.04376 187.2896L579.5125 187.2896Q579.45 186.49272 579.1219 186.1021Q578.60626 185.49272 577.8094 185.49272Q577.075 185.49272 576.575 185.9771Q576.09064 186.46147 576.04376 187.2896Z" fill-rule="nonzero"/><path fill="#9e9e9e" d="M546.95 205.7271L548.0125 205.58647Q548.1844 206.4771 548.6219 206.88335Q549.0594 207.27397 549.6844 207.27397Q550.4344 207.27397 550.95 206.75835Q551.46564 206.24272 551.46564 205.4771Q551.46564 204.75835 550.98126 204.2896Q550.5125 203.80522 549.77814 203.80522Q549.48126 203.80522 549.02814 203.93022L549.15314 202.99272Q549.2625 203.00835 549.325 203.00835Q549.9969 203.00835 550.52814 202.6646Q551.075 202.30522 551.075 201.57085Q551.075 200.99272 550.6844 200.61772Q550.29376 200.2271 549.66876 200.2271Q549.0594 200.2271 548.6375 200.61772Q548.23126 201.00835 548.1219 201.77397L547.0594 201.58647Q547.2469 200.5396 547.9344 199.96147Q548.6219 199.36772 549.6375 199.36772Q550.34064 199.36772 550.9344 199.68022Q551.52814 199.9771 551.84064 200.49272Q552.15314 201.00835 552.15314 201.6021Q552.15314 202.14897 551.85626 202.61772Q551.5594 203.07085 550.98126 203.33647Q551.73126 203.50835 552.15314 204.07085Q552.575 204.61772 552.575 205.46147Q552.575 206.58647 551.7469 207.36772Q550.9344 208.14897 549.6844 208.14897Q548.5594 208.14897 547.8094 207.4771Q547.0594 206.7896 546.95 205.7271ZM553.95 205.7271L555.0125 205.58647Q555.1844 206.4771 555.6219 206.88335Q556.0594 207.27397 556.6844 207.27397Q557.4344 207.27397 557.95 206.75835Q558.46564 206.24272 558.46564 205.4771Q558.46564 204.75835 557.98126 204.2896Q557.5125 203.80522 556.77814 203.80522Q556.48126 203.80522 556.02814 203.93022L556.15314 202.99272Q556.2625 203.00835 556.325 203.00835Q556.9969 203.00835 557.52814 202.6646Q558.075 202.30522 558.075 201.57085Q558.075 200.99272 557.6844 200.61772Q557.29376 200.2271 556.66876 200.2271Q556.0594 200.2271 555.6375 200.61772Q555.23126 201.00835 555.1219 201.77397L554.0594 201.58647Q554.2469 200.5396 554.9344 199.96147Q555.6219 199.36772 556.6375 199.36772Q557.34064 199.36772 557.9344 199.68022Q558.52814 199.9771 558.84064 200.49272Q559.15314 201.00835 559.15314 201.6021Q559.15314 202.14897 558.85626 202.61772Q558.5594 203.07085 557.98126 203.33647Q558.73126 203.50835 559.15314 204.07085Q559.575 204.61772 559.575 205.46147Q559.575 206.58647 558.7469 207.36772Q557.9344 208.14897 556.6844 208.14897Q555.5594 208.14897 554.8094 207.4771Q554.0594 206.7896 553.95 205.7271ZM561.54376 207.99272L561.54376 206.7896L562.7469 206.7896L562.7469 207.99272L561.54376 207.99272ZM563.95 205.7271L565.0125 205.58647Q565.1844 206.4771 565.6219 206.88335Q566.0594 207.27397 566.6844 207.27397Q567.4344 207.27397 567.95 206.75835Q568.46564 206.24272 568.46564 205.4771Q568.46564 204.75835 567.98126 204.2896Q567.5125 203.80522 566.77814 203.80522Q566.48126 203.80522 566.02814 203.93022L566.15314 202.99272Q566.2625 203.00835 566.325 203.00835Q566.9969 203.00835 567.52814 202.6646Q568.075 202.30522 568.075 201.57085Q568.075 200.99272 567.6844 200.61772Q567.29376 200.2271 566.66876 200.2271Q566.0594 200.2271 565.6375 200.61772Q565.23126 201.00835 565.1219 201.77397L564.0594 201.58647Q564.2469 200.5396 564.9344 199.96147Q565.6219 199.36772 566.6375 199.36772Q567.34064 199.36772 567.9344 199.68022Q568.52814 199.9771 568.84064 200.49272Q569.15314 201.00835 569.15314 201.6021Q569.15314 202.14897 568.85626 202.61772Q568.5594 203.07085 567.98126 203.33647Q568.73126 203.50835 569.15314 204.07085Q569.575 204.61772 569.575 205.46147Q569.575 206.58647 568.7469 207.36772Q567.9344 208.14897 566.6844 208.14897Q565.5594 208.14897 564.8094 207.4771Q564.0594 206.7896 563.95 205.7271ZM571.15314 201.46147Q571.15314 200.5396 571.60626 199.89897Q572.075 199.25835 572.95 199.25835Q573.7625 199.25835 574.29376 199.83647Q574.825 200.4146 574.825 201.52397Q574.825 202.61772 574.27814 203.21147Q573.7469 203.7896 572.96564 203.7896Q572.1844 203.7896 571.66876 203.21147Q571.15314 202.63335 571.15314 201.46147ZM572.98126 199.9771Q572.59064 199.9771 572.325 200.32085Q572.075 200.6646 572.075 201.57085Q572.075 202.39897 572.325 202.74272Q572.59064 203.07085 572.98126 203.07085Q573.3875 203.07085 573.6375 202.7271Q573.90314 202.38335 573.90314 201.49272Q573.90314 200.64897 573.6375 200.32085Q573.3719 199.9771 572.98126 199.9771ZM572.98126 208.30522L577.6844 199.25835L578.54376 199.25835L573.85626 208.30522L572.98126 208.30522ZM576.7 205.9771Q576.7 205.05522 577.15314 204.4146Q577.6219 203.77397 578.5125 203.77397Q579.325 203.77397 579.85626 204.3521Q580.3875 204.9146 580.3875 206.0396Q580.3875 207.13335 579.84064 207.7271Q579.3094 208.30522 578.5125 208.30522Q577.7469 208.30522 577.21564 207.7271Q576.7 207.14897 576.7 205.9771ZM578.54376 204.49272Q578.1375 204.49272 577.8719 204.83647Q577.6219 205.18022 577.6219 206.08647Q577.6219 206.89897 577.8875 207.24272Q578.15314 207.58647 578.54376 207.58647Q578.9344 207.58647 579.2 207.24272Q579.46564 206.89897 579.46564 205.99272Q579.46564 205.1646 579.2 204.83647Q578.9344 204.49272 578.54376 204.49272Z" fill-rule="nonzero"/><path stroke="#757575" stroke-width="1.0" stroke-linecap="butt" d="M581.45 195.49272L443.01666 195.49272L428.62936 195.49272" fill-rule="nonzero"/><path fill="#9e9e9e" d="M430.62936 195.49272C430.62936 194.38815 429.73395 193.49272 428.62936 193.49272C427.5248 193.49272 426.62936 194.38815 426.62936 195.49272C426.62936 196.59729 427.5248 197.49272 428.62936 197.49272C429.73395 197.49272 430.62936 196.59729 430.62936 195.49272" fill-rule="nonzero"/><path fill="#999999" d="M19.58125 63.05L19.58125 53.034374L23.33125 53.034374Q24.4875 53.034374 25.175 53.346874Q25.878124 53.64375 26.26875 54.26875Q26.659374 54.89375 26.659374 55.596874Q26.659374 56.2375 26.3 56.8Q25.95625 57.3625 25.253124 57.721874Q26.159374 57.9875 26.64375 58.628124Q27.14375 59.26875 27.14375 60.14375Q27.14375 60.846874 26.846874 61.45625Q26.55 62.065624 26.1125 62.39375Q25.675 62.721874 25.003124 62.89375Q24.346874 63.05 23.39375 63.05L19.58125 63.05ZM20.909374 57.2375L23.065624 57.2375Q23.95625 57.2375 24.33125 57.128124Q24.846874 56.971874 25.096874 56.628124Q25.346874 56.26875 25.346874 55.753124Q25.346874 55.253124 25.1125 54.878124Q24.878124 54.4875 24.425 54.346874Q23.9875 54.20625 22.909374 54.20625L20.909374 54.20625L20.909374 57.2375ZM20.909374 61.8625L23.39375 61.8625Q24.034374 61.8625 24.3 61.815624Q24.753124 61.7375 25.065624 61.55Q25.378124 61.346874 25.565624 60.9875Q25.76875 60.628124 25.76875 60.14375Q25.76875 59.58125 25.471874 59.175Q25.190624 58.753124 24.675 58.596874Q24.175 58.425 23.221874 58.425L20.909374 58.425L20.909374 61.8625ZM33.20625 62.159374Q32.534374 62.7375 31.89375 62.9875Q31.26875 63.221874 30.534374 63.221874Q29.346874 63.221874 28.690624 62.64375Q28.05 62.05 28.05 61.128124Q28.05 60.596874 28.284374 60.159374Q28.534374 59.721874 28.925 59.45625Q29.33125 59.190624 29.815624 59.05Q30.175 58.95625 30.909374 58.8625Q32.409374 58.690624 33.1125 58.440624Q33.1125 58.190624 33.1125 58.128124Q33.1125 57.3625 32.76875 57.065624Q32.3 56.64375 31.3625 56.64375Q30.503124 56.64375 30.08125 56.95625Q29.675 57.253124 29.471874 58.01875L28.26875 57.8625Q28.425 57.08125 28.8 56.6125Q29.190624 56.14375 29.89375 55.89375Q30.6125 55.628124 31.55 55.628124Q32.471874 55.628124 33.05 55.846874Q33.628124 56.065624 33.89375 56.39375Q34.175 56.721874 34.284374 57.2375Q34.346874 57.55 34.346874 58.3625L34.346874 60.003124Q34.346874 61.721874 34.425 62.175Q34.503124 62.628124 34.7375 63.05L33.45625 63.05Q33.26875 62.659374 33.20625 62.159374ZM33.1125 59.409374Q32.440624 59.675 31.096874 59.878124Q30.346874 59.9875 30.01875 60.128124Q29.70625 60.253124 29.534374 60.51875Q29.3625 60.784374 29.3625 61.096874Q29.3625 61.596874 29.7375 61.925Q30.1125 62.253124 30.83125 62.253124Q31.55 62.253124 32.096874 61.940624Q32.64375 61.628124 32.909374 61.08125Q33.1125 60.675 33.1125 59.8625L33.1125 59.409374ZM35.9875 60.878124L37.190624 60.690624Q37.3 61.425 37.76875 61.815624Q38.2375 62.20625 39.08125 62.20625Q39.925 62.20625 40.33125 61.8625Q40.753124 61.51875 40.753124 61.05Q40.753124 60.628124 40.378124 60.39375Q40.128124 60.221874 39.128124 59.971874Q37.76875 59.628124 37.2375 59.378124Q36.721874 59.128124 36.45625 58.690624Q36.190624 58.253124 36.190624 57.721874Q36.190624 57.2375 36.409374 56.83125Q36.628124 56.409374 37.01875 56.128124Q37.3 55.925 37.784374 55.784374Q38.284374 55.628124 38.8625 55.628124Q39.70625 55.628124 40.346874 55.878124Q41.003124 56.1125 41.315624 56.534374Q41.628124 56.95625 41.7375 57.659374L40.534374 57.83125Q40.45625 57.26875 40.05 56.95625Q39.659374 56.64375 38.940624 56.64375Q38.096874 56.64375 37.7375 56.925Q37.378124 57.190624 37.378124 57.58125Q37.378124 57.815624 37.51875 58.003124Q37.675 58.20625 38.003124 58.33125Q38.175 58.39375 39.08125 58.64375Q40.39375 59.003124 40.909374 59.221874Q41.425 59.440624 41.70625 59.8625Q42.003124 60.284374 42.003124 60.909374Q42.003124 61.534374 41.64375 62.08125Q41.3 62.6125 40.6125 62.925Q39.940624 63.221874 39.08125 63.221874Q37.675 63.221874 36.925 62.628124Q36.190624 62.034374 35.9875 60.878124ZM48.440624 60.70625L49.721874 60.8625Q49.409374 61.9875 48.596874 62.6125Q47.784374 63.221874 46.51875 63.221874Q44.925 63.221874 43.9875 62.2375Q43.065624 61.253124 43.065624 59.4875Q43.065624 57.64375 44.003124 56.64375Q44.95625 55.628124 46.45625 55.628124Q47.909374 55.628124 48.83125 56.628124Q49.753124 57.6125 49.753124 59.409374Q49.753124 59.51875 49.753124 59.7375L44.33125 59.7375Q44.409374 60.925 45.003124 61.565624Q45.6125 62.20625 46.534374 62.20625Q47.20625 62.20625 47.675 61.846874Q48.159374 61.4875 48.440624 60.70625ZM44.409374 58.721874L48.45625 58.721874Q48.378124 57.8 47.9875 57.346874Q47.409374 56.64375 46.471874 56.64375Q45.6125 56.64375 45.034374 57.20625Q44.471874 57.76875 44.409374 58.721874ZM56.190624 63.05L56.190624 62.128124Q55.4875 63.221874 54.159374 63.221874Q53.284374 63.221874 52.55 62.7375Q51.83125 62.253124 51.425 61.39375Q51.034374 60.534374 51.034374 59.425Q51.034374 58.346874 51.39375 57.45625Q51.753124 56.565624 52.471874 56.096874Q53.20625 55.628124 54.096874 55.628124Q54.753124 55.628124 55.26875 55.909374Q55.784374 56.175 56.096874 56.628124L56.096874 53.034374L57.33125 53.034374L57.33125 63.05L56.190624 63.05ZM52.3 59.425Q52.3 60.815624 52.878124 61.51875Q53.471874 62.20625 54.26875 62.20625Q55.08125 62.20625 55.64375 61.55Q56.20625 60.878124 56.20625 59.534374Q56.20625 58.034374 55.628124 57.346874Q55.05 56.64375 54.221874 56.64375Q53.39375 56.64375 52.846874 57.315624Q52.3 57.9875 52.3 59.425ZM63.01875 59.425Q63.01875 57.409374 64.14375 56.425Q65.06563 55.628124 66.425 55.628124Q67.90938 55.628124 68.8625 56.6125Q69.81563 57.58125 69.81563 59.315624Q69.81563 60.721874 69.39375 61.534374Q68.97188 62.33125 68.15938 62.784374Q67.3625 63.221874 66.425 63.221874Q64.89375 63.221874 63.95625 62.2375Q63.01875 61.253124 63.01875 59.425ZM64.28438 59.425Q64.28438 60.815624 64.89375 61.51875Q65.50313 62.20625 66.425 62.20625Q67.33125 62.20625 67.94063 61.503124Q68.55 60.8 68.55 59.378124Q68.55 58.034374 67.94063 57.346874Q67.33125 56.64375 66.425 56.64375Q65.50313 56.64375 64.89375 57.33125Q64.28438 58.01875 64.28438 59.425ZM71.47188 63.05L71.47188 55.784374L72.58125 55.784374L72.58125 56.815624Q73.37813 55.628124 74.89375 55.628124Q75.55 55.628124 76.09688 55.8625Q76.64375 56.096874 76.90938 56.4875Q77.19063 56.8625 77.3 57.39375Q77.37813 57.7375 77.37813 58.58125L77.37813 63.05L76.14375 63.05L76.14375 58.628124Q76.14375 57.878124 76.00313 57.51875Q75.8625 57.14375 75.4875 56.925Q75.12813 56.690624 74.62813 56.690624Q73.84688 56.690624 73.26875 57.190624Q72.70625 57.690624 72.70625 59.08125L72.70625 63.05L71.47188 63.05ZM88.19063 63.05L88.19063 62.128124Q87.4875 63.221874 86.15938 63.221874Q85.28438 63.221874 84.55 62.7375Q83.83125 62.253124 83.425 61.39375Q83.03438 60.534374 83.03438 59.425Q83.03438 58.346874 83.39375 57.45625Q83.75313 56.565624 84.47188 56.096874Q85.20625 55.628124 86.09688 55.628124Q86.75313 55.628124 87.26875 55.909374Q87.78438 56.175 88.09688 56.628124L88.09688 53.034374L89.33125 53.034374L89.33125 63.05L88.19063 63.05ZM84.3 59.425Q84.3 60.815624 84.87813 61.51875Q85.47188 62.20625 86.26875 62.20625Q87.08125 62.20625 87.64375 61.55Q88.20625 60.878124 88.20625 59.534374Q88.20625 58.034374 87.62813 57.346874Q87.05 56.64375 86.22188 56.64375Q85.39375 56.64375 84.84688 57.315624Q84.3 57.9875 84.3 59.425ZM96.20625 62.159374Q95.53438 62.7375 94.89375 62.9875Q94.26875 63.221874 93.53438 63.221874Q92.34688 63.221874 91.69063 62.64375Q91.05 62.05 91.05 61.128124Q91.05 60.596874 91.28438 60.159374Q91.53438 59.721874 91.925 59.45625Q92.33125 59.190624 92.81563 59.05Q93.175 58.95625 93.90938 58.8625Q95.40938 58.690624 96.1125 58.440624Q96.1125 58.190624 96.1125 58.128124Q96.1125 57.3625 95.76875 57.065624Q95.3 56.64375 94.3625 56.64375Q93.50313 56.64375 93.08125 56.95625Q92.675 57.253124 92.47188 58.01875L91.26875 57.8625Q91.425 57.08125 91.8 56.6125Q92.19063 56.14375 92.89375 55.89375Q93.6125 55.628124 94.55 55.628124Q95.47188 55.628124 96.05 55.846874Q96.62813 56.065624 96.89375 56.39375Q97.175 56.721874 97.28438 57.2375Q97.34688 57.55 97.34688 58.3625L97.34688 60.003124Q97.34688 61.721874 97.425 62.175Q97.50313 62.628124 97.7375 63.05L96.45625 63.05Q96.26875 62.659374 96.20625 62.159374ZM96.1125 59.409374Q95.44063 59.675 94.09688 59.878124Q93.34688 59.9875 93.01875 60.128124Q92.70625 60.253124 92.53438 60.51875Q92.3625 60.784374 92.3625 61.096874Q92.3625 61.596874 92.7375 61.925Q93.1125 62.253124 93.83125 62.253124Q94.55 62.253124 95.09688 61.940624Q95.64375 61.628124 95.90938 61.08125Q96.1125 60.675 96.1125 59.8625L96.1125 59.409374ZM102.15938 61.95625L102.33125 63.034374Q101.81563 63.14375 101.40938 63.14375Q100.7375 63.14375 100.3625 62.940624Q100.00313 62.721874 99.84688 62.378124Q99.70625 62.034374 99.70625 60.925L99.70625 56.753124L98.8 56.753124L98.8 55.784374L99.70625 55.784374L99.70625 53.9875L100.925 53.253124L100.925 55.784374L102.15938 55.784374L102.15938 56.753124L100.925 56.753124L100.925 60.9875Q100.925 61.51875 100.9875 61.675Q101.05 61.815624 101.19063 61.909374Q101.34688 62.003124 101.6125 62.003124Q101.83125 62.003124 102.15938 61.95625ZM108.20625 62.159374Q107.53438 62.7375 106.89375 62.9875Q106.26875 63.221874 105.53438 63.221874Q104.34688 63.221874 103.69063 62.64375Q103.05 62.05 103.05 61.128124Q103.05 60.596874 103.28438 60.159374Q103.53438 59.721874 103.925 59.45625Q104.33125 59.190624 104.81563 59.05Q105.175 58.95625 105.90938 58.8625Q107.40938 58.690624 108.1125 58.440624Q108.1125 58.190624 108.1125 58.128124Q108.1125 57.3625 107.76875 57.065624Q107.3 56.64375 106.3625 56.64375Q105.50313 56.64375 105.08125 56.95625Q104.675 57.253124 104.47188 58.01875L103.26875 57.8625Q103.425 57.08125 103.8 56.6125Q104.19063 56.14375 104.89375 55.89375Q105.6125 55.628124 106.55 55.628124Q107.47188 55.628124 108.05 55.846874Q108.62813 56.065624 108.89375 56.39375Q109.175 56.721874 109.28438 57.2375Q109.34688 57.55 109.34688 58.3625L109.34688 60.003124Q109.34688 61.721874 109.425 62.175Q109.50313 62.628124 109.7375 63.05L108.45625 63.05Q108.26875 62.659374 108.20625 62.159374ZM108.1125 59.409374Q107.44063 59.675 106.09688 59.878124Q105.34688 59.9875 105.01875 60.128124Q104.70625 60.253124 104.53438 60.51875Q104.3625 60.784374 104.3625 61.096874Q104.3625 61.596874 104.7375 61.925Q105.1125 62.253124 105.83125 62.253124Q106.55 62.253124 107.09688 61.940624Q107.64375 61.628124 107.90938 61.08125Q108.1125 60.675 108.1125 59.8625L108.1125 59.409374ZM115.76875 63.05L115.76875 56.753124L114.675 56.753124L114.675 55.784374L115.76875 55.784374L115.76875 55.01875Q115.76875 54.284374 115.89375 53.925Q116.08125 53.45625 116.51875 53.159374Q116.97188 52.8625 117.78438 52.8625Q118.3 52.8625 118.925 52.9875L118.7375 54.05Q118.3625 53.9875 118.01875 53.9875Q117.45625 53.9875 117.22188 54.221874Q116.9875 54.45625 116.9875 55.1125L116.9875 55.784374L118.40938 55.784374L118.40938 56.753124L116.9875 56.753124L116.9875 63.05L115.76875 63.05ZM119.45625 63.05L119.45625 55.784374L120.56563 55.784374L120.56563 56.89375Q120.9875 56.1125 121.34688 55.878124Q121.70625 55.628124 122.14375 55.628124Q122.76875 55.628124 123.40938 56.01875L122.9875 57.159374Q122.53438 56.89375 122.08125 56.89375Q121.675 56.89375 121.34688 57.14375Q121.03438 57.378124 120.89375 57.815624Q120.69063 58.471874 120.69063 59.253124L120.69063 63.05L119.45625 63.05ZM124.01875 59.425Q124.01875 57.409374 125.14375 56.425Q126.06563 55.628124 127.425 55.628124Q128.90938 55.628124 129.8625 56.6125Q130.81563 57.58125 130.81563 59.315624Q130.81563 60.721874 130.39375 61.534374Q129.97188 62.33125 129.15938 62.784374Q128.3625 63.221874 127.425 63.221874Q125.89375 63.221874 124.95625 62.2375Q124.01875 61.253124 124.01875 59.425ZM125.28438 59.425Q125.28438 60.815624 125.89375 61.51875Q126.50313 62.20625 127.425 62.20625Q128.33125 62.20625 128.94063 61.503124Q129.55 60.8 129.55 59.378124Q129.55 58.034374 128.94063 57.346874Q128.33125 56.64375 127.425 56.64375Q126.50313 56.64375 125.89375 57.33125Q125.28438 58.01875 125.28438 59.425ZM132.47188 63.05L132.47188 55.784374L133.58125 55.784374L133.58125 56.815624Q133.90938 56.26875 134.47188 55.95625Q135.05 55.628124 135.76875 55.628124Q136.58125 55.628124 137.09688 55.971874Q137.6125 56.3 137.83125 56.89375Q138.69063 55.628124 140.06563 55.628124Q141.14375 55.628124 141.72188 56.221874Q142.31563 56.815624 142.31563 58.065624L142.31563 63.05L141.08125 63.05L141.08125 58.471874Q141.08125 57.7375 140.95625 57.409374Q140.84688 57.08125 140.53438 56.89375Q140.22188 56.690624 139.8 56.690624Q139.03438 56.690624 138.51875 57.20625Q138.01875 57.70625 138.01875 58.83125L138.01875 63.05L136.78438 63.05L136.78438 58.33125Q136.78438 57.51875 136.4875 57.1125Q136.19063 56.690624 135.50313 56.690624Q134.9875 56.690624 134.53438 56.971874Q134.09688 57.2375 133.89375 57.76875Q133.70625 58.284374 133.70625 59.284374L133.70625 63.05L132.47188 63.05ZM153.59688 61.8625L153.59688 63.05L146.97188 63.05Q146.95625 62.6125 147.1125 62.190624Q147.37813 61.51875 147.925 60.8625Q148.4875 60.20625 149.53438 59.346874Q151.175 58.003124 151.7375 57.221874Q152.31563 56.440624 152.31563 55.7375Q152.31563 55.003124 151.78438 54.503124Q151.26875 54.003124 150.44063 54.003124Q149.55 54.003124 149.00313 54.534374Q148.47188 55.065624 148.47188 56.01875L147.20625 55.878124Q147.33125 54.471874 148.175 53.7375Q149.03438 52.9875 150.45625 52.9875Q151.90938 52.9875 152.7375 53.784374Q153.58125 54.58125 153.58125 55.76875Q153.58125 56.378124 153.33125 56.95625Q153.09688 57.534374 152.51875 58.175Q151.95625 58.815624 150.62813 59.940624Q149.51875 60.8625 149.20625 61.20625Q148.89375 61.534374 148.69063 61.8625L153.59688 61.8625ZM155.12813 58.1125Q155.12813 56.33125 155.4875 55.253124Q155.8625 54.159374 156.58125 53.58125Q157.3 52.9875 158.39375 52.9875Q159.20625 52.9875 159.81563 53.315624Q160.425 53.64375 160.81563 54.253124Q161.22188 54.8625 161.44063 55.7375Q161.65938 56.6125 161.65938 58.1125Q161.65938 59.878124 161.3 60.95625Q160.94063 62.034374 160.22188 62.628124Q159.50313 63.221874 158.39375 63.221874Q156.95625 63.221874 156.12813 62.175Q155.12813 60.925 155.12813 58.1125ZM156.39375 58.1125Q156.39375 60.58125 156.97188 61.39375Q157.55 62.20625 158.39375 62.20625Q159.25313 62.20625 159.83125 61.39375Q160.40938 60.565624 160.40938 58.1125Q160.40938 55.628124 159.83125 54.815624Q159.25313 54.003124 158.37813 54.003124Q157.53438 54.003124 157.03438 54.721874Q156.39375 55.64375 156.39375 58.1125ZM169.59688 61.8625L169.59688 63.05L162.97188 63.05Q162.95625 62.6125 163.1125 62.190624Q163.37813 61.51875 163.925 60.8625Q164.4875 60.20625 165.53438 59.346874Q167.175 58.003124 167.7375 57.221874Q168.31563 56.440624 168.31563 55.7375Q168.31563 55.003124 167.78438 54.503124Q167.26875 54.003124 166.44063 54.003124Q165.55 54.003124 165.00313 54.534374Q164.47188 55.065624 164.47188 56.01875L163.20625 55.878124Q163.33125 54.471874 164.175 53.7375Q165.03438 52.9875 166.45625 52.9875Q167.90938 52.9875 168.7375 53.784374Q169.58125 54.58125 169.58125 55.76875Q169.58125 56.378124 169.33125 56.95625Q169.09688 57.534374 168.51875 58.175Q167.95625 58.815624 166.62813 59.940624Q165.51875 60.8625 165.20625 61.20625Q164.89375 61.534374 164.69063 61.8625L169.59688 61.8625ZM171.14375 60.409374L172.3625 60.2375Q172.58125 61.284374 173.08125 61.753124Q173.59688 62.20625 174.33125 62.20625Q175.20625 62.20625 175.8 61.6125Q176.39375 61.003124 176.39375 60.1125Q176.39375 59.26875 175.83125 58.721874Q175.28438 58.175 174.44063 58.175Q174.08125 58.175 173.56563 58.3L173.70625 57.221874Q173.83125 57.2375 173.89375 57.2375Q174.69063 57.2375 175.31563 56.83125Q175.94063 56.425 175.94063 55.565624Q175.94063 54.89375 175.4875 54.45625Q175.03438 54.003124 174.3 54.003124Q173.58125 54.003124 173.09688 54.45625Q172.62813 54.89375 172.4875 55.8L171.26875 55.58125Q171.4875 54.346874 172.28438 53.675Q173.08125 52.9875 174.26875 52.9875Q175.09688 52.9875 175.78438 53.346874Q176.47188 53.690624 176.83125 54.3Q177.20625 54.909374 177.20625 55.596874Q177.20625 56.2375 176.8625 56.76875Q176.51875 57.3 175.83125 57.628124Q176.72188 57.83125 177.20625 58.471874Q177.70625 59.1125 177.70625 60.096874Q177.70625 61.409374 176.7375 62.315624Q175.78438 63.221874 174.33125 63.221874Q173.00313 63.221874 172.12813 62.440624Q171.26875 61.659374 171.14375 60.409374Z" fill-rule="nonzero"/><path fill="#757575" d="M20.01875 37.55L20.01875 23.2375L25.39375 23.2375Q27.034374 23.2375 28.01875 23.675Q29.003124 24.096874 29.565624 25.003124Q30.128124 25.909374 30.128124 26.89375Q30.128124 27.815624 29.628124 28.628124Q29.14375 29.440624 28.128124 29.925Q29.425 30.315624 30.128124 31.2375Q30.83125 32.14375 30.83125 33.39375Q30.83125 34.409374 30.39375 35.26875Q29.971874 36.128124 29.346874 36.596874Q28.721874 37.065624 27.784374 37.315624Q26.846874 37.55 25.471874 37.55L20.01875 37.55ZM21.909374 29.253124L25.003124 29.253124Q26.26875 29.253124 26.815624 29.08125Q27.534374 28.8625 27.89375 28.378124Q28.26875 27.878124 28.26875 27.1125Q28.26875 26.409374 27.925 25.8625Q27.58125 25.315624 26.940624 25.128124Q26.315624 24.925 24.76875 24.925L21.909374 24.925L21.909374 29.253124ZM21.909374 35.8625L25.471874 35.8625Q26.39375 35.8625 26.76875 35.784374Q27.425 35.675 27.8625 35.409374Q28.3 35.128124 28.58125 34.6125Q28.8625 34.08125 28.8625 33.39375Q28.8625 32.596874 28.45625 32.003124Q28.05 31.409374 27.315624 31.175Q26.58125 30.940624 25.221874 30.940624L21.909374 30.940624L21.909374 35.8625ZM32.846874 37.55L32.846874 27.175L34.425 27.175L34.425 28.753124Q35.034374 27.64375 35.55 27.3Q36.065624 26.940624 36.675 26.940624Q37.565624 26.940624 38.4875 27.503124L37.878124 29.14375Q37.2375 28.753124 36.596874 28.753124Q36.01875 28.753124 35.55 29.1125Q35.096874 29.45625 34.89375 30.065624Q34.6125 31.003124 34.6125 32.1125L34.6125 37.55L32.846874 37.55ZM46.971874 34.20625L48.784374 34.440624Q48.3625 36.01875 47.190624 36.909374Q46.034374 37.784374 44.221874 37.784374Q41.95625 37.784374 40.6125 36.39375Q39.284374 34.9875 39.284374 32.45625Q39.284374 29.83125 40.628124 28.39375Q41.971874 26.940624 44.128124 26.940624Q46.20625 26.940624 47.51875 28.3625Q48.846874 29.76875 48.846874 32.346874Q48.846874 32.503124 48.83125 32.815624L41.096874 32.815624Q41.190624 34.51875 42.065624 35.425Q42.940624 36.33125 44.2375 36.33125Q45.20625 36.33125 45.878124 35.83125Q46.565624 35.315624 46.971874 34.20625ZM41.190624 31.3625L46.9875 31.3625Q46.878124 30.065624 46.33125 29.409374Q45.4875 28.39375 44.14375 28.39375Q42.940624 28.39375 42.1125 29.20625Q41.284374 30.003124 41.190624 31.3625ZM57.64375 36.26875Q56.659374 37.096874 55.753124 37.440624Q54.846874 37.784374 53.815624 37.784374Q52.1125 37.784374 51.190624 36.95625Q50.26875 36.1125 50.26875 34.815624Q50.26875 34.05 50.6125 33.425Q50.971874 32.8 51.534374 32.425Q52.096874 32.034374 52.8 31.83125Q53.315624 31.70625 54.3625 31.565624Q56.4875 31.315624 57.4875 30.971874Q57.503124 30.6125 57.503124 30.503124Q57.503124 29.440624 57.003124 28.9875Q56.33125 28.39375 55.003124 28.39375Q53.753124 28.39375 53.159374 28.83125Q52.58125 29.26875 52.3 30.378124L50.58125 30.14375Q50.815624 29.034374 51.346874 28.3625Q51.878124 27.675 52.89375 27.315624Q53.909374 26.940624 55.253124 26.940624Q56.58125 26.940624 57.409374 27.253124Q58.2375 27.565624 58.628124 28.05Q59.01875 28.51875 59.175 29.2375Q59.26875 29.690624 59.26875 30.8625L59.26875 33.20625Q59.26875 35.659374 59.378124 36.315624Q59.4875 36.95625 59.83125 37.55L57.9875 37.55Q57.721874 37.003124 57.64375 36.26875ZM57.4875 32.346874Q56.534374 32.7375 54.6125 33.003124Q53.534374 33.159374 53.08125 33.3625Q52.64375 33.55 52.39375 33.925Q52.14375 34.3 52.14375 34.76875Q52.14375 35.471874 52.675 35.940624Q53.20625 36.409374 54.2375 36.409374Q55.253124 36.409374 56.034374 35.971874Q56.83125 35.51875 57.20625 34.753124Q57.4875 34.14375 57.4875 32.9875L57.4875 32.346874ZM61.878124 37.55L61.878124 23.2375L63.64375 23.2375L63.64375 31.39375L67.8 27.175L70.06563 27.175L66.1125 31.01875L70.47188 37.55L68.3 37.55L64.87813 32.253124L63.64375 33.440624L63.64375 37.55L61.878124 37.55ZM78.59688 37.55L78.59688 36.2375Q77.6125 37.784374 75.69063 37.784374Q74.45625 37.784374 73.40938 37.096874Q72.37813 36.409374 71.8 35.190624Q71.2375 33.971874 71.2375 32.378124Q71.2375 30.815624 71.75313 29.55Q72.26875 28.284374 73.3 27.6125Q74.34688 26.940624 75.6125 26.940624Q76.55 26.940624 77.28438 27.346874Q78.01875 27.7375 78.4875 28.3625L78.4875 23.2375L80.22188 23.2375L80.22188 37.55L78.59688 37.55ZM73.03438 32.378124Q73.03438 34.3625 73.87813 35.346874Q74.72188 36.33125 75.8625 36.33125Q77.01875 36.33125 77.81563 35.39375Q78.62813 34.45625 78.62813 32.51875Q78.62813 30.39375 77.8 29.39375Q76.9875 28.39375 75.78438 28.39375Q74.6125 28.39375 73.81563 29.3625Q73.03438 30.315624 73.03438 32.378124ZM82.22188 32.3625Q82.22188 29.4875 83.81563 28.096874Q85.15938 26.940624 87.08125 26.940624Q89.22188 26.940624 90.56563 28.346874Q91.925 29.753124 91.925 32.221874Q91.925 34.221874 91.33125 35.378124Q90.7375 36.51875 89.58125 37.159374Q88.44063 37.784374 87.08125 37.784374Q84.89375 37.784374 83.55 36.39375Q82.22188 34.9875 82.22188 32.3625ZM84.01875 32.3625Q84.01875 34.3625 84.87813 35.346874Q85.75313 36.33125 87.08125 36.33125Q88.39375 36.33125 89.25313 35.346874Q90.12813 34.346874 90.12813 32.3Q90.12813 30.378124 89.25313 29.39375Q88.37813 28.39375 87.08125 28.39375Q85.75313 28.39375 84.87813 29.39375Q84.01875 30.378124 84.01875 32.3625ZM95.78438 37.55L92.6125 27.175L94.425 27.175L96.08125 33.159374L96.69063 35.39375Q96.7375 35.221874 97.22188 33.253124L98.87813 27.175L100.69063 27.175L102.2375 33.190624L102.75313 35.175L103.34688 33.175L105.12813 27.175L106.83125 27.175L103.59688 37.55L101.76875 37.55L100.1125 31.33125L99.72188 29.565624L97.6125 37.55L95.78438 37.55ZM108.8625 37.55L108.8625 27.175L110.45625 27.175L110.45625 28.659374Q111.59688 26.940624 113.75313 26.940624Q114.69063 26.940624 115.47188 27.284374Q116.26875 27.6125 116.65938 28.159374Q117.05 28.70625 117.20625 29.45625Q117.3 29.95625 117.3 31.175L117.3 37.55L115.53438 37.55L115.53438 31.2375Q115.53438 30.159374 115.33125 29.628124Q115.12813 29.096874 114.59688 28.784374Q114.08125 28.471874 113.37813 28.471874Q112.25313 28.471874 111.44063 29.190624Q110.62813 29.89375 110.62813 31.878124L110.62813 37.55L108.8625 37.55ZM124.22188 32.3625Q124.22188 29.4875 125.81563 28.096874Q127.15938 26.940624 129.08125 26.940624Q131.22188 26.940624 132.56563 28.346874Q133.925 29.753124 133.925 32.221874Q133.925 34.221874 133.33125 35.378124Q132.7375 36.51875 131.58125 37.159374Q130.44063 37.784374 129.08125 37.784374Q126.89375 37.784374 125.55 36.39375Q124.22188 34.9875 124.22188 32.3625ZM126.01875 32.3625Q126.01875 34.3625 126.87813 35.346874Q127.75313 36.33125 129.08125 36.33125Q130.39375 36.33125 131.25313 35.346874Q132.12813 34.346874 132.12813 32.3Q132.12813 30.378124 131.25313 29.39375Q130.37813 28.39375 129.08125 28.39375Q127.75313 28.39375 126.87813 29.39375Q126.01875 30.378124 126.01875 32.3625ZM136.28438 37.55L136.28438 28.55L134.7375 28.55L134.7375 27.175L136.28438 27.175L136.28438 26.08125Q136.28438 25.034374 136.47188 24.51875Q136.72188 23.83125 137.3625 23.409374Q138.00313 22.9875 139.15938 22.9875Q139.90938 22.9875 140.8 23.159374L140.53438 24.690624Q139.9875 24.596874 139.50313 24.596874Q138.70625 24.596874 138.3625 24.940624Q138.03438 25.284374 138.03438 26.221874L138.03438 27.175L140.06563 27.175L140.06563 28.55L138.03438 28.55L138.03438 37.55L136.28438 37.55ZM148.09688 37.55L148.09688 23.2375L153.4875 23.2375Q154.925 23.2375 155.675 23.3625Q156.72188 23.55 157.44063 24.05Q158.15938 24.534374 158.58125 25.425Q159.01875 26.315624 159.01875 27.378124Q159.01875 29.20625 157.84688 30.471874Q156.69063 31.721874 153.65938 31.721874L149.9875 31.721874L149.9875 37.55L148.09688 37.55ZM149.9875 30.034374L153.69063 30.034374Q155.51875 30.034374 156.28438 29.3625Q157.06563 28.675 157.06563 27.425Q157.06563 26.534374 156.6125 25.89375Q156.15938 25.253124 155.425 25.05Q154.94063 24.925 153.64375 24.925L149.9875 24.925L149.9875 30.034374ZM167.64375 36.26875Q166.65938 37.096874 165.75313 37.440624Q164.84688 37.784374 163.81563 37.784374Q162.1125 37.784374 161.19063 36.95625Q160.26875 36.1125 160.26875 34.815624Q160.26875 34.05 160.6125 33.425Q160.97188 32.8 161.53438 32.425Q162.09688 32.034374 162.8 31.83125Q163.31563 31.70625 164.3625 31.565624Q166.4875 31.315624 167.4875 30.971874Q167.50313 30.6125 167.50313 30.503124Q167.50313 29.440624 167.00313 28.9875Q166.33125 28.39375 165.00313 28.39375Q163.75313 28.39375 163.15938 28.83125Q162.58125 29.26875 162.3 30.378124L160.58125 30.14375Q160.81563 29.034374 161.34688 28.3625Q161.87813 27.675 162.89375 27.315624Q163.90938 26.940624 165.25313 26.940624Q166.58125 26.940624 167.40938 27.253124Q168.2375 27.565624 168.62813 28.05Q169.01875 28.51875 169.175 29.2375Q169.26875 29.690624 169.26875 30.8625L169.26875 33.20625Q169.26875 35.659374 169.37813 36.315624Q169.4875 36.95625 169.83125 37.55L167.9875 37.55Q167.72188 37.003124 167.64375 36.26875ZM167.4875 32.346874Q166.53438 32.7375 164.6125 33.003124Q163.53438 33.159374 163.08125 33.3625Q162.64375 33.55 162.39375 33.925Q162.14375 34.3 162.14375 34.76875Q162.14375 35.471874 162.675 35.940624Q163.20625 36.409374 164.2375 36.409374Q165.25313 36.409374 166.03438 35.971874Q166.83125 35.51875 167.20625 34.753124Q167.4875 34.14375 167.4875 32.9875L167.4875 32.346874ZM171.84688 37.55L171.84688 27.175L173.425 27.175L173.425 28.753124Q174.03438 27.64375 174.55 27.3Q175.06563 26.940624 175.675 26.940624Q176.56563 26.940624 177.4875 27.503124L176.87813 29.14375Q176.2375 28.753124 175.59688 28.753124Q175.01875 28.753124 174.55 29.1125Q174.09688 29.45625 173.89375 30.065624Q173.6125 31.003124 173.6125 32.1125L173.6125 37.55L171.84688 37.55ZM185.64375 36.26875Q184.65938 37.096874 183.75313 37.440624Q182.84688 37.784374 181.81563 37.784374Q180.1125 37.784374 179.19063 36.95625Q178.26875 36.1125 178.26875 34.815624Q178.26875 34.05 178.6125 33.425Q178.97188 32.8 179.53438 32.425Q180.09688 32.034374 180.8 31.83125Q181.31563 31.70625 182.3625 31.565624Q184.4875 31.315624 185.4875 30.971874Q185.50313 30.6125 185.50313 30.503124Q185.50313 29.440624 185.00313 28.9875Q184.33125 28.39375 183.00313 28.39375Q181.75313 28.39375 181.15938 28.83125Q180.58125 29.26875 180.3 30.378124L178.58125 30.14375Q178.81563 29.034374 179.34688 28.3625Q179.87813 27.675 180.89375 27.315624Q181.90938 26.940624 183.25313 26.940624Q184.58125 26.940624 185.40938 27.253124Q186.2375 27.565624 186.62813 28.05Q187.01875 28.51875 187.175 29.2375Q187.26875 29.690624 187.26875 30.8625L187.26875 33.20625Q187.26875 35.659374 187.37813 36.315624Q187.4875 36.95625 187.83125 37.55L185.9875 37.55Q185.72188 37.003124 185.64375 36.26875ZM185.4875 32.346874Q184.53438 32.7375 182.6125 33.003124Q181.53438 33.159374 181.08125 33.3625Q180.64375 33.55 180.39375 33.925Q180.14375 34.3 180.14375 34.76875Q180.14375 35.471874 180.675 35.940624Q181.20625 36.409374 182.2375 36.409374Q183.25313 36.409374 184.03438 35.971874Q184.83125 35.51875 185.20625 34.753124Q185.4875 34.14375 185.4875 32.9875L185.4875 32.346874ZM189.55 38.409374L191.25313 38.659374Q191.3625 39.45625 191.84688 39.815624Q192.50313 40.3 193.64375 40.3Q194.8625 40.3 195.51875 39.815624Q196.19063 39.33125 196.425 38.45625Q196.56563 37.909374 196.55 36.190624Q195.39375 37.55 193.675 37.55Q191.53438 37.55 190.3625 36.003124Q189.19063 34.45625 189.19063 32.3Q189.19063 30.815624 189.72188 29.565624Q190.26875 28.315624 191.28438 27.628124Q192.31563 26.940624 193.69063 26.940624Q195.51875 26.940624 196.72188 28.425L196.72188 27.175L198.33125 27.175L198.33125 36.14375Q198.33125 38.565624 197.83125 39.565624Q197.34688 40.58125 196.26875 41.159374Q195.20625 41.753124 193.64375 41.753124Q191.8 41.753124 190.64375 40.925Q189.50313 40.096874 189.55 38.409374ZM191.00313 32.175Q191.00313 34.221874 191.81563 35.159374Q192.62813 36.096874 193.84688 36.096874Q195.05 36.096874 195.8625 35.159374Q196.69063 34.221874 196.69063 32.2375Q196.69063 30.33125 195.84688 29.3625Q195.00313 28.39375 193.81563 28.39375Q192.64375 28.39375 191.81563 29.346874Q191.00313 30.3 191.00313 32.175ZM207.65938 37.55L207.65938 36.01875Q206.45625 37.784374 204.37813 37.784374Q203.45625 37.784374 202.65938 37.440624Q201.8625 37.08125 201.47188 36.55Q201.09688 36.01875 200.94063 35.2375Q200.83125 34.721874 200.83125 33.596874L200.83125 27.175L202.58125 27.175L202.58125 32.925Q202.58125 34.3 202.69063 34.784374Q202.8625 35.471874 203.39375 35.878124Q203.94063 36.26875 204.72188 36.26875Q205.51875 36.26875 206.20625 35.8625Q206.90938 35.45625 207.19063 34.76875Q207.4875 34.065624 207.4875 32.7375L207.4875 27.175L209.2375 27.175L209.2375 37.55L207.65938 37.55ZM217.64375 36.26875Q216.65938 37.096874 215.75313 37.440624Q214.84688 37.784374 213.81563 37.784374Q212.1125 37.784374 211.19063 36.95625Q210.26875 36.1125 210.26875 34.815624Q210.26875 34.05 210.6125 33.425Q210.97188 32.8 211.53438 32.425Q212.09688 32.034374 212.8 31.83125Q213.31563 31.70625 214.3625 31.565624Q216.4875 31.315624 217.4875 30.971874Q217.50313 30.6125 217.50313 30.503124Q217.50313 29.440624 217.00313 28.9875Q216.33125 28.39375 215.00313 28.39375Q213.75313 28.39375 213.15938 28.83125Q212.58125 29.26875 212.3 30.378124L210.58125 30.14375Q210.81563 29.034374 211.34688 28.3625Q211.87813 27.675 212.89375 27.315624Q213.90938 26.940624 215.25313 26.940624Q216.58125 26.940624 217.40938 27.253124Q218.2375 27.565624 218.62813 28.05Q219.01875 28.51875 219.175 29.2375Q219.26875 29.690624 219.26875 30.8625L219.26875 33.20625Q219.26875 35.659374 219.37813 36.315624Q219.4875 36.95625 219.83125 37.55L217.9875 37.55Q217.72188 37.003124 217.64375 36.26875ZM217.4875 32.346874Q216.53438 32.7375 214.6125 33.003124Q213.53438 33.159374 213.08125 33.3625Q212.64375 33.55 212.39375 33.925Q212.14375 34.3 212.14375 34.76875Q212.14375 35.471874 212.675 35.940624Q213.20625 36.409374 214.2375 36.409374Q215.25313 36.409374 216.03438 35.971874Q216.83125 35.51875 217.20625 34.753124Q217.4875 34.14375 217.4875 32.9875L217.4875 32.346874ZM221.78438 41.55L221.59688 39.89375Q222.175 40.05 222.59688 40.05Q223.19063 40.05 223.53438 39.846874Q223.89375 39.659374 224.1125 39.315624Q224.28438 39.05 224.65938 38.003124Q224.70625 37.846874 224.81563 37.565624L220.87813 27.175L222.76875 27.175L224.925 33.190624Q225.34688 34.33125 225.675 35.58125Q225.9875 34.378124 226.39375 33.221874L228.6125 27.175L230.37813 27.175L226.425 37.721874Q225.8 39.440624 225.44063 40.08125Q224.97188 40.95625 224.3625 41.346874Q223.76875 41.753124 222.925 41.753124Q222.40938 41.753124 221.78438 41.55ZM231.87813 28.3L231.425 25.628124L231.425 23.2375L233.425 23.2375L233.425 25.628124L232.95625 28.3L231.87813 28.3ZM235.15938 34.45625L236.90938 34.175Q237.05 35.221874 237.72188 35.784374Q238.39375 36.33125 239.59688 36.33125Q240.8 36.33125 241.37813 35.846874Q241.97188 35.346874 241.97188 34.690624Q241.97188 34.096874 241.45625 33.753124Q241.09688 33.51875 239.65938 33.159374Q237.72188 32.659374 236.97188 32.315624Q236.2375 31.95625 235.84688 31.33125Q235.45625 30.690624 235.45625 29.925Q235.45625 29.2375 235.76875 28.64375Q236.09688 28.05 236.64375 27.659374Q237.05 27.3625 237.75313 27.159374Q238.47188 26.940624 239.28438 26.940624Q240.50313 26.940624 241.425 27.3Q242.34688 27.64375 242.78438 28.253124Q243.22188 28.846874 243.39375 29.846874L241.675 30.08125Q241.55 29.284374 240.9875 28.846874Q240.425 28.39375 239.40938 28.39375Q238.19063 28.39375 237.675 28.8Q237.15938 29.190624 237.15938 29.721874Q237.15938 30.065624 237.37813 30.346874Q237.58125 30.628124 238.05 30.815624Q238.31563 30.909374 239.59688 31.253124Q241.47188 31.753124 242.20625 32.08125Q242.94063 32.39375 243.3625 33.003124Q243.78438 33.596874 243.78438 34.503124Q243.78438 35.378124 243.26875 36.159374Q242.75313 36.940624 241.78438 37.3625Q240.81563 37.784374 239.59688 37.784374Q237.58125 37.784374 236.51875 36.940624Q235.45625 36.096874 235.15938 34.45625ZM252.01875 37.55L252.01875 23.2375L257.39374 23.2375Q259.03436 23.2375 260.01874 23.675Q261.0031 24.096874 261.5656 25.003124Q262.1281 25.909374 262.1281 26.89375Q262.1281 27.815624 261.6281 28.628124Q261.14374 29.440624 260.1281 29.925Q261.425 30.315624 262.1281 31.2375Q262.83124 32.14375 262.83124 33.39375Q262.83124 34.409374 262.39374 35.26875Q261.97186 36.128124 261.34686 36.596874Q260.72186 37.065624 259.78436 37.315624Q258.84686 37.55 257.47186 37.55L252.01875 37.55ZM253.90938 29.253124L257.0031 29.253124Q258.26874 29.253124 258.8156 29.08125Q259.53436 28.8625 259.89374 28.378124Q260.26874 27.878124 260.26874 27.1125Q260.26874 26.409374 259.925 25.8625Q259.58124 25.315624 258.9406 25.128124Q258.3156 24.925 256.76874 24.925L253.90938 24.925L253.90938 29.253124ZM253.90938 35.8625L257.47186 35.8625Q258.39374 35.8625 258.76874 35.784374Q259.425 35.675 259.8625 35.409374Q260.3 35.128124 260.58124 34.6125Q260.8625 34.08125 260.8625 33.39375Q260.8625 32.596874 260.45624 32.003124Q260.05 31.409374 259.3156 31.175Q258.58124 30.940624 257.22186 30.940624L253.90938 30.940624L253.90938 35.8625ZM271.65936 37.55L271.65936 36.01875Q270.45624 37.784374 268.3781 37.784374Q267.45624 37.784374 266.65936 37.440624Q265.8625 37.08125 265.47186 36.55Q265.09686 36.01875 264.9406 35.2375Q264.83124 34.721874 264.83124 33.596874L264.83124 27.175L266.58124 27.175L266.58124 32.925Q266.58124 34.3 266.6906 34.784374Q266.8625 35.471874 267.39374 35.878124Q267.9406 36.26875 268.72186 36.26875Q269.51874 36.26875 270.20624 35.8625Q270.90936 35.45625 271.1906 34.76875Q271.4875 34.065624 271.4875 32.7375L271.4875 27.175L273.2375 27.175L273.2375 37.55L271.65936 37.55ZM281.59686 37.55L281.59686 36.2375Q280.6125 37.784374 278.6906 37.784374Q277.45624 37.784374 276.40936 37.096874Q275.3781 36.409374 274.8 35.190624Q274.2375 33.971874 274.2375 32.378124Q274.2375 30.815624 274.7531 29.55Q275.26874 28.284374 276.3 27.6125Q277.34686 26.940624 278.6125 26.940624Q279.55 26.940624 280.28436 27.346874Q281.01874 27.7375 281.4875 28.3625L281.4875 23.2375L283.22186 23.2375L283.22186 37.55L281.59686 37.55ZM276.03436 32.378124Q276.03436 34.3625 276.8781 35.346874Q277.72186 36.33125 278.8625 36.33125Q280.01874 36.33125 280.8156 35.39375Q281.6281 34.45625 281.6281 32.51875Q281.6281 30.39375 280.8 29.39375Q279.9875 28.39375 278.78436 28.39375Q277.6125 28.39375 276.8156 29.3625Q276.03436 30.315624 276.03436 32.378124ZM285.55 38.409374L287.2531 38.659374Q287.3625 39.45625 287.84686 39.815624Q288.5031 40.3 289.64374 40.3Q290.8625 40.3 291.51874 39.815624Q292.1906 39.33125 292.425 38.45625Q292.5656 37.909374 292.55 36.190624Q291.39374 37.55 289.675 37.55Q287.53436 37.55 286.3625 36.003124Q285.1906 34.45625 285.1906 32.3Q285.1906 30.815624 285.72186 29.565624Q286.26874 28.315624 287.28436 27.628124Q288.3156 26.940624 289.6906 26.940624Q291.51874 26.940624 292.72186 28.425L292.72186 27.175L294.33124 27.175L294.33124 36.14375Q294.33124 38.565624 293.83124 39.565624Q293.34686 40.58125 292.26874 41.159374Q291.20624 41.753124 289.64374 41.753124Q287.8 41.753124 286.64374 40.925Q285.5031 40.096874 285.55 38.409374ZM287.0031 32.175Q287.0031 34.221874 287.8156 35.159374Q288.6281 36.096874 289.84686 36.096874Q291.05 36.096874 291.8625 35.159374Q292.6906 34.221874 292.6906 32.2375Q292.6906 30.33125 291.84686 29.3625Q291.0031 28.39375 289.8156 28.39375Q288.64374 28.39375 287.8156 29.346874Q287.0031 30.3 287.0031 32.175ZM303.97186 34.20625L305.78436 34.440624Q305.3625 36.01875 304.1906 36.909374Q303.03436 37.784374 301.22186 37.784374Q298.95624 37.784374 297.6125 36.39375Q296.28436 34.9875 296.28436 32.45625Q296.28436 29.83125 297.6281 28.39375Q298.97186 26.940624 301.1281 26.940624Q303.20624 26.940624 304.51874 28.3625Q305.84686 29.76875 305.84686 32.346874Q305.84686 32.503124 305.83124 32.815624L298.09686 32.815624Q298.1906 34.51875 299.0656 35.425Q299.9406 36.33125 301.2375 36.33125Q302.20624 36.33125 302.8781 35.83125Q303.5656 35.315624 303.97186 34.20625ZM298.1906 31.3625L303.9875 31.3625Q303.8781 30.065624 303.33124 29.409374Q302.4875 28.39375 301.14374 28.39375Q299.9406 28.39375 299.1125 29.20625Q298.28436 30.003124 298.1906 31.3625ZM311.70624 35.971874L311.95624 37.534374Q311.22186 37.690624 310.6281 37.690624Q309.675 37.690624 309.14374 37.39375Q308.6281 37.08125 308.40936 36.596874Q308.1906 36.096874 308.1906 34.51875L308.1906 28.55L306.90936 28.55L306.90936 27.175L308.1906 27.175L308.1906 24.6125L309.9406 23.55L309.9406 27.175L311.70624 27.175L311.70624 28.55L309.9406 28.55L309.9406 34.6125Q309.9406 35.3625 310.03436 35.58125Q310.1281 35.784374 310.33124 35.925Q310.55 36.05 310.9406 36.05Q311.22186 36.05 311.70624 35.971874Z" fill-rule="nonzero"/></svg>