<svg version="1.1" viewBox="0.0 0.0 600.0 371.0" fill="none" stroke="none" stroke-linecap="square" stroke-miterlimit="10" width="600" height="371" xmlns:xlink="http://www.w3.org/1999/xlink" xmlns="http://www.w3.org/2000/svg"><path fill="#ffffff" d="M0 0L600.0 0L600.0 371.0L0 371.0L0 0Z" fill-rule="nonzero"/><path stroke="#333333" stroke-width="1.0" stroke-linecap="butt" d="M108.5 78.5L108.5 300.5" fill-rule="nonzero"/><path stroke="#cccccc" stroke-width="1.0" stroke-linecap="butt" d="M226.5 78.5L226.5 300.5" fill-rule="nonzero"/><path stroke="#cccccc" stroke-width="1.0" stroke-linecap="butt" d="M345.5 78.5L345.5 300.5" fill-rule="nonzero"/><path stroke="#cccccc" stroke-width="1.0" stroke-linecap="butt" d="M463.5 78.5L463.5 300.5" fill-rule="nonzero"/><path stroke="#cccccc" stroke-width="1.0" stroke-linecap="butt" d="M581.5 78.5L581.5 300.5" fill-rule="nonzero"/><clipPath id="id_0"><path d="M108.55 78.416664L581.45 78.416664L581.45 300.45L108.55 300.45L108.55 78.416664Z" clip-rule="nonzero"/></clipPath><path stroke="#000000" stroke-width="2.0" stroke-linecap="butt" stroke-opacity="0.0" clip-path="url(#id_0)" d="M109.0 114.0L109.0 91.0L195.0 91.0C196.10457 91.0 197.0 91.89543 197.0 93.0L197.0 112.0C197.0 113.10457 196.10457 114.0 195.0 114.0Z" fill-rule="nonzero"/><path fill="#4285f4" clip-path="url(#id_0)" d="M109.0 114.0L109.0 91.0L195.0 91.0C196.10457 91.0 197.0 91.89543 197.0 93.0L197.0 112.0C197.0 113.10457 196.10457 114.0 195.0 114.0Z" fill-rule="nonzero"/><path stroke="#000000" stroke-width="2.0" stroke-linecap="butt" stroke-opacity="0.0" clip-path="url(#id_0)" d="M109.0 149.0L109.0 126.0L152.0 126.0C153.10457 126.0 154.0 126.89543 154.0 128.0L154.0 147.0C154.0 148.10457 153.10457 149.0 152.0 149.0Z" fill-rule="nonzero"/><path fill="#4285f4" clip-path="url(#id_0)" d="M109.0 149.0L109.0 126.0L152.0 126.0C153.10457 126.0 154.0 126.89543 154.0 128.0L154.0 147.0C154.0 148.10457 153.10457 149.0 152.0 149.0Z" fill-rule="nonzero"/><path stroke="#000000" stroke-width="2.0" stroke-linecap="butt" stroke-opacity="0.0" clip-path="url(#id_0)" d="M109.0 184.0L109.0 161.0L147.0 161.0C148.10457 161.0 149.0 161.89543 149.0 163.0L149.0 182.0C149.0 183.10457 148.10457 184.0 147.0 184.0Z" fill-rule="nonzero"/><path fill="#4285f4" clip-path="url(#id_0)" d="M109.0 184.0L109.0 161.0L147.0 161.0C148.10457 161.0 149.0 161.89543 149.0 163.0L149.0 182.0C149.0 183.10457 148.10457 184.0 147.0 184.0Z" fill-rule="nonzero"/><path stroke="#000000" stroke-width="2.0" stroke-linecap="butt" stroke-opacity="0.0" clip-path="url(#id_0)" d="M109.0 219.0L109.0 196.0L110.5 196.0C111.32843 196.0 112.0 196.67157 112.0 197.5L112.0 217.5C112.0 218.32843 111.32843 219.0 110.5 219.0Z" fill-rule="nonzero"/><path fill="#4285f4" clip-path="url(#id_0)" d="M109.0 219.0L109.0 196.0L110.5 196.0C111.32843 196.0 112.0 196.67157 112.0 197.5L112.0 217.5C112.0 218.32843 111.32843 219.0 110.5 219.0Z" fill-rule="nonzero"/><path stroke="#000000" stroke-width="2.0" stroke-linecap="butt" stroke-opacity="0.0" clip-path="url(#id_0)" d="M109.0 254.0L109.0 231.0L139.0 231.0C140.10457 231.0 141.0 231.89543 141.0 233.0L141.0 252.0C141.0 253.10457 140.10457 254.0 139.0 254.0Z" fill-rule="nonzero"/><path fill="#4285f4" clip-path="url(#id_0)" d="M109.0 254.0L109.0 231.0L139.0 231.0C140.10457 231.0 141.0 231.89543 141.0 233.0L141.0 252.0C141.0 253.10457 140.10457 254.0 139.0 254.0Z" fill-rule="nonzero"/><path stroke="#000000" stroke-width="2.0" stroke-linecap="butt" stroke-opacity="0.0" clip-path="url(#id_0)" d="M109.0 289.0L109.0 266.0L464.0 266.0C465.10458 266.0 466.0 266.89542 466.0 268.0L466.0 287.0C466.0 288.10458 465.10458 289.0 464.0 289.0Z" fill-rule="nonzero"/><path fill="#4285f4" clip-path="url(#id_0)" d="M109.0 289.0L109.0 266.0L464.0 266.0C465.10458 266.0 466.0 266.89542 466.0 268.0L466.0 287.0C466.0 288.10458 465.10458 289.0 464.0 289.0Z" fill-rule="nonzero"/><path fill="#000000" d="M319.20312 342.91876Q319.20312 341.9969 319.65625 341.35626Q320.125 340.71564 321.0 340.71564Q321.8125 340.71564 322.34375 341.29376Q322.875 341.8719 322.875 342.98126Q322.875 344.075 322.32812 344.66876Q321.79688 345.2469 321.01562 345.2469Q320.23438 345.2469 319.71875 344.66876Q319.20312 344.09064 319.20312 342.91876ZM321.03125 341.4344Q320.64062 341.4344 320.375 341.77814Q320.125 342.1219 320.125 343.02814Q320.125 343.85626 320.375 344.2Q320.64062 344.52814 321.03125 344.52814Q321.4375 344.52814 321.6875 344.1844Q321.95312 343.84064 321.95312 342.95Q321.95312 342.10626 321.6875 341.77814Q321.42188 341.4344 321.03125 341.4344ZM321.03125 349.7625L325.73438 340.71564L326.59375 340.71564L321.90625 349.7625L321.03125 349.7625ZM324.75 347.4344Q324.75 346.5125 325.20312 345.8719Q325.67188 345.23126 326.5625 345.23126Q327.375 345.23126 327.90625 345.8094Q328.4375 346.3719 328.4375 347.4969Q328.4375 348.59064 327.89062 349.1844Q327.35938 349.7625 326.5625 349.7625Q325.79688 349.7625 325.26562 349.1844Q324.75 348.60626 324.75 347.4344ZM326.59375 345.95Q326.1875 345.95 325.92188 346.29376Q325.67188 346.6375 325.67188 347.54376Q325.67188 348.35626 325.9375 348.7Q326.20312 349.04376 326.59375 349.04376Q326.98438 349.04376 327.25 348.7Q327.51562 348.35626 327.51562 347.45Q327.51562 346.6219 327.25 346.29376Q326.98438 345.95 326.59375 345.95ZM332.90625 346.34064Q332.90625 344.60626 333.85938 343.77814Q334.65625 343.09064 335.8125 343.09064Q337.09375 343.09064 337.90625 343.9344Q338.73438 344.7625 338.73438 346.2469Q338.73438 347.45 338.375 348.1375Q338.01562 348.825 337.3125 349.21564Q336.625 349.59064 335.8125 349.59064Q334.51562 349.59064 333.70312 348.7625Q332.90625 347.91876 332.90625 346.34064ZM333.98438 346.34064Q333.98438 347.52814 334.5 348.1219Q335.03125 348.71564 335.8125 348.71564Q336.60938 348.71564 337.125 348.1219Q337.64062 347.52814 337.64062 346.3094Q337.64062 345.15314 337.10938 344.5594Q336.59375 343.96564 335.8125 343.96564Q335.03125 343.96564 334.5 344.5594Q333.98438 345.1375 333.98438 346.34064ZM340.54688 349.45L340.54688 344.04376L339.60938 344.04376L339.60938 343.23126L340.54688 343.23126L340.54688 342.5594Q340.54688 341.9344 340.65625 341.6375Q340.8125 341.21564 341.1875 340.96564Q341.57812 340.71564 342.26562 340.71564Q342.71875 340.71564 343.25 340.825L343.09375 341.73126Q342.76562 341.6844 342.46875 341.6844Q341.98438 341.6844 341.78125 341.8875Q341.59375 342.09064 341.59375 342.65314L341.59375 343.23126L342.8125 343.23126L342.8125 344.04376L341.59375 344.04376L341.59375 349.45L340.54688 349.45ZM350.45312 346.075L350.45312 345.075L354.07812 345.0594L354.07812 348.2469Q353.25 348.91876 352.35938 349.2625Q351.46875 349.59064 350.53125 349.59064Q349.26562 349.59064 348.21875 349.0594Q347.1875 348.5125 346.65625 347.4969Q346.14062 346.46564 346.14062 345.2Q346.14062 343.9344 346.65625 342.85626Q347.1875 341.7625 348.17188 341.2469Q349.15625 340.71564 350.4375 340.71564Q351.375 340.71564 352.125 341.0125Q352.875 341.3094 353.29688 341.85626Q353.73438 342.3875 353.95312 343.2625L352.9375 343.54376Q352.73438 342.8875 352.4375 342.5125Q352.15625 342.1375 351.625 341.91876Q351.09375 341.6844 350.45312 341.6844Q349.67188 341.6844 349.09375 341.91876Q348.53125 342.15314 348.17188 342.54376Q347.82812 342.9344 347.64062 343.40314Q347.3125 344.2 347.3125 345.1219Q347.3125 346.27814 347.70312 347.0594Q348.10938 347.825 348.85938 348.2Q349.60938 348.575 350.46875 348.575Q351.20312 348.575 351.90625 348.29376Q352.60938 347.9969 352.96875 347.6844L352.96875 346.075L350.45312 346.075ZM355.42188 349.45L355.42188 340.85626L358.39062 340.85626Q359.39062 340.85626 359.92188 340.98126Q360.65625 341.15314 361.17188 341.59064Q361.85938 342.16876 362.1875 343.075Q362.53125 343.96564 362.53125 345.10626Q362.53125 346.09064 362.29688 346.84064Q362.07812 347.59064 361.71875 348.09064Q361.35938 348.59064 360.92188 348.8719Q360.5 349.15314 359.90625 349.3094Q359.3125 349.45 358.53125 349.45L355.42188 349.45ZM356.5625 348.4344L358.39062 348.4344Q359.25 348.4344 359.73438 348.27814Q360.21875 348.1219 360.5 347.825Q360.90625 347.4344 361.125 346.7469Q361.35938 346.0594 361.35938 345.09064Q361.35938 343.7469 360.90625 343.02814Q360.46875 342.29376 359.84375 342.04376Q359.375 341.8719 358.375 341.8719L356.5625 341.8719L356.5625 348.4344ZM364.42188 349.45L364.42188 340.85626L367.67188 340.85626Q368.51562 340.85626 368.96875 340.9344Q369.60938 341.04376 370.03125 341.34064Q370.46875 341.6375 370.71875 342.16876Q370.98438 342.7 370.98438 343.34064Q370.98438 344.4344 370.28125 345.2Q369.59375 345.95 367.76562 345.95L365.5625 345.95L365.5625 349.45L364.42188 349.45ZM365.5625 344.95L367.78125 344.95Q368.89062 344.95 369.34375 344.54376Q369.8125 344.1219 369.8125 343.3719Q369.8125 342.84064 369.53125 342.46564Q369.26562 342.075 368.82812 341.95Q368.53125 341.8719 367.76562 341.8719L365.5625 341.8719L365.5625 344.95Z" fill-rule="nonzero"/><path fill="#000000" d="M26.534388 213.37083L26.831263 212.24583Q28.221888 212.60521 28.956263 213.52708Q29.690638 214.44896 29.690638 215.79271Q29.690638 217.18333 29.128138 218.05833Q28.565638 218.93333 27.503138 219.38646Q26.425013 219.83958 25.190638 219.83958Q23.846888 219.83958 22.846888 219.32396Q21.846888 218.80833 21.331263 217.87083Q20.815638 216.91771 20.815638 215.77708Q20.815638 214.49583 21.471888 213.62083Q22.128138 212.73021 23.315638 212.38646L23.581263 213.51146Q22.643763 213.80833 22.221888 214.38646Q21.784388 214.94896 21.784388 215.80833Q21.784388 216.79271 22.268763 217.46458Q22.737513 218.12083 23.534388 218.40208Q24.331263 218.66771 25.190638 218.66771Q26.284388 218.66771 27.096888 218.35521Q27.909388 218.02708 28.315638 217.35521Q28.721888 216.68333 28.721888 215.88646Q28.721888 214.93333 28.175013 214.27708Q27.628138 213.60521 26.534388 213.37083ZM26.440638 211.02708Q24.706263 211.02708 23.878138 210.07396Q23.190638 209.27708 23.190638 208.12083Q23.190638 206.83958 24.034388 206.02708Q24.862513 205.19896 26.346888 205.19896Q27.550013 205.19896 28.237513 205.55833Q28.925013 205.91771 29.315638 206.62083Q29.690638 207.30833 29.690638 208.12083Q29.690638 209.41771 28.862513 210.23021Q28.018763 211.02708 26.440638 211.02708ZM26.440638 209.94896Q27.628138 209.94896 28.221888 209.43333Q28.815638 208.90208 28.815638 208.12083Q28.815638 207.32396 28.221888 206.80833Q27.628138 206.29271 26.409388 206.29271Q25.253138 206.29271 24.659388 206.82396Q24.065638 207.33958 24.065638 208.12083Q24.065638 208.90208 24.659388 209.43333Q25.237513 209.94896 26.440638 209.94896ZM29.550013 199.55833L28.628138 199.55833Q29.690638 200.29271 29.690638 201.54271Q29.690638 202.08958 29.487513 202.57396Q29.268763 203.04271 28.956263 203.27708Q28.628138 203.51146 28.159388 203.60521Q27.862513 203.66771 27.175013 203.66771L23.331263 203.66771L23.331263 202.60521L26.784388 202.60521Q27.596888 202.60521 27.893763 202.54271Q28.300013 202.44896 28.550013 202.13646Q28.784388 201.80833 28.784388 201.32396Q28.784388 200.85521 28.550013 200.44896Q28.300013 200.02708 27.878138 199.85521Q27.456263 199.66771 26.659388 199.66771L23.331263 199.66771L23.331263 198.62083L29.550013 198.62083L29.550013 199.55833ZM29.550013 196.63646L23.331263 196.63646L23.331263 195.69896L24.206263 195.69896Q23.190638 195.01146 23.190638 193.71458Q23.190638 193.15208 23.393763 192.68333Q23.596888 192.19896 23.925013 191.96458Q24.253138 191.73021 24.690638 191.63646Q24.987513 191.58958 25.721888 191.58958L29.550013 191.58958L29.550013 192.63646L25.768763 192.63646Q25.112513 192.63646 24.800013 192.76146Q24.487513 192.88646 24.300013 193.19896Q24.096888 193.51146 24.096888 193.93333Q24.096888 194.60521 24.534388 195.10521Q24.956263 195.58958 26.143763 195.58958L29.550013 195.58958L29.550013 196.63646ZM28.612513 187.33958L29.534388 187.18333Q29.628138 187.63646 29.628138 187.98021Q29.628138 188.55833 29.456263 188.87083Q29.268763 189.18333 28.971888 189.32396Q28.675013 189.44896 27.721888 189.44896L24.143763 189.44896L24.143763 190.21458L23.331263 190.21458L23.331263 189.44896L21.784388 189.44896L21.159388 188.40208L23.331263 188.40208L23.331263 187.33958L24.143763 187.33958L24.143763 188.40208L27.784388 188.40208Q28.237513 188.40208 28.362513 188.35521Q28.487513 188.29271 28.565638 188.16771Q28.643763 188.04271 28.643763 187.80833Q28.643763 187.62083 28.612513 187.33958ZM29.550013 186.65208L23.331263 186.65208L23.331263 185.69896L24.268763 185.69896Q23.612513 185.33958 23.409388 185.04271Q23.190638 184.73021 23.190638 184.35521Q23.190638 183.82396 23.518763 183.27708L24.503138 183.63646Q24.268763 184.02708 24.268763 184.40208Q24.268763 184.76146 24.487513 185.04271Q24.690638 185.30833 25.065638 185.41771Q25.628138 185.60521 26.284388 185.60521L29.550013 185.60521L29.550013 186.65208ZM31.940638 182.68333L30.956263 182.80833Q31.050013 182.46458 31.050013 182.19896Q31.050013 181.85521 30.925013 181.65208Q30.815638 181.43333 30.612513 181.29271Q30.440638 181.19896 29.815638 180.96458Q29.737513 180.94896 29.565638 180.87083L23.331263 183.24583L23.331263 182.10521L26.925013 180.80833Q27.612513 180.55833 28.378138 180.35521Q27.643763 180.16771 26.956263 179.91771L23.331263 178.58958L23.331263 177.54271L29.659388 179.90208Q30.675013 180.29271 31.065638 180.49583Q31.596888 180.77708 31.831263 181.15208Q32.08126 181.51146 32.08126 182.01146Q32.08126 182.30833 31.940638 182.68333Z" fill-rule="nonzero"/><path fill="#000000" d="M76.6125 103.00301L77.7375 103.29989Q77.37813 104.69051 76.45625 105.42489Q75.53438 106.15926 74.19063 106.15926Q72.8 106.15926 71.925 105.59676Q71.05 105.03426 70.59688 103.97176Q70.14375 102.89364 70.14375 101.65926Q70.14375 100.31551 70.65938 99.31551Q71.175 98.31551 72.1125 97.79989Q73.06563 97.28426 74.20625 97.28426Q75.4875 97.28426 76.3625 97.94051Q77.25313 98.59676 77.59688 99.78426L76.47188 100.04989Q76.175 99.11239 75.59688 98.69051Q75.03438 98.25301 74.175 98.25301Q73.19063 98.25301 72.51875 98.73739Q71.8625 99.20614 71.58125 100.00301Q71.31563 100.79989 71.31563 101.65926Q71.31563 102.75301 71.62813 103.56551Q71.95625 104.37801 72.62813 104.78426Q73.3 105.19051 74.09688 105.19051Q75.05 105.19051 75.70625 104.64364Q76.37813 104.09676 76.6125 103.00301ZM79.34688 106.01864L79.34688 97.42489L80.39375 97.42489L80.39375 100.50301Q81.12813 99.65926 82.25313 99.65926Q82.95625 99.65926 83.45625 99.94051Q83.97188 100.20614 84.19063 100.69051Q84.40938 101.15926 84.40938 102.08114L84.40938 106.01864L83.3625 106.01864L83.3625 102.08114Q83.3625 101.28426 83.01875 100.92489Q82.675 100.56551 82.05 100.56551Q81.58125 100.56551 81.15938 100.81551Q80.75313 101.04989 80.56563 101.47176Q80.39375 101.87801 80.39375 102.61239L80.39375 106.01864L79.34688 106.01864ZM86.34688 98.64364L86.34688 97.42489L87.40938 97.42489L87.40938 98.64364L86.34688 98.64364ZM86.34688 106.01864L86.34688 99.79989L87.40938 99.79989L87.40938 106.01864L86.34688 106.01864ZM89.34688 106.01864L89.34688 99.79989L90.28438 99.79989L90.28438 100.67489Q90.97188 99.65926 92.26875 99.65926Q92.83125 99.65926 93.3 99.86239Q93.78438 100.06551 94.01875 100.39364Q94.25313 100.72176 94.34688 101.15926Q94.39375 101.45614 94.39375 102.19051L94.39375 106.01864L93.34688 106.01864L93.34688 102.23739Q93.34688 101.58114 93.22188 101.26864Q93.09688 100.95614 92.78438 100.76864Q92.47188 100.56551 92.05 100.56551Q91.37813 100.56551 90.87813 101.00301Q90.39375 101.42489 90.39375 102.61239L90.39375 106.01864L89.34688 106.01864ZM100.40938 105.25301Q99.81563 105.75301 99.26875 105.95614Q98.7375 106.15926 98.1125 106.15926Q97.08125 106.15926 96.53438 105.65926Q95.9875 105.15926 95.9875 104.37801Q95.9875 103.92489 96.19063 103.54989Q96.39375 103.15926 96.7375 102.94051Q97.08125 102.70614 97.50313 102.59676Q97.8 102.50301 98.44063 102.42489Q99.70625 102.28426 100.31563 102.06551Q100.31563 101.84676 100.31563 101.79989Q100.31563 101.14364 100.01875 100.87801Q99.6125 100.53426 98.81563 100.53426Q98.08125 100.53426 97.72188 100.79989Q97.3625 101.04989 97.19063 101.70614L96.15938 101.56551Q96.3 100.90926 96.62813 100.50301Q96.95625 100.09676 97.56563 99.87801Q98.175 99.65926 98.97188 99.65926Q99.76875 99.65926 100.26875 99.84676Q100.76875 100.03426 101.00313 100.31551Q101.2375 100.59676 101.33125 101.03426Q101.37813 101.29989 101.37813 102.00301L101.37813 103.40926Q101.37813 104.87801 101.44063 105.26864Q101.51875 105.65926 101.72188 106.01864L100.6125 106.01864Q100.45625 105.69051 100.40938 105.25301ZM100.31563 102.89364Q99.7375 103.12801 98.59688 103.29989Q97.94063 103.39364 97.675 103.51864Q97.40938 103.62801 97.25313 103.84676Q97.1125 104.06551 97.1125 104.34676Q97.1125 104.76864 97.425 105.04989Q97.75313 105.33114 98.3625 105.33114Q98.97188 105.33114 99.44063 105.06551Q99.925 104.79989 100.14375 104.33114Q100.31563 103.97176 100.31563 103.28426L100.31563 102.89364Z" fill-rule="nonzero"/><path fill="#000000" d="M89.1125 132.39076L90.25313 132.39076L90.25313 137.35951Q90.25313 138.65639 89.95625 139.42201Q89.65938 140.17201 88.89375 140.65639Q88.12813 141.12514 86.89375 141.12514Q85.69063 141.12514 84.90938 140.71889Q84.14375 140.29701 83.81563 139.51576Q83.4875 138.71889 83.4875 137.35951L83.4875 132.39076L84.62813 132.39076L84.62813 137.34389Q84.62813 138.46889 84.83125 139.00014Q85.05 139.53139 85.55 139.82826Q86.06563 140.10951 86.8 140.10951Q88.05 140.10951 88.58125 139.54701Q89.1125 138.96889 89.1125 137.34389L89.1125 132.39076ZM92.64375 140.98451L92.64375 139.78139L93.84688 139.78139L93.84688 140.98451L92.64375 140.98451ZM95.425 140.98451L95.425 132.39076L96.56563 132.39076L96.56563 136.65639L100.83125 132.39076L102.37813 132.39076L98.76875 135.87514L102.53438 140.98451L101.03438 140.98451L97.97188 136.64076L96.56563 138.00014L96.56563 140.98451L95.425 140.98451Z" fill-rule="nonzero"/><path fill="#000000" d="M65.53438 175.9504L65.53438 167.35664L71.33125 167.35664L71.33125 168.37227L66.675 168.37227L66.675 171.02852L70.70625 171.02852L70.70625 172.04414L66.675 172.04414L66.675 175.9504L65.53438 175.9504ZM72.33125 175.9504L72.33125 169.73164L73.28438 169.73164L73.28438 170.66914Q73.64375 170.0129 73.94063 169.80977Q74.25313 169.59102 74.62813 169.59102Q75.15938 169.59102 75.70625 169.91914L75.34688 170.90352Q74.95625 170.66914 74.58125 170.66914Q74.22188 170.66914 73.94063 170.8879Q73.675 171.09102 73.56563 171.46602Q73.37813 172.02852 73.37813 172.68477L73.37813 175.9504L72.33125 175.9504ZM80.40938 175.18477Q79.81563 175.68477 79.26875 175.8879Q78.7375 176.09102 78.1125 176.09102Q77.08125 176.09102 76.53438 175.59102Q75.9875 175.09102 75.9875 174.30977Q75.9875 173.85664 76.19063 173.48164Q76.39375 173.09102 76.7375 172.87227Q77.08125 172.6379 77.50313 172.52852Q77.8 172.43477 78.44063 172.35664Q79.70625 172.21602 80.31563 171.99727Q80.31563 171.77852 80.31563 171.73164Q80.31563 171.0754 80.01875 170.80977Q79.6125 170.46602 78.81563 170.46602Q78.08125 170.46602 77.72188 170.73164Q77.3625 170.98164 77.19063 171.6379L76.15938 171.49727Q76.3 170.84102 76.62813 170.43477Q76.95625 170.02852 77.56563 169.80977Q78.175 169.59102 78.97188 169.59102Q79.76875 169.59102 80.26875 169.77852Q80.76875 169.96602 81.00313 170.24727Q81.2375 170.52852 81.33125 170.96602Q81.37813 171.23164 81.37813 171.93477L81.37813 173.34102Q81.37813 174.80977 81.44063 175.2004Q81.51875 175.59102 81.72188 175.9504L80.6125 175.9504Q80.45625 175.62227 80.40938 175.18477ZM80.31563 172.8254Q79.7375 173.05977 78.59688 173.23164Q77.94063 173.3254 77.675 173.4504Q77.40938 173.55977 77.25313 173.77852Q77.1125 173.99727 77.1125 174.27852Q77.1125 174.7004 77.425 174.98164Q77.75313 175.2629 78.3625 175.2629Q78.97188 175.2629 79.44063 174.99727Q79.925 174.73164 80.14375 174.2629Q80.31563 173.90352 80.31563 173.21602L80.31563 172.8254ZM83.34688 175.9504L83.34688 169.73164L84.28438 169.73164L84.28438 170.60664Q84.97188 169.59102 86.26875 169.59102Q86.83125 169.59102 87.3 169.79414Q87.78438 169.99727 88.01875 170.3254Q88.25313 170.65352 88.34688 171.09102Q88.39375 171.3879 88.39375 172.12227L88.39375 175.9504L87.34688 175.9504L87.34688 172.16914Q87.34688 171.5129 87.22188 171.2004Q87.09688 170.8879 86.78438 170.7004Q86.47188 170.49727 86.05 170.49727Q85.37813 170.49727 84.87813 170.93477Q84.39375 171.35664 84.39375 172.54414L84.39375 175.9504L83.34688 175.9504ZM94.40938 173.66914L95.44063 173.80977Q95.26875 174.87227 94.56563 175.48164Q93.8625 176.09102 92.84688 176.09102Q91.56563 176.09102 90.78438 175.2629Q90.01875 174.41914 90.01875 172.85664Q90.01875 171.85664 90.34688 171.10664Q90.69063 170.34102 91.3625 169.96602Q92.05 169.59102 92.8625 169.59102Q93.8625 169.59102 94.50313 170.10664Q95.15938 170.60664 95.34688 171.55977L94.31563 171.71602Q94.175 171.09102 93.8 170.77852Q93.425 170.4504 92.89375 170.4504Q92.09688 170.4504 91.59688 171.02852Q91.09688 171.59102 91.09688 172.8254Q91.09688 174.09102 91.58125 174.65352Q92.06563 175.21602 92.83125 175.21602Q93.45625 175.21602 93.8625 174.84102Q94.28438 174.46602 94.40938 173.66914ZM100.59688 173.9504L101.69063 174.0754Q101.44063 175.02852 100.7375 175.55977Q100.03438 176.09102 98.95625 176.09102Q97.59688 176.09102 96.78438 175.24727Q95.9875 174.40352 95.9875 172.8879Q95.9875 171.3254 96.8 170.46602Q97.6125 169.59102 98.89375 169.59102Q100.14375 169.59102 100.925 170.43477Q101.72188 171.27852 101.72188 172.8254Q101.72188 172.91914 101.72188 173.10664L97.08125 173.10664Q97.14375 174.1379 97.65938 174.68477Q98.175 175.21602 98.95625 175.21602Q99.53438 175.21602 99.94063 174.91914Q100.3625 174.60664 100.59688 173.9504ZM97.14375 172.24727L100.6125 172.24727Q100.55 171.4504 100.22188 171.05977Q99.70625 170.4504 98.90938 170.4504Q98.175 170.4504 97.675 170.93477Q97.19063 171.41914 97.14375 172.24727Z" fill-rule="nonzero"/><path fill="#000000" d="M89.1125 202.32253L90.25313 202.32253L90.25313 207.29128Q90.25313 208.58815 89.95625 209.35378Q89.65938 210.10378 88.89375 210.58815Q88.12813 211.0569 86.89375 211.0569Q85.69063 211.0569 84.90938 210.65065Q84.14375 210.22878 83.81563 209.44753Q83.4875 208.65065 83.4875 207.29128L83.4875 202.32253L84.62813 202.32253L84.62813 207.27565Q84.62813 208.40065 84.83125 208.9319Q85.05 209.46315 85.55 209.76003Q86.06563 210.04128 86.8 210.04128Q88.05 210.04128 88.58125 209.47878Q89.1125 208.90065 89.1125 207.27565L89.1125 202.32253ZM92.64375 210.91628L92.64375 209.71315L93.84688 209.71315L93.84688 210.91628L92.64375 210.91628ZM95.09688 208.15065L96.15938 208.0569Q96.2375 208.71315 96.51875 209.1194Q96.8 209.52565 97.37813 209.79128Q97.97188 210.04128 98.70625 210.04128Q99.34688 210.04128 99.84688 209.85378Q100.34688 209.65065 100.58125 209.32253Q100.83125 208.97878 100.83125 208.58815Q100.83125 208.1819 100.59688 207.88503Q100.3625 207.57253 99.83125 207.3694Q99.47188 207.22878 98.28438 206.94753Q97.1125 206.66628 96.64375 206.41628Q96.01875 206.08815 95.72188 205.6194Q95.425 205.13503 95.425 204.54128Q95.425 203.90065 95.78438 203.33815Q96.15938 202.76003 96.8625 202.47878Q97.58125 202.1819 98.44063 202.1819Q99.39375 202.1819 100.12813 202.4944Q100.8625 202.79128 101.25313 203.40065Q101.64375 203.9944 101.675 204.7444L100.58125 204.82253Q100.4875 204.01003 99.97188 203.60378Q99.47188 203.1819 98.4875 203.1819Q97.45625 203.1819 96.9875 203.5569Q96.51875 203.9319 96.51875 204.46315Q96.51875 204.9319 96.84688 205.22878Q97.175 205.52565 98.55 205.83815Q99.94063 206.15065 100.45625 206.38503Q101.20625 206.7444 101.56563 207.27565Q101.925 207.79128 101.925 208.4944Q101.925 209.1819 101.53438 209.79128Q101.14375 210.38503 100.40938 210.72878Q99.675 211.0569 98.75313 211.0569Q97.58125 211.0569 96.78438 210.72878Q96.00313 210.38503 95.55 209.69753Q95.1125 209.01003 95.09688 208.15065Z" fill-rule="nonzero"/><path fill="#000000" d="M71.09688 243.11653L72.15938 243.02278Q72.2375 243.67903 72.51875 244.08528Q72.8 244.49153 73.37813 244.75716Q73.97188 245.00716 74.70625 245.00716Q75.34688 245.00716 75.84688 244.81966Q76.34688 244.61653 76.58125 244.2884Q76.83125 243.94466 76.83125 243.55403Q76.83125 243.14778 76.59688 242.8509Q76.3625 242.5384 75.83125 242.33528Q75.47188 242.19466 74.28438 241.9134Q73.1125 241.63216 72.64375 241.38216Q72.01875 241.05403 71.72188 240.58528Q71.425 240.1009 71.425 239.50716Q71.425 238.86653 71.78438 238.30403Q72.15938 237.7259 72.8625 237.44466Q73.58125 237.14778 74.44063 237.14778Q75.39375 237.14778 76.12813 237.46028Q76.8625 237.75716 77.25313 238.36653Q77.64375 238.96028 77.675 239.71028L76.58125 239.7884Q76.4875 238.9759 75.97188 238.56966Q75.47188 238.14778 74.4875 238.14778Q73.45625 238.14778 72.9875 238.52278Q72.51875 238.89778 72.51875 239.42903Q72.51875 239.89778 72.84688 240.19466Q73.175 240.49153 74.55 240.80403Q75.94063 241.11653 76.45625 241.3509Q77.20625 241.71028 77.56563 242.24153Q77.925 242.75716 77.925 243.46028Q77.925 244.14778 77.53438 244.75716Q77.14375 245.3509 76.40938 245.69466Q75.675 246.02278 74.75313 246.02278Q73.58125 246.02278 72.78438 245.69466Q72.00313 245.3509 71.55 244.6634Q71.1125 243.9759 71.09688 243.11653ZM79.34688 248.27278L79.34688 239.6634L80.3 239.6634L80.3 240.46028Q80.64375 239.99153 81.06563 239.75716Q81.50313 239.52278 82.1125 239.52278Q82.90938 239.52278 83.51875 239.92903Q84.12813 240.33528 84.425 241.08528Q84.7375 241.83528 84.7375 242.7259Q84.7375 243.67903 84.39375 244.44466Q84.06563 245.21028 83.40938 245.61653Q82.75313 246.02278 82.03438 246.02278Q81.50313 246.02278 81.08125 245.80403Q80.65938 245.56966 80.39375 245.24153L80.39375 248.27278L79.34688 248.27278ZM80.3 242.80403Q80.3 244.00716 80.78438 244.58528Q81.26875 245.14778 81.95625 245.14778Q82.65938 245.14778 83.15938 244.55403Q83.65938 243.96028 83.65938 242.71028Q83.65938 241.52278 83.175 240.94466Q82.69063 240.3509 82.00313 240.3509Q81.33125 240.3509 80.81563 240.9759Q80.3 241.6009 80.3 242.80403ZM90.40938 245.11653Q89.81563 245.61653 89.26875 245.81966Q88.7375 246.02278 88.1125 246.02278Q87.08125 246.02278 86.53438 245.52278Q85.9875 245.02278 85.9875 244.24153Q85.9875 243.7884 86.19063 243.4134Q86.39375 243.02278 86.7375 242.80403Q87.08125 242.56966 87.50313 242.46028Q87.8 242.36653 88.44063 242.2884Q89.70625 242.14778 90.31563 241.92903Q90.31563 241.71028 90.31563 241.6634Q90.31563 241.00716 90.01875 240.74153Q89.6125 240.39778 88.81563 240.39778Q88.08125 240.39778 87.72188 240.6634Q87.3625 240.9134 87.19063 241.56966L86.15938 241.42903Q86.3 240.77278 86.62813 240.36653Q86.95625 239.96028 87.56563 239.74153Q88.175 239.52278 88.97188 239.52278Q89.76875 239.52278 90.26875 239.71028Q90.76875 239.89778 91.00313 240.17903Q91.2375 240.46028 91.33125 240.89778Q91.37813 241.1634 91.37813 241.86653L91.37813 243.27278Q91.37813 244.74153 91.44063 245.13216Q91.51875 245.52278 91.72188 245.88216L90.6125 245.88216Q90.45625 245.55403 90.40938 245.11653ZM90.31563 242.75716Q89.7375 242.99153 88.59688 243.1634Q87.94063 243.25716 87.675 243.38216Q87.40938 243.49153 87.25313 243.71028Q87.1125 243.92903 87.1125 244.21028Q87.1125 244.63216 87.425 244.9134Q87.75313 245.19466 88.3625 245.19466Q88.97188 245.19466 89.44063 244.92903Q89.925 244.6634 90.14375 244.19466Q90.31563 243.83528 90.31563 243.14778L90.31563 242.75716ZM93.34688 238.50716L93.34688 237.2884L94.40938 237.2884L94.40938 238.50716L93.34688 238.50716ZM93.34688 245.88216L93.34688 239.6634L94.40938 239.6634L94.40938 245.88216L93.34688 245.88216ZM96.34688 245.88216L96.34688 239.6634L97.28438 239.6634L97.28438 240.5384Q97.97188 239.52278 99.26875 239.52278Q99.83125 239.52278 100.3 239.7259Q100.78438 239.92903 101.01875 240.25716Q101.25313 240.58528 101.34688 241.02278Q101.39375 241.31966 101.39375 242.05403L101.39375 245.88216L100.34688 245.88216L100.34688 242.1009Q100.34688 241.44466 100.22188 241.13216Q100.09688 240.81966 99.78438 240.63216Q99.47188 240.42903 99.05 240.42903Q98.37813 240.42903 97.87813 240.86653Q97.39375 241.2884 97.39375 242.4759L97.39375 245.88216L96.34688 245.88216Z" fill-rule="nonzero"/><path fill="#000000" d="M51.471874 280.84802L51.471874 272.25427L54.721874 272.25427Q55.565624 272.25427 56.01875 272.3324Q56.659374 272.44177 57.08125 272.73865Q57.51875 273.03552 57.76875 273.56677Q58.034374 274.09802 58.034374 274.73865Q58.034374 275.8324 57.33125 276.59802Q56.64375 277.34802 54.815624 277.34802L52.6125 277.34802L52.6125 280.84802L51.471874 280.84802ZM52.6125 276.34802L54.83125 276.34802Q55.940624 276.34802 56.39375 275.94177Q56.8625 275.5199 56.8625 274.7699Q56.8625 274.23865 56.58125 273.86365Q56.315624 273.47302 55.878124 273.34802Q55.58125 273.2699 54.815624 273.2699L52.6125 273.2699L52.6125 276.34802ZM63.409374 280.0824Q62.815624 280.5824 62.26875 280.78552Q61.7375 280.98865 61.1125 280.98865Q60.08125 280.98865 59.534374 280.48865Q58.9875 279.98865 58.9875 279.2074Q58.9875 278.75427 59.190624 278.37927Q59.39375 277.98865 59.7375 277.7699Q60.08125 277.53552 60.503124 277.42615Q60.8 277.3324 61.440624 277.25427Q62.70625 277.11365 63.315624 276.8949Q63.315624 276.67615 63.315624 276.62927Q63.315624 275.97302 63.01875 275.7074Q62.6125 275.36365 61.815624 275.36365Q61.08125 275.36365 60.721874 275.62927Q60.3625 275.87927 60.190624 276.53552L59.159374 276.3949Q59.3 275.73865 59.628124 275.3324Q59.95625 274.92615 60.565624 274.7074Q61.175 274.48865 61.971874 274.48865Q62.76875 274.48865 63.26875 274.67615Q63.76875 274.86365 64.00313 275.1449Q64.2375 275.42615 64.33125 275.86365Q64.37813 276.12927 64.37813 276.8324L64.37813 278.23865Q64.37813 279.7074 64.44063 280.09802Q64.51875 280.48865 64.72188 280.84802L63.6125 280.84802Q63.45625 280.5199 63.409374 280.0824ZM63.315624 277.72302Q62.7375 277.9574 61.596874 278.12927Q60.940624 278.22302 60.675 278.34802Q60.409374 278.4574 60.253124 278.67615Q60.1125 278.8949 60.1125 279.17615Q60.1125 279.59802 60.425 279.87927Q60.753124 280.16052 61.3625 280.16052Q61.971874 280.16052 62.440624 279.8949Q62.925 279.62927 63.14375 279.16052Q63.315624 278.80115 63.315624 278.11365L63.315624 277.72302ZM66.33125 280.84802L66.33125 274.62927L67.28438 274.62927L67.28438 275.56677Q67.64375 274.91052 67.94063 274.7074Q68.25313 274.48865 68.62813 274.48865Q69.15938 274.48865 69.70625 274.81677L69.34688 275.80115Q68.95625 275.56677 68.58125 275.56677Q68.22188 275.56677 67.94063 275.78552Q67.675 275.98865 67.56563 276.36365Q67.37813 276.92615 67.37813 277.5824L67.37813 280.84802L66.33125 280.84802ZM74.40938 280.0824Q73.81563 280.5824 73.26875 280.78552Q72.7375 280.98865 72.1125 280.98865Q71.08125 280.98865 70.53438 280.48865Q69.9875 279.98865 69.9875 279.2074Q69.9875 278.75427 70.19063 278.37927Q70.39375 277.98865 70.7375 277.7699Q71.08125 277.53552 71.50313 277.42615Q71.8 277.3324 72.44063 277.25427Q73.70625 277.11365 74.31563 276.8949Q74.31563 276.67615 74.31563 276.62927Q74.31563 275.97302 74.01875 275.7074Q73.6125 275.36365 72.81563 275.36365Q72.08125 275.36365 71.72188 275.62927Q71.3625 275.87927 71.19063 276.53552L70.15938 276.3949Q70.3 275.73865 70.62813 275.3324Q70.95625 274.92615 71.56563 274.7074Q72.175 274.48865 72.97188 274.48865Q73.76875 274.48865 74.26875 274.67615Q74.76875 274.86365 75.00313 275.1449Q75.2375 275.42615 75.33125 275.86365Q75.37813 276.12927 75.37813 276.8324L75.37813 278.23865Q75.37813 279.7074 75.44063 280.09802Q75.51875 280.48865 75.72188 280.84802L74.6125 280.84802Q74.45625 280.5199 74.40938 280.0824ZM74.31563 277.72302Q73.7375 277.9574 72.59688 278.12927Q71.94063 278.22302 71.675 278.34802Q71.40938 278.4574 71.25313 278.67615Q71.1125 278.8949 71.1125 279.17615Q71.1125 279.59802 71.425 279.87927Q71.75313 280.16052 72.3625 280.16052Q72.97188 280.16052 73.44063 279.8949Q73.925 279.62927 74.14375 279.16052Q74.31563 278.80115 74.31563 278.11365L74.31563 277.72302ZM77.14375 281.36365L78.175 281.5199Q78.2375 281.98865 78.53438 282.2074Q78.925 282.50427 79.59688 282.50427Q80.33125 282.50427 80.72188 282.2074Q81.12813 281.91052 81.26875 281.3949Q81.3625 281.06677 81.34688 280.03552Q80.65938 280.84802 79.62813 280.84802Q78.34688 280.84802 77.64375 279.92615Q76.94063 278.98865 76.94063 277.7074Q76.94063 276.81677 77.25313 276.06677Q77.58125 275.30115 78.19063 274.8949Q78.8 274.48865 79.62813 274.48865Q80.7375 274.48865 81.45625 275.37927L81.45625 274.62927L82.425 274.62927L82.425 280.00427Q82.425 281.4574 82.12813 282.06677Q81.83125 282.67615 81.19063 283.0199Q80.55 283.37927 79.6125 283.37927Q78.50313 283.37927 77.81563 282.87927Q77.12813 282.37927 77.14375 281.36365ZM78.01875 277.62927Q78.01875 278.84802 78.50313 279.41052Q78.9875 279.97302 79.72188 279.97302Q80.45625 279.97302 80.94063 279.41052Q81.44063 278.84802 81.44063 277.66052Q81.44063 276.5199 80.925 275.94177Q80.425 275.36365 79.70625 275.36365Q79.00313 275.36365 78.50313 275.94177Q78.01875 276.50427 78.01875 277.62927ZM88.425 280.84802L88.425 279.92615Q87.69063 280.98865 86.44063 280.98865Q85.89375 280.98865 85.40938 280.78552Q84.94063 280.56677 84.70625 280.25427Q84.47188 279.92615 84.37813 279.4574Q84.31563 279.16052 84.31563 278.47302L84.31563 274.62927L85.37813 274.62927L85.37813 278.0824Q85.37813 278.8949 85.44063 279.19177Q85.53438 279.59802 85.84688 279.84802Q86.175 280.0824 86.65938 280.0824Q87.12813 280.0824 87.53438 279.84802Q87.95625 279.59802 88.12813 279.17615Q88.31563 278.75427 88.31563 277.9574L88.31563 274.62927L89.3625 274.62927L89.3625 280.84802L88.425 280.84802ZM95.40938 280.0824Q94.81563 280.5824 94.26875 280.78552Q93.7375 280.98865 93.1125 280.98865Q92.08125 280.98865 91.53438 280.48865Q90.9875 279.98865 90.9875 279.2074Q90.9875 278.75427 91.19063 278.37927Q91.39375 277.98865 91.7375 277.7699Q92.08125 277.53552 92.50313 277.42615Q92.8 277.3324 93.44063 277.25427Q94.70625 277.11365 95.31563 276.8949Q95.31563 276.67615 95.31563 276.62927Q95.31563 275.97302 95.01875 275.7074Q94.6125 275.36365 93.81563 275.36365Q93.08125 275.36365 92.72188 275.62927Q92.3625 275.87927 92.19063 276.53552L91.15938 276.3949Q91.3 275.73865 91.62813 275.3324Q91.95625 274.92615 92.56563 274.7074Q93.175 274.48865 93.97188 274.48865Q94.76875 274.48865 95.26875 274.67615Q95.76875 274.86365 96.00313 275.1449Q96.2375 275.42615 96.33125 275.86365Q96.37813 276.12927 96.37813 276.8324L96.37813 278.23865Q96.37813 279.7074 96.44063 280.09802Q96.51875 280.48865 96.72188 280.84802L95.6125 280.84802Q95.45625 280.5199 95.40938 280.0824ZM95.31563 277.72302Q94.7375 277.9574 93.59688 278.12927Q92.94063 278.22302 92.675 278.34802Q92.40938 278.4574 92.25313 278.67615Q92.1125 278.8949 92.1125 279.17615Q92.1125 279.59802 92.425 279.87927Q92.75313 280.16052 93.3625 280.16052Q93.97188 280.16052 94.44063 279.8949Q94.925 279.62927 95.14375 279.16052Q95.31563 278.80115 95.31563 278.11365L95.31563 277.72302ZM98.3 283.23865L98.175 282.25427Q98.51875 282.34802 98.78438 282.34802Q99.12813 282.34802 99.33125 282.22302Q99.55 282.11365 99.69063 281.91052Q99.78438 281.73865 100.01875 281.11365Q100.03438 281.03552 100.1125 280.86365L97.7375 274.62927L98.87813 274.62927L100.175 278.22302Q100.425 278.91052 100.62813 279.67615Q100.81563 278.94177 101.06563 278.25427L102.39375 274.62927L103.44063 274.62927L101.08125 280.9574Q100.69063 281.97302 100.4875 282.36365Q100.20625 282.8949 99.83125 283.12927Q99.47188 283.37927 98.97188 283.37927Q98.675 283.37927 98.3 283.23865Z" fill-rule="nonzero"/><path fill="#000000" d="M91.55 313.21564Q91.55 311.6844 91.8625 310.7625Q92.175 309.825 92.78438 309.325Q93.40938 308.825 94.34688 308.825Q95.03438 308.825 95.55 309.10626Q96.08125 309.3875 96.425 309.91876Q96.76875 310.4344 96.95625 311.1844Q97.14375 311.9344 97.14375 313.21564Q97.14375 314.73126 96.83125 315.65314Q96.53438 316.575 95.90938 317.09064Q95.3 317.59064 94.34688 317.59064Q93.1125 317.59064 92.39375 316.7Q91.55 315.6375 91.55 313.21564ZM92.62813 313.21564Q92.62813 315.325 93.12813 316.02814Q93.62813 316.73126 94.34688 316.73126Q95.08125 316.73126 95.56563 316.02814Q96.06563 315.325 96.06563 313.21564Q96.06563 311.09064 95.56563 310.40314Q95.08125 309.7 94.33125 309.7Q93.6125 309.7 93.175 310.3094Q92.62813 311.09064 92.62813 313.21564ZM99.14375 317.45L99.14375 316.2469L100.34688 316.2469L100.34688 317.45L99.14375 317.45ZM101.55 313.21564Q101.55 311.6844 101.8625 310.7625Q102.175 309.825 102.78438 309.325Q103.40938 308.825 104.34688 308.825Q105.03438 308.825 105.55 309.10626Q106.08125 309.3875 106.425 309.91876Q106.76875 310.4344 106.95625 311.1844Q107.14375 311.9344 107.14375 313.21564Q107.14375 314.73126 106.83125 315.65314Q106.53438 316.575 105.90938 317.09064Q105.3 317.59064 104.34688 317.59064Q103.1125 317.59064 102.39375 316.7Q101.55 315.6375 101.55 313.21564ZM102.62813 313.21564Q102.62813 315.325 103.12813 316.02814Q103.62813 316.73126 104.34688 316.73126Q105.08125 316.73126 105.56563 316.02814Q106.06563 315.325 106.06563 313.21564Q106.06563 311.09064 105.56563 310.40314Q105.08125 309.7 104.33125 309.7Q103.6125 309.7 103.175 310.3094Q102.62813 311.09064 102.62813 313.21564ZM108.55 313.21564Q108.55 311.6844 108.8625 310.7625Q109.175 309.825 109.78438 309.325Q110.40938 308.825 111.34688 308.825Q112.03438 308.825 112.55 309.10626Q113.08125 309.3875 113.425 309.91876Q113.76875 310.4344 113.95625 311.1844Q114.14375 311.9344 114.14375 313.21564Q114.14375 314.73126 113.83125 315.65314Q113.53438 316.575 112.90938 317.09064Q112.3 317.59064 111.34688 317.59064Q110.1125 317.59064 109.39375 316.7Q108.55 315.6375 108.55 313.21564ZM109.62813 313.21564Q109.62813 315.325 110.12813 316.02814Q110.62813 316.73126 111.34688 316.73126Q112.08125 316.73126 112.56563 316.02814Q113.06563 315.325 113.06563 313.21564Q113.06563 311.09064 112.56563 310.40314Q112.08125 309.7 111.33125 309.7Q110.6125 309.7 110.175 310.3094Q109.62813 311.09064 109.62813 313.21564ZM115.75313 310.91876Q115.75313 309.9969 116.20625 309.35626Q116.675 308.71564 117.55 308.71564Q118.3625 308.71564 118.89375 309.29376Q119.425 309.8719 119.425 310.98126Q119.425 312.075 118.87813 312.66876Q118.34688 313.2469 117.56563 313.2469Q116.78438 313.2469 116.26875 312.66876Q115.75313 312.09064 115.75313 310.91876ZM117.58125 309.4344Q117.19063 309.4344 116.925 309.77814Q116.675 310.1219 116.675 311.02814Q116.675 311.85626 116.925 312.2Q117.19063 312.52814 117.58125 312.52814Q117.9875 312.52814 118.2375 312.1844Q118.50313 311.84064 118.50313 310.95Q118.50313 310.10626 118.2375 309.77814Q117.97188 309.4344 117.58125 309.4344ZM117.58125 317.7625L122.28438 308.71564L123.14375 308.71564L118.45625 317.7625L117.58125 317.7625ZM121.3 315.4344Q121.3 314.5125 121.75313 313.8719Q122.22188 313.23126 123.1125 313.23126Q123.925 313.23126 124.45625 313.8094Q124.9875 314.3719 124.9875 315.4969Q124.9875 316.59064 124.44063 317.1844Q123.90938 317.7625 123.1125 317.7625Q122.34688 317.7625 121.81563 317.1844Q121.3 316.60626 121.3 315.4344ZM123.14375 313.95Q122.7375 313.95 122.47188 314.29376Q122.22188 314.6375 122.22188 315.54376Q122.22188 316.35626 122.4875 316.7Q122.75313 317.04376 123.14375 317.04376Q123.53438 317.04376 123.8 316.7Q124.06563 316.35626 124.06563 315.45Q124.06563 314.6219 123.8 314.29376Q123.53438 313.95 123.14375 313.95Z" fill-rule="nonzero"/><path fill="#000000" d="M213.74374 317.45L212.69687 317.45L212.69687 310.73126Q212.30624 311.09064 211.68124 311.46564Q211.07187 311.825 210.5875 311.9969L210.5875 310.98126Q211.4625 310.5594 212.11874 309.98126Q212.79062 309.3875 213.07187 308.825L213.74374 308.825L213.74374 317.45ZM217.36874 317.45L217.36874 316.2469L218.57187 316.2469L218.57187 317.45L217.36874 317.45ZM219.775 313.21564Q219.775 311.6844 220.0875 310.7625Q220.4 309.825 221.00937 309.325Q221.63437 308.825 222.57187 308.825Q223.25937 308.825 223.775 309.10626Q224.30624 309.3875 224.65 309.91876Q224.99374 310.4344 225.18124 311.1844Q225.36874 311.9344 225.36874 313.21564Q225.36874 314.73126 225.05624 315.65314Q224.75937 316.575 224.13437 317.09064Q223.525 317.59064 222.57187 317.59064Q221.3375 317.59064 220.61874 316.7Q219.775 315.6375 219.775 313.21564ZM220.85312 313.21564Q220.85312 315.325 221.35312 316.02814Q221.85312 316.73126 222.57187 316.73126Q223.30624 316.73126 223.79062 316.02814Q224.29062 315.325 224.29062 313.21564Q224.29062 311.09064 223.79062 310.40314Q223.30624 309.7 222.55624 309.7Q221.8375 309.7 221.4 310.3094Q220.85312 311.09064 220.85312 313.21564ZM226.775 313.21564Q226.775 311.6844 227.0875 310.7625Q227.4 309.825 228.00937 309.325Q228.63437 308.825 229.57187 308.825Q230.25937 308.825 230.775 309.10626Q231.30624 309.3875 231.65 309.91876Q231.99374 310.4344 232.18124 311.1844Q232.36874 311.9344 232.36874 313.21564Q232.36874 314.73126 232.05624 315.65314Q231.75937 316.575 231.13437 317.09064Q230.525 317.59064 229.57187 317.59064Q228.3375 317.59064 227.61874 316.7Q226.775 315.6375 226.775 313.21564ZM227.85312 313.21564Q227.85312 315.325 228.35312 316.02814Q228.85312 316.73126 229.57187 316.73126Q230.30624 316.73126 230.79062 316.02814Q231.29062 315.325 231.29062 313.21564Q231.29062 311.09064 230.79062 310.40314Q230.30624 309.7 229.55624 309.7Q228.8375 309.7 228.4 310.3094Q227.85312 311.09064 227.85312 313.21564ZM233.97812 310.91876Q233.97812 309.9969 234.43124 309.35626Q234.9 308.71564 235.775 308.71564Q236.5875 308.71564 237.11874 309.29376Q237.65 309.8719 237.65 310.98126Q237.65 312.075 237.10312 312.66876Q236.57187 313.2469 235.79062 313.2469Q235.00937 313.2469 234.49374 312.66876Q233.97812 312.09064 233.97812 310.91876ZM235.80624 309.4344Q235.41562 309.4344 235.15 309.77814Q234.9 310.1219 234.9 311.02814Q234.9 311.85626 235.15 312.2Q235.41562 312.52814 235.80624 312.52814Q236.2125 312.52814 236.4625 312.1844Q236.72812 311.84064 236.72812 310.95Q236.72812 310.10626 236.4625 309.77814Q236.19687 309.4344 235.80624 309.4344ZM235.80624 317.7625L240.50937 308.71564L241.36874 308.71564L236.68124 317.7625L235.80624 317.7625ZM239.525 315.4344Q239.525 314.5125 239.97812 313.8719Q240.44687 313.23126 241.3375 313.23126Q242.15 313.23126 242.68124 313.8094Q243.2125 314.3719 243.2125 315.4969Q243.2125 316.59064 242.66562 317.1844Q242.13437 317.7625 241.3375 317.7625Q240.57187 317.7625 240.04062 317.1844Q239.525 316.60626 239.525 315.4344ZM241.36874 313.95Q240.9625 313.95 240.69687 314.29376Q240.44687 314.6375 240.44687 315.54376Q240.44687 316.35626 240.7125 316.7Q240.97812 317.04376 241.36874 317.04376Q241.75937 317.04376 242.025 316.7Q242.29062 316.35626 242.29062 315.45Q242.29062 314.6219 242.025 314.29376Q241.75937 313.95 241.36874 313.95Z" fill-rule="nonzero"/><path fill="#000000" d="M333.54688 316.4344L333.54688 317.45L327.85938 317.45Q327.85938 317.075 327.98438 316.71564Q328.20312 316.1375 328.67188 315.575Q329.15625 315.0125 330.0625 314.27814Q331.46875 313.1219 331.95312 312.45Q332.45312 311.77814 332.45312 311.1844Q332.45312 310.5594 332.0 310.1375Q331.54688 309.7 330.82812 309.7Q330.0625 309.7 329.60938 310.15314Q329.15625 310.60626 329.14062 311.41876L328.0625 311.3094Q328.17188 310.09064 328.89062 309.46564Q329.625 308.825 330.85938 308.825Q332.09375 308.825 332.8125 309.5125Q333.53125 310.2 333.53125 311.21564Q333.53125 311.73126 333.3125 312.23126Q333.10938 312.71564 332.60938 313.27814Q332.125 313.825 331.0 314.77814Q330.04688 315.575 329.76562 315.8719Q329.5 316.15314 329.32812 316.4344L333.54688 316.4344ZM335.59375 317.45L335.59375 316.2469L336.79688 316.2469L336.79688 317.45L335.59375 317.45ZM338.0 313.21564Q338.0 311.6844 338.3125 310.7625Q338.625 309.825 339.23438 309.325Q339.85938 308.825 340.79688 308.825Q341.48438 308.825 342.0 309.10626Q342.53125 309.3875 342.875 309.91876Q343.21875 310.4344 343.40625 311.1844Q343.59375 311.9344 343.59375 313.21564Q343.59375 314.73126 343.28125 315.65314Q342.98438 316.575 342.35938 317.09064Q341.75 317.59064 340.79688 317.59064Q339.5625 317.59064 338.84375 316.7Q338.0 315.6375 338.0 313.21564ZM339.07812 313.21564Q339.07812 315.325 339.57812 316.02814Q340.07812 316.73126 340.79688 316.73126Q341.53125 316.73126 342.01562 316.02814Q342.51562 315.325 342.51562 313.21564Q342.51562 311.09064 342.01562 310.40314Q341.53125 309.7 340.78125 309.7Q340.0625 309.7 339.625 310.3094Q339.07812 311.09064 339.07812 313.21564ZM345.0 313.21564Q345.0 311.6844 345.3125 310.7625Q345.625 309.825 346.23438 309.325Q346.85938 308.825 347.79688 308.825Q348.48438 308.825 349.0 309.10626Q349.53125 309.3875 349.875 309.91876Q350.21875 310.4344 350.40625 311.1844Q350.59375 311.9344 350.59375 313.21564Q350.59375 314.73126 350.28125 315.65314Q349.98438 316.575 349.35938 317.09064Q348.75 317.59064 347.79688 317.59064Q346.5625 317.59064 345.84375 316.7Q345.0 315.6375 345.0 313.21564ZM346.07812 313.21564Q346.07812 315.325 346.57812 316.02814Q347.07812 316.73126 347.79688 316.73126Q348.53125 316.73126 349.01562 316.02814Q349.51562 315.325 349.51562 313.21564Q349.51562 311.09064 349.01562 310.40314Q348.53125 309.7 347.78125 309.7Q347.0625 309.7 346.625 310.3094Q346.07812 311.09064 346.07812 313.21564ZM352.20312 310.91876Q352.20312 309.9969 352.65625 309.35626Q353.125 308.71564 354.0 308.71564Q354.8125 308.71564 355.34375 309.29376Q355.875 309.8719 355.875 310.98126Q355.875 312.075 355.32812 312.66876Q354.79688 313.2469 354.01562 313.2469Q353.23438 313.2469 352.71875 312.66876Q352.20312 312.09064 352.20312 310.91876ZM354.03125 309.4344Q353.64062 309.4344 353.375 309.77814Q353.125 310.1219 353.125 311.02814Q353.125 311.85626 353.375 312.2Q353.64062 312.52814 354.03125 312.52814Q354.4375 312.52814 354.6875 312.1844Q354.95312 311.84064 354.95312 310.95Q354.95312 310.10626 354.6875 309.77814Q354.42188 309.4344 354.03125 309.4344ZM354.03125 317.7625L358.73438 308.71564L359.59375 308.71564L354.90625 317.7625L354.03125 317.7625ZM357.75 315.4344Q357.75 314.5125 358.20312 313.8719Q358.67188 313.23126 359.5625 313.23126Q360.375 313.23126 360.90625 313.8094Q361.4375 314.3719 361.4375 315.4969Q361.4375 316.59064 360.89062 317.1844Q360.35938 317.7625 359.5625 317.7625Q358.79688 317.7625 358.26562 317.1844Q357.75 316.60626 357.75 315.4344ZM359.59375 313.95Q359.1875 313.95 358.92188 314.29376Q358.67188 314.6375 358.67188 315.54376Q358.67188 316.35626 358.9375 316.7Q359.20312 317.04376 359.59375 317.04376Q359.98438 317.04376 360.25 316.7Q360.51562 316.35626 360.51562 315.45Q360.51562 314.6219 360.25 314.29376Q359.98438 313.95 359.59375 313.95Z" fill-rule="nonzero"/><path fill="#000000" d="M446.225 315.1844L447.2875 315.04376Q447.45938 315.9344 447.89688 316.34064Q448.33438 316.73126 448.95938 316.73126Q449.70938 316.73126 450.225 316.21564Q450.74063 315.7 450.74063 314.9344Q450.74063 314.21564 450.25626 313.7469Q449.7875 313.2625 449.05313 313.2625Q448.75626 313.2625 448.30313 313.3875L448.42813 312.45Q448.5375 312.46564 448.6 312.46564Q449.27188 312.46564 449.80313 312.1219Q450.35 311.7625 450.35 311.02814Q450.35 310.45 449.95938 310.075Q449.56876 309.6844 448.94376 309.6844Q448.33438 309.6844 447.9125 310.075Q447.50626 310.46564 447.39688 311.23126L446.33438 311.04376Q446.52188 309.9969 447.20938 309.41876Q447.89688 308.825 448.9125 308.825Q449.61563 308.825 450.20938 309.1375Q450.80313 309.4344 451.11563 309.95Q451.42813 310.46564 451.42813 311.0594Q451.42813 311.60626 451.13126 312.075Q450.83438 312.52814 450.25626 312.79376Q451.00626 312.96564 451.42813 313.52814Q451.85 314.075 451.85 314.91876Q451.85 316.04376 451.02188 316.825Q450.20938 317.60626 448.95938 317.60626Q447.83438 317.60626 447.08438 316.9344Q446.33438 316.2469 446.225 315.1844ZM453.81876 317.45L453.81876 316.2469L455.02188 316.2469L455.02188 317.45L453.81876 317.45ZM456.225 313.21564Q456.225 311.6844 456.5375 310.7625Q456.85 309.825 457.45938 309.325Q458.08438 308.825 459.02188 308.825Q459.70938 308.825 460.225 309.10626Q460.75626 309.3875 461.1 309.91876Q461.44376 310.4344 461.63126 311.1844Q461.81876 311.9344 461.81876 313.21564Q461.81876 314.73126 461.50626 315.65314Q461.20938 316.575 460.58438 317.09064Q459.975 317.59064 459.02188 317.59064Q457.7875 317.59064 457.06876 316.7Q456.225 315.6375 456.225 313.21564ZM457.30313 313.21564Q457.30313 315.325 457.80313 316.02814Q458.30313 316.73126 459.02188 316.73126Q459.75626 316.73126 460.24063 316.02814Q460.74063 315.325 460.74063 313.21564Q460.74063 311.09064 460.24063 310.40314Q459.75626 309.7 459.00626 309.7Q458.2875 309.7 457.85 310.3094Q457.30313 311.09064 457.30313 313.21564ZM463.225 313.21564Q463.225 311.6844 463.5375 310.7625Q463.85 309.825 464.45938 309.325Q465.08438 308.825 466.02188 308.825Q466.70938 308.825 467.225 309.10626Q467.75626 309.3875 468.1 309.91876Q468.44376 310.4344 468.63126 311.1844Q468.81876 311.9344 468.81876 313.21564Q468.81876 314.73126 468.50626 315.65314Q468.20938 316.575 467.58438 317.09064Q466.975 317.59064 466.02188 317.59064Q464.7875 317.59064 464.06876 316.7Q463.225 315.6375 463.225 313.21564ZM464.30313 313.21564Q464.30313 315.325 464.80313 316.02814Q465.30313 316.73126 466.02188 316.73126Q466.75626 316.73126 467.24063 316.02814Q467.74063 315.325 467.74063 313.21564Q467.74063 311.09064 467.24063 310.40314Q466.75626 309.7 466.00626 309.7Q465.2875 309.7 464.85 310.3094Q464.30313 311.09064 464.30313 313.21564ZM470.42813 310.91876Q470.42813 309.9969 470.88126 309.35626Q471.35 308.71564 472.225 308.71564Q473.0375 308.71564 473.56876 309.29376Q474.1 309.8719 474.1 310.98126Q474.1 312.075 473.55313 312.66876Q473.02188 313.2469 472.24063 313.2469Q471.45938 313.2469 470.94376 312.66876Q470.42813 312.09064 470.42813 310.91876ZM472.25626 309.4344Q471.86563 309.4344 471.6 309.77814Q471.35 310.1219 471.35 311.02814Q471.35 311.85626 471.6 312.2Q471.86563 312.52814 472.25626 312.52814Q472.6625 312.52814 472.9125 312.1844Q473.17813 311.84064 473.17813 310.95Q473.17813 310.10626 472.9125 309.77814Q472.64688 309.4344 472.25626 309.4344ZM472.25626 317.7625L476.95938 308.71564L477.81876 308.71564L473.13126 317.7625L472.25626 317.7625ZM475.975 315.4344Q475.975 314.5125 476.42813 313.8719Q476.89688 313.23126 477.7875 313.23126Q478.6 313.23126 479.13126 313.8094Q479.6625 314.3719 479.6625 315.4969Q479.6625 316.59064 479.11563 317.1844Q478.58438 317.7625 477.7875 317.7625Q477.02188 317.7625 476.49063 317.1844Q475.975 316.60626 475.975 315.4344ZM477.81876 313.95Q477.4125 313.95 477.14688 314.29376Q476.89688 314.6375 476.89688 315.54376Q476.89688 316.35626 477.1625 316.7Q477.42813 317.04376 477.81876 317.04376Q478.20938 317.04376 478.475 316.7Q478.74063 316.35626 478.74063 315.45Q478.74063 314.6219 478.475 314.29376Q478.20938 313.95 477.81876 313.95Z" fill-rule="nonzero"/><path fill="#000000" d="M567.825 317.45L567.825 315.3875L564.10626 315.3875L564.10626 314.41876L568.02814 308.85626L568.8875 308.85626L568.8875 314.41876L570.04376 314.41876L570.04376 315.3875L568.8875 315.3875L568.8875 317.45L567.825 317.45ZM567.825 314.41876L567.825 310.5594L565.1375 314.41876L567.825 314.41876ZM572.04376 317.45L572.04376 316.2469L573.2469 316.2469L573.2469 317.45L572.04376 317.45ZM574.45 313.21564Q574.45 311.6844 574.7625 310.7625Q575.075 309.825 575.6844 309.325Q576.3094 308.825 577.2469 308.825Q577.9344 308.825 578.45 309.10626Q578.98126 309.3875 579.325 309.91876Q579.66876 310.4344 579.85626 311.1844Q580.04376 311.9344 580.04376 313.21564Q580.04376 314.73126 579.73126 315.65314Q579.4344 316.575 578.8094 317.09064Q578.2 317.59064 577.2469 317.59064Q576.0125 317.59064 575.29376 316.7Q574.45 315.6375 574.45 313.21564ZM575.52814 313.21564Q575.52814 315.325 576.02814 316.02814Q576.52814 316.73126 577.2469 316.73126Q577.98126 316.73126 578.46564 316.02814Q578.96564 315.325 578.96564 313.21564Q578.96564 311.09064 578.46564 310.40314Q577.98126 309.7 577.23126 309.7Q576.5125 309.7 576.075 310.3094Q575.52814 311.09064 575.52814 313.21564ZM581.45 313.21564Q581.45 311.6844 581.7625 310.7625Q582.075 309.825 582.6844 309.325Q583.3094 308.825 584.2469 308.825Q584.9344 308.825 585.45 309.10626Q585.98126 309.3875 586.325 309.91876Q586.66876 310.4344 586.85626 311.1844Q587.04376 311.9344 587.04376 313.21564Q587.04376 314.73126 586.73126 315.65314Q586.4344 316.575 585.8094 317.09064Q585.2 317.59064 584.2469 317.59064Q583.0125 317.59064 582.29376 316.7Q581.45 315.6375 581.45 313.21564ZM582.52814 313.21564Q582.52814 315.325 583.02814 316.02814Q583.52814 316.73126 584.2469 316.73126Q584.98126 316.73126 585.46564 316.02814Q585.96564 315.325 585.96564 313.21564Q585.96564 311.09064 585.46564 310.40314Q584.98126 309.7 584.23126 309.7Q583.5125 309.7 583.075 310.3094Q582.52814 311.09064 582.52814 313.21564ZM588.65314 310.91876Q588.65314 309.9969 589.10626 309.35626Q589.575 308.71564 590.45 308.71564Q591.2625 308.71564 591.79376 309.29376Q592.325 309.8719 592.325 310.98126Q592.325 312.075 591.77814 312.66876Q591.2469 313.2469 590.46564 313.2469Q589.6844 313.2469 589.16876 312.66876Q588.65314 312.09064 588.65314 310.91876ZM590.48126 309.4344Q590.09064 309.4344 589.825 309.77814Q589.575 310.1219 589.575 311.02814Q589.575 311.85626 589.825 312.2Q590.09064 312.52814 590.48126 312.52814Q590.8875 312.52814 591.1375 312.1844Q591.40314 311.84064 591.40314 310.95Q591.40314 310.10626 591.1375 309.77814Q590.8719 309.4344 590.48126 309.4344ZM590.48126 317.7625L595.1844 308.71564L596.04376 308.71564L591.35626 317.7625L590.48126 317.7625ZM594.2 315.4344Q594.2 314.5125 594.65314 313.8719Q595.1219 313.23126 596.0125 313.23126Q596.825 313.23126 597.35626 313.8094Q597.8875 314.3719 597.8875 315.4969Q597.8875 316.59064 597.34064 317.1844Q596.8094 317.7625 596.0125 317.7625Q595.2469 317.7625 594.71564 317.1844Q594.2 316.60626 594.2 315.4344ZM596.04376 313.95Q595.6375 313.95 595.3719 314.29376Q595.1219 314.6375 595.1219 315.54376Q595.1219 316.35626 595.3875 316.7Q595.65314 317.04376 596.04376 317.04376Q596.4344 317.04376 596.7 316.7Q596.96564 316.35626 596.96564 315.45Q596.96564 314.6219 596.7 314.29376Q596.4344 313.95 596.04376 313.95Z" fill-rule="nonzero"/><path fill="#999999" d="M26.784374 59.534374L28.1125 59.878124Q27.690624 61.503124 26.596874 62.3625Q25.51875 63.221874 23.95625 63.221874Q22.33125 63.221874 21.315624 62.565624Q20.3 61.89375 19.76875 60.64375Q19.253124 59.39375 19.253124 57.95625Q19.253124 56.39375 19.846874 55.2375Q20.440624 54.065624 21.55 53.471874Q22.659374 52.8625 23.971874 52.8625Q25.4875 52.8625 26.503124 53.628124Q27.534374 54.39375 27.940624 55.76875L26.628124 56.08125Q26.284374 54.9875 25.6125 54.4875Q24.95625 53.9875 23.95625 53.9875Q22.8 53.9875 22.01875 54.55Q21.2375 55.096874 20.925 56.034374Q20.6125 56.971874 20.6125 57.95625Q20.6125 59.2375 20.9875 60.190624Q21.3625 61.14375 22.14375 61.6125Q22.925 62.08125 23.846874 62.08125Q24.95625 62.08125 25.721874 61.440624Q26.503124 60.8 26.784374 59.534374ZM34.20625 62.159374Q33.534374 62.7375 32.89375 62.9875Q32.26875 63.221874 31.534374 63.221874Q30.346874 63.221874 29.690624 62.64375Q29.05 62.05 29.05 61.128124Q29.05 60.596874 29.284374 60.159374Q29.534374 59.721874 29.925 59.45625Q30.33125 59.190624 30.815624 59.05Q31.175 58.95625 31.909374 58.8625Q33.409374 58.690624 34.1125 58.440624Q34.1125 58.190624 34.1125 58.128124Q34.1125 57.3625 33.76875 57.065624Q33.3 56.64375 32.3625 56.64375Q31.503124 56.64375 31.08125 56.95625Q30.675 57.253124 30.471874 58.01875L29.26875 57.8625Q29.425 57.08125 29.8 56.6125Q30.190624 56.14375 30.89375 55.89375Q31.6125 55.628124 32.55 55.628124Q33.471874 55.628124 34.05 55.846874Q34.628124 56.065624 34.89375 56.39375Q35.175 56.721874 35.284374 57.2375Q35.346874 57.55 35.346874 58.3625L35.346874 60.003124Q35.346874 61.721874 35.425 62.175Q35.503124 62.628124 35.7375 63.05L34.45625 63.05Q34.26875 62.659374 34.20625 62.159374ZM34.1125 59.409374Q33.440624 59.675 32.096874 59.878124Q31.346874 59.9875 31.01875 60.128124Q30.70625 60.253124 30.534374 60.51875Q30.3625 60.784374 30.3625 61.096874Q30.3625 61.596874 30.7375 61.925Q31.1125 62.253124 31.83125 62.253124Q32.55 62.253124 33.096874 61.940624Q33.64375 61.628124 33.909374 61.08125Q34.1125 60.675 34.1125 59.8625L34.1125 59.409374ZM37.440624 63.05L37.440624 53.034374L38.675 53.034374L38.675 63.05L37.440624 63.05ZM45.20625 60.39375L46.425 60.55Q46.221874 61.8 45.39375 62.51875Q44.58125 63.221874 43.39375 63.221874Q41.909374 63.221874 41.003124 62.253124Q40.096874 61.26875 40.096874 59.440624Q40.096874 58.26875 40.4875 57.39375Q40.878124 56.503124 41.675 56.065624Q42.471874 55.628124 43.409374 55.628124Q44.58125 55.628124 45.33125 56.221874Q46.096874 56.815624 46.3 57.925L45.1125 58.1125Q44.940624 57.378124 44.503124 57.01875Q44.065624 56.64375 43.45625 56.64375Q42.51875 56.64375 41.940624 57.315624Q41.3625 57.971874 41.3625 59.409374Q41.3625 60.878124 41.925 61.55Q42.4875 62.20625 43.378124 62.20625Q44.1125 62.20625 44.596874 61.76875Q45.08125 61.315624 45.20625 60.39375ZM52.2375 63.05L52.2375 61.9875Q51.378124 63.221874 49.925 63.221874Q49.284374 63.221874 48.721874 62.971874Q48.175 62.721874 47.89375 62.346874Q47.628124 61.971874 47.51875 61.440624Q47.440624 61.08125 47.440624 60.284374L47.440624 55.784374L48.675 55.784374L48.675 59.815624Q48.675 60.784374 48.753124 61.1125Q48.8625 61.596874 49.2375 61.878124Q49.6125 62.159374 50.175 62.159374Q50.721874 62.159374 51.20625 61.878124Q51.690624 61.58125 51.89375 61.096874Q52.096874 60.6125 52.096874 59.675L52.096874 55.784374L53.33125 55.784374L53.33125 63.05L52.2375 63.05ZM55.440624 63.05L55.440624 53.034374L56.675 53.034374L56.675 63.05L55.440624 63.05ZM63.20625 62.159374Q62.534374 62.7375 61.89375 62.9875Q61.26875 63.221874 60.534374 63.221874Q59.346874 63.221874 58.690624 62.64375Q58.05 62.05 58.05 61.128124Q58.05 60.596874 58.284374 60.159374Q58.534374 59.721874 58.925 59.45625Q59.33125 59.190624 59.815624 59.05Q60.175 58.95625 60.909374 58.8625Q62.409374 58.690624 63.1125 58.440624Q63.1125 58.190624 63.1125 58.128124Q63.1125 57.3625 62.76875 57.065624Q62.3 56.64375 61.3625 56.64375Q60.503124 56.64375 60.08125 56.95625Q59.675 57.253124 59.471874 58.01875L58.26875 57.8625Q58.425 57.08125 58.8 56.6125Q59.190624 56.14375 59.89375 55.89375Q60.6125 55.628124 61.55 55.628124Q62.471874 55.628124 63.05 55.846874Q63.628124 56.065624 63.89375 56.39375Q64.175 56.721874 64.28438 57.2375Q64.34688 57.55 64.34688 58.3625L64.34688 60.003124Q64.34688 61.721874 64.425 62.175Q64.50313 62.628124 64.7375 63.05L63.45625 63.05Q63.26875 62.659374 63.20625 62.159374ZM63.1125 59.409374Q62.440624 59.675 61.096874 59.878124Q60.346874 59.9875 60.01875 60.128124Q59.70625 60.253124 59.534374 60.51875Q59.3625 60.784374 59.3625 61.096874Q59.3625 61.596874 59.7375 61.925Q60.1125 62.253124 60.83125 62.253124Q61.55 62.253124 62.096874 61.940624Q62.64375 61.628124 62.909374 61.08125Q63.1125 60.675 63.1125 59.8625L63.1125 59.409374ZM69.15938 61.95625L69.33125 63.034374Q68.81563 63.14375 68.40938 63.14375Q67.7375 63.14375 67.3625 62.940624Q67.00313 62.721874 66.84688 62.378124Q66.70625 62.034374 66.70625 60.925L66.70625 56.753124L65.8 56.753124L65.8 55.784374L66.70625 55.784374L66.70625 53.9875L67.925 53.253124L67.925 55.784374L69.15938 55.784374L69.15938 56.753124L67.925 56.753124L67.925 60.9875Q67.925 61.51875 67.9875 61.675Q68.05 61.815624 68.19063 61.909374Q68.34688 62.003124 68.6125 62.003124Q68.83125 62.003124 69.15938 61.95625ZM75.44063 60.70625L76.72188 60.8625Q76.40938 61.9875 75.59688 62.6125Q74.78438 63.221874 73.51875 63.221874Q71.925 63.221874 70.9875 62.2375Q70.06563 61.253124 70.06563 59.4875Q70.06563 57.64375 71.00313 56.64375Q71.95625 55.628124 73.45625 55.628124Q74.90938 55.628124 75.83125 56.628124Q76.75313 57.6125 76.75313 59.409374Q76.75313 59.51875 76.75313 59.7375L71.33125 59.7375Q71.40938 60.925 72.00313 61.565624Q72.6125 62.20625 73.53438 62.20625Q74.20625 62.20625 74.675 61.846874Q75.15938 61.4875 75.44063 60.70625ZM71.40938 58.721874L75.45625 58.721874Q75.37813 57.8 74.9875 57.346874Q74.40938 56.64375 73.47188 56.64375Q72.6125 56.64375 72.03438 57.20625Q71.47188 57.76875 71.40938 58.721874ZM83.19063 63.05L83.19063 62.128124Q82.4875 63.221874 81.15938 63.221874Q80.28438 63.221874 79.55 62.7375Q78.83125 62.253124 78.425 61.39375Q78.03438 60.534374 78.03438 59.425Q78.03438 58.346874 78.39375 57.45625Q78.75313 56.565624 79.47188 56.096874Q80.20625 55.628124 81.09688 55.628124Q81.75313 55.628124 82.26875 55.909374Q82.78438 56.175 83.09688 56.628124L83.09688 53.034374L84.33125 53.034374L84.33125 63.05L83.19063 63.05ZM79.3 59.425Q79.3 60.815624 79.87813 61.51875Q80.47188 62.20625 81.26875 62.20625Q82.08125 62.20625 82.64375 61.55Q83.20625 60.878124 83.20625 59.534374Q83.20625 58.034374 82.62813 57.346874Q82.05 56.64375 81.22188 56.64375Q80.39375 56.64375 79.84688 57.315624Q79.3 57.9875 79.3 59.425ZM91.6125 63.05L90.47188 63.05L90.47188 53.034374L91.69063 53.034374L91.69063 56.596874Q92.47188 55.628124 93.69063 55.628124Q94.3625 55.628124 94.95625 55.89375Q95.55 56.159374 95.94063 56.659374Q96.33125 57.14375 96.55 57.83125Q96.76875 58.51875 96.76875 59.315624Q96.76875 61.175 95.83125 62.20625Q94.90938 63.221874 93.62813 63.221874Q92.34688 63.221874 91.6125 62.14375L91.6125 63.05ZM91.59688 59.3625Q91.59688 60.675 91.95625 61.253124Q92.53438 62.20625 93.51875 62.20625Q94.33125 62.20625 94.90938 61.503124Q95.50313 60.8 95.50313 59.409374Q95.50313 57.9875 94.94063 57.315624Q94.37813 56.64375 93.58125 56.64375Q92.76875 56.64375 92.175 57.346874Q91.59688 58.034374 91.59688 59.3625ZM103.20625 62.159374Q102.53438 62.7375 101.89375 62.9875Q101.26875 63.221874 100.53438 63.221874Q99.34688 63.221874 98.69063 62.64375Q98.05 62.05 98.05 61.128124Q98.05 60.596874 98.28438 60.159374Q98.53438 59.721874 98.925 59.45625Q99.33125 59.190624 99.81563 59.05Q100.175 58.95625 100.90938 58.8625Q102.40938 58.690624 103.1125 58.440624Q103.1125 58.190624 103.1125 58.128124Q103.1125 57.3625 102.76875 57.065624Q102.3 56.64375 101.3625 56.64375Q100.50313 56.64375 100.08125 56.95625Q99.675 57.253124 99.47188 58.01875L98.26875 57.8625Q98.425 57.08125 98.8 56.6125Q99.19063 56.14375 99.89375 55.89375Q100.6125 55.628124 101.55 55.628124Q102.47188 55.628124 103.05 55.846874Q103.62813 56.065624 103.89375 56.39375Q104.175 56.721874 104.28438 57.2375Q104.34688 57.55 104.34688 58.3625L104.34688 60.003124Q104.34688 61.721874 104.425 62.175Q104.50313 62.628124 104.7375 63.05L103.45625 63.05Q103.26875 62.659374 103.20625 62.159374ZM103.1125 59.409374Q102.44063 59.675 101.09688 59.878124Q100.34688 59.9875 100.01875 60.128124Q99.70625 60.253124 99.53438 60.51875Q99.3625 60.784374 99.3625 61.096874Q99.3625 61.596874 99.7375 61.925Q100.1125 62.253124 100.83125 62.253124Q101.55 62.253124 102.09688 61.940624Q102.64375 61.628124 102.90938 61.08125Q103.1125 60.675 103.1125 59.8625L103.1125 59.409374ZM105.9875 60.878124L107.19063 60.690624Q107.3 61.425 107.76875 61.815624Q108.2375 62.20625 109.08125 62.20625Q109.925 62.20625 110.33125 61.8625Q110.75313 61.51875 110.75313 61.05Q110.75313 60.628124 110.37813 60.39375Q110.12813 60.221874 109.12813 59.971874Q107.76875 59.628124 107.2375 59.378124Q106.72188 59.128124 106.45625 58.690624Q106.19063 58.253124 106.19063 57.721874Q106.19063 57.2375 106.40938 56.83125Q106.62813 56.409374 107.01875 56.128124Q107.3 55.925 107.78438 55.784374Q108.28438 55.628124 108.8625 55.628124Q109.70625 55.628124 110.34688 55.878124Q111.00313 56.1125 111.31563 56.534374Q111.62813 56.95625 111.7375 57.659374L110.53438 57.83125Q110.45625 57.26875 110.05 56.95625Q109.65938 56.64375 108.94063 56.64375Q108.09688 56.64375 107.7375 56.925Q107.37813 57.190624 107.37813 57.58125Q107.37813 57.815624 107.51875 58.003124Q107.675 58.20625 108.00313 58.33125Q108.175 58.39375 109.08125 58.64375Q110.39375 59.003124 110.90938 59.221874Q111.425 59.440624 111.70625 59.8625Q112.00313 60.284374 112.00313 60.909374Q112.00313 61.534374 111.64375 62.08125Q111.3 62.6125 110.6125 62.925Q109.94063 63.221874 109.08125 63.221874Q107.675 63.221874 106.925 62.628124Q106.19063 62.034374 105.9875 60.878124ZM118.44063 60.70625L119.72188 60.8625Q119.40938 61.9875 118.59688 62.6125Q117.78438 63.221874 116.51875 63.221874Q114.925 63.221874 113.9875 62.2375Q113.06563 61.253124 113.06563 59.4875Q113.06563 57.64375 114.00313 56.64375Q114.95625 55.628124 116.45625 55.628124Q117.90938 55.628124 118.83125 56.628124Q119.75313 57.6125 119.75313 59.409374Q119.75313 59.51875 119.75313 59.7375L114.33125 59.7375Q114.40938 60.925 115.00313 61.565624Q115.6125 62.20625 116.53438 62.20625Q117.20625 62.20625 117.675 61.846874Q118.15938 61.4875 118.44063 60.70625ZM114.40938 58.721874L118.45625 58.721874Q118.37813 57.8 117.9875 57.346874Q117.40938 56.64375 116.47188 56.64375Q115.6125 56.64375 115.03438 57.20625Q114.47188 57.76875 114.40938 58.721874ZM126.19063 63.05L126.19063 62.128124Q125.4875 63.221874 124.15938 63.221874Q123.28438 63.221874 122.55 62.7375Q121.83125 62.253124 121.425 61.39375Q121.03438 60.534374 121.03438 59.425Q121.03438 58.346874 121.39375 57.45625Q121.75313 56.565624 122.47188 56.096874Q123.20625 55.628124 124.09688 55.628124Q124.75313 55.628124 125.26875 55.909374Q125.78438 56.175 126.09688 56.628124L126.09688 53.034374L127.33125 53.034374L127.33125 63.05L126.19063 63.05ZM122.3 59.425Q122.3 60.815624 122.87813 61.51875Q123.47188 62.20625 124.26875 62.20625Q125.08125 62.20625 125.64375 61.55Q126.20625 60.878124 126.20625 59.534374Q126.20625 58.034374 125.62813 57.346874Q125.05 56.64375 124.22188 56.64375Q123.39375 56.64375 122.84688 57.315624Q122.3 57.9875 122.3 59.425ZM133.01875 59.425Q133.01875 57.409374 134.14375 56.425Q135.06563 55.628124 136.425 55.628124Q137.90938 55.628124 138.8625 56.6125Q139.81563 57.58125 139.81563 59.315624Q139.81563 60.721874 139.39375 61.534374Q138.97188 62.33125 138.15938 62.784374Q137.3625 63.221874 136.425 63.221874Q134.89375 63.221874 133.95625 62.2375Q133.01875 61.253124 133.01875 59.425ZM134.28438 59.425Q134.28438 60.815624 134.89375 61.51875Q135.50313 62.20625 136.425 62.20625Q137.33125 62.20625 137.94063 61.503124Q138.55 60.8 138.55 59.378124Q138.55 58.034374 137.94063 57.346874Q137.33125 56.64375 136.425 56.64375Q135.50313 56.64375 134.89375 57.33125Q134.28438 58.01875 134.28438 59.425ZM141.47188 63.05L141.47188 55.784374L142.58125 55.784374L142.58125 56.815624Q143.37813 55.628124 144.89375 55.628124Q145.55 55.628124 146.09688 55.8625Q146.64375 56.096874 146.90938 56.4875Q147.19063 56.8625 147.3 57.39375Q147.37813 57.7375 147.37813 58.58125L147.37813 63.05L146.14375 63.05L146.14375 58.628124Q146.14375 57.878124 146.00313 57.51875Q145.8625 57.14375 145.4875 56.925Q145.12813 56.690624 144.62813 56.690624Q143.84688 56.690624 143.26875 57.190624Q142.70625 57.690624 142.70625 59.08125L142.70625 63.05L141.47188 63.05ZM158.31563 59.1125L158.31563 57.940624L162.56563 57.940624L162.56563 61.659374Q161.58125 62.440624 160.53438 62.83125Q159.50313 63.221874 158.40938 63.221874Q156.94063 63.221874 155.72188 62.596874Q154.51875 61.95625 153.90938 60.76875Q153.3 59.565624 153.3 58.08125Q153.3 56.628124 153.90938 55.3625Q154.51875 54.08125 155.65938 53.471874Q156.81563 52.8625 158.31563 52.8625Q159.39375 52.8625 160.26875 53.221874Q161.15938 53.565624 161.65938 54.190624Q162.15938 54.815624 162.40938 55.83125L161.22188 56.159374Q160.9875 55.39375 160.64375 54.95625Q160.31563 54.51875 159.69063 54.253124Q159.08125 53.9875 158.31563 53.9875Q157.40938 53.9875 156.7375 54.26875Q156.08125 54.55 155.675 55.003124Q155.26875 55.440624 155.05 55.9875Q154.65938 56.925 154.65938 58.003124Q154.65938 59.346874 155.1125 60.253124Q155.58125 61.14375 156.45625 61.58125Q157.34688 62.01875 158.34688 62.01875Q159.20625 62.01875 160.01875 61.690624Q160.84688 61.3625 161.26875 60.9875L161.26875 59.1125L158.31563 59.1125ZM164.45625 63.05L164.45625 55.784374L165.56563 55.784374L165.56563 56.89375Q165.9875 56.1125 166.34688 55.878124Q166.70625 55.628124 167.14375 55.628124Q167.76875 55.628124 168.40938 56.01875L167.9875 57.159374Q167.53438 56.89375 167.08125 56.89375Q166.675 56.89375 166.34688 57.14375Q166.03438 57.378124 165.89375 57.815624Q165.69063 58.471874 165.69063 59.253124L165.69063 63.05L164.45625 63.05ZM169.01875 59.425Q169.01875 57.409374 170.14375 56.425Q171.06563 55.628124 172.425 55.628124Q173.90938 55.628124 174.8625 56.6125Q175.81563 57.58125 175.81563 59.315624Q175.81563 60.721874 175.39375 61.534374Q174.97188 62.33125 174.15938 62.784374Q173.3625 63.221874 172.425 63.221874Q170.89375 63.221874 169.95625 62.2375Q169.01875 61.253124 169.01875 59.425ZM170.28438 59.425Q170.28438 60.815624 170.89375 61.51875Q171.50313 62.20625 172.425 62.20625Q173.33125 62.20625 173.94063 61.503124Q174.55 60.8 174.55 59.378124Q174.55 58.034374 173.94063 57.346874Q173.33125 56.64375 172.425 56.64375Q171.50313 56.64375 170.89375 57.33125Q170.28438 58.01875 170.28438 59.425ZM176.9875 60.878124L178.19063 60.690624Q178.3 61.425 178.76875 61.815624Q179.2375 62.20625 180.08125 62.20625Q180.925 62.20625 181.33125 61.8625Q181.75313 61.51875 181.75313 61.05Q181.75313 60.628124 181.37813 60.39375Q181.12813 60.221874 180.12813 59.971874Q178.76875 59.628124 178.2375 59.378124Q177.72188 59.128124 177.45625 58.690624Q177.19063 58.253124 177.19063 57.721874Q177.19063 57.2375 177.40938 56.83125Q177.62813 56.409374 178.01875 56.128124Q178.3 55.925 178.78438 55.784374Q179.28438 55.628124 179.8625 55.628124Q180.70625 55.628124 181.34688 55.878124Q182.00313 56.1125 182.31563 56.534374Q182.62813 56.95625 182.7375 57.659374L181.53438 57.83125Q181.45625 57.26875 181.05 56.95625Q180.65938 56.64375 179.94063 56.64375Q179.09688 56.64375 178.7375 56.925Q178.37813 57.190624 178.37813 57.58125Q178.37813 57.815624 178.51875 58.003124Q178.675 58.20625 179.00313 58.33125Q179.175 58.39375 180.08125 58.64375Q181.39375 59.003124 181.90938 59.221874Q182.425 59.440624 182.70625 59.8625Q183.00313 60.284374 183.00313 60.909374Q183.00313 61.534374 182.64375 62.08125Q182.3 62.6125 181.6125 62.925Q180.94063 63.221874 180.08125 63.221874Q178.675 63.221874 177.925 62.628124Q177.19063 62.034374 176.9875 60.878124ZM183.9875 60.878124L185.19063 60.690624Q185.3 61.425 185.76875 61.815624Q186.2375 62.20625 187.08125 62.20625Q187.925 62.20625 188.33125 61.8625Q188.75313 61.51875 188.75313 61.05Q188.75313 60.628124 188.37813 60.39375Q188.12813 60.221874 187.12813 59.971874Q185.76875 59.628124 185.2375 59.378124Q184.72188 59.128124 184.45625 58.690624Q184.19063 58.253124 184.19063 57.721874Q184.19063 57.2375 184.40938 56.83125Q184.62813 56.409374 185.01875 56.128124Q185.3 55.925 185.78438 55.784374Q186.28438 55.628124 186.8625 55.628124Q187.70625 55.628124 188.34688 55.878124Q189.00313 56.1125 189.31563 56.534374Q189.62813 56.95625 189.7375 57.659374L188.53438 57.83125Q188.45625 57.26875 188.05 56.95625Q187.65938 56.64375 186.94063 56.64375Q186.09688 56.64375 185.7375 56.925Q185.37813 57.190624 185.37813 57.58125Q185.37813 57.815624 185.51875 58.003124Q185.675 58.20625 186.00313 58.33125Q186.175 58.39375 187.08125 58.64375Q188.39375 59.003124 188.90938 59.221874Q189.425 59.440624 189.70625 59.8625Q190.00313 60.284374 190.00313 60.909374Q190.00313 61.534374 189.64375 62.08125Q189.3 62.6125 188.6125 62.925Q187.94063 63.221874 187.08125 63.221874Q185.675 63.221874 184.925 62.628124Q184.19063 62.034374 183.9875 60.878124ZM195.62813 63.05L195.62813 53.034374L199.08125 53.034374Q200.25313 53.034374 200.8625 53.175Q201.72188 53.3625 202.33125 53.89375Q203.12813 54.565624 203.51875 55.6125Q203.90938 56.64375 203.90938 57.9875Q203.90938 59.128124 203.64375 60.01875Q203.37813 60.89375 202.95625 61.471874Q202.55 62.05 202.05 62.378124Q201.55 62.70625 200.84688 62.878124Q200.15938 63.05 199.25313 63.05L195.62813 63.05ZM196.95625 61.8625L199.09688 61.8625Q200.08125 61.8625 200.64375 61.690624Q201.22188 61.503124 201.55 61.159374Q202.01875 60.690624 202.28438 59.89375Q202.55 59.096874 202.55 57.95625Q202.55 56.39375 202.03438 55.55Q201.51875 54.70625 200.78438 54.409374Q200.2375 54.20625 199.06563 54.20625L196.95625 54.20625L196.95625 61.8625ZM205.01875 59.425Q205.01875 57.409374 206.14375 56.425Q207.06563 55.628124 208.425 55.628124Q209.90938 55.628124 210.8625 56.6125Q211.81563 57.58125 211.81563 59.315624Q211.81563 60.721874 211.39375 61.534374Q210.97188 62.33125 210.15938 62.784374Q209.3625 63.221874 208.425 63.221874Q206.89375 63.221874 205.95625 62.2375Q205.01875 61.253124 205.01875 59.425ZM206.28438 59.425Q206.28438 60.815624 206.89375 61.51875Q207.50313 62.20625 208.425 62.20625Q209.33125 62.20625 209.94063 61.503124Q210.55 60.8 210.55 59.378124Q210.55 58.034374 209.94063 57.346874Q209.33125 56.64375 208.425 56.64375Q207.50313 56.64375 206.89375 57.33125Q206.28438 58.01875 206.28438 59.425ZM213.47188 63.05L213.47188 55.784374L214.58125 55.784374L214.58125 56.815624Q214.90938 56.26875 215.47188 55.95625Q216.05 55.628124 216.76875 55.628124Q217.58125 55.628124 218.09688 55.971874Q218.6125 56.3 218.83125 56.89375Q219.69063 55.628124 221.06563 55.628124Q222.14375 55.628124 222.72188 56.221874Q223.31563 56.815624 223.31563 58.065624L223.31563 63.05L222.08125 63.05L222.08125 58.471874Q222.08125 57.7375 221.95625 57.409374Q221.84688 57.08125 221.53438 56.89375Q221.22188 56.690624 220.8 56.690624Q220.03438 56.690624 219.51875 57.20625Q219.01875 57.70625 219.01875 58.83125L219.01875 63.05L217.78438 63.05L217.78438 58.33125Q217.78438 57.51875 217.4875 57.1125Q217.19063 56.690624 216.50313 56.690624Q215.9875 56.690624 215.53438 56.971874Q215.09688 57.2375 214.89375 57.76875Q214.70625 58.284374 214.70625 59.284374L214.70625 63.05L213.47188 63.05ZM229.44063 60.70625L230.72188 60.8625Q230.40938 61.9875 229.59688 62.6125Q228.78438 63.221874 227.51875 63.221874Q225.925 63.221874 224.9875 62.2375Q224.06563 61.253124 224.06563 59.4875Q224.06563 57.64375 225.00313 56.64375Q225.95625 55.628124 227.45625 55.628124Q228.90938 55.628124 229.83125 56.628124Q230.75313 57.6125 230.75313 59.409374Q230.75313 59.51875 230.75313 59.7375L225.33125 59.7375Q225.40938 60.925 226.00313 61.565624Q226.6125 62.20625 227.53438 62.20625Q228.20625 62.20625 228.675 61.846874Q229.15938 61.4875 229.44063 60.70625ZM225.40938 58.721874L229.45625 58.721874Q229.37813 57.8 228.9875 57.346874Q228.40938 56.64375 227.47188 56.64375Q226.6125 56.64375 226.03438 57.20625Q225.47188 57.76875 225.40938 58.721874ZM231.9875 60.878124L233.19063 60.690624Q233.3 61.425 233.76875 61.815624Q234.2375 62.20625 235.08125 62.20625Q235.925 62.20625 236.33125 61.8625Q236.75313 61.51875 236.75313 61.05Q236.75313 60.628124 236.37813 60.39375Q236.12813 60.221874 235.12813 59.971874Q233.76875 59.628124 233.2375 59.378124Q232.72188 59.128124 232.45625 58.690624Q232.19063 58.253124 232.19063 57.721874Q232.19063 57.2375 232.40938 56.83125Q232.62813 56.409374 233.01875 56.128124Q233.3 55.925 233.78438 55.784374Q234.28438 55.628124 234.8625 55.628124Q235.70625 55.628124 236.34688 55.878124Q237.00313 56.1125 237.31563 56.534374Q237.62813 56.95625 237.7375 57.659374L236.53438 57.83125Q236.45625 57.26875 236.05 56.95625Q235.65938 56.64375 234.94063 56.64375Q234.09688 56.64375 233.7375 56.925Q233.37813 57.190624 233.37813 57.58125Q233.37813 57.815624 233.51875 58.003124Q233.675 58.20625 234.00313 58.33125Q234.175 58.39375 235.08125 58.64375Q236.39375 59.003124 236.90938 59.221874Q237.425 59.440624 237.70625 59.8625Q238.00313 60.284374 238.00313 60.909374Q238.00313 61.534374 237.64375 62.08125Q237.3 62.6125 236.6125 62.925Q235.94063 63.221874 235.08125 63.221874Q233.675 63.221874 232.925 62.628124Q232.19063 62.034374 231.9875 60.878124ZM242.15938 61.95625L242.33125 63.034374Q241.81563 63.14375 241.40938 63.14375Q240.7375 63.14375 240.3625 62.940624Q240.00313 62.721874 239.84688 62.378124Q239.70625 62.034374 239.70625 60.925L239.70625 56.753124L238.8 56.753124L238.8 55.784374L239.70625 55.784374L239.70625 53.9875L240.925 53.253124L240.925 55.784374L242.15938 55.784374L242.15938 56.753124L240.925 56.753124L240.925 60.9875Q240.925 61.51875 240.9875 61.675Q241.05 61.815624 241.19063 61.909374Q241.34688 62.003124 241.6125 62.003124Q241.83125 62.003124 242.15938 61.95625ZM243.4875 54.440624L243.4875 53.034374L244.70625 53.034374L244.70625 54.440624L243.4875 54.440624ZM243.4875 63.05L243.4875 55.784374L244.70625 55.784374L244.70625 63.05L243.4875 63.05ZM251.20625 60.39375L252.425 60.55Q252.22188 61.8 251.39375 62.51875Q250.58125 63.221874 249.39375 63.221874Q247.90938 63.221874 247.00313 62.253124Q246.09688 61.26875 246.09688 59.440624Q246.09688 58.26875 246.4875 57.39375Q246.87813 56.503124 247.675 56.065624Q248.47188 55.628124 249.40938 55.628124Q250.58125 55.628124 251.33125 56.221874Q252.09688 56.815624 252.3 57.925L251.1125 58.1125Q250.94063 57.378124 250.50313 57.01875Q250.06563 56.64375 249.45625 56.64375Q248.51875 56.64375 247.94063 57.315624Q247.3625 57.971874 247.3625 59.409374Q247.3625 60.878124 247.925 61.55Q248.4875 62.20625 249.37813 62.20625Q250.1125 62.20625 250.59688 61.76875Q251.08125 61.315624 251.20625 60.39375ZM257.6281 63.05L257.6281 53.034374L261.40936 53.034374Q262.40936 53.034374 262.9406 53.128124Q263.675 53.253124 264.175 53.596874Q264.675 53.940624 264.97186 54.565624Q265.28436 55.175 265.28436 55.925Q265.28436 57.20625 264.47186 58.096874Q263.65936 58.971874 261.53436 58.971874L258.95624 58.971874L258.95624 63.05L257.6281 63.05ZM258.95624 57.8L261.55 57.8Q262.83124 57.8 263.3625 57.315624Q263.90936 56.83125 263.90936 55.971874Q263.90936 55.33125 263.59686 54.89375Q263.28436 54.440624 262.7531 54.3Q262.425 54.20625 261.51874 54.20625L258.95624 54.20625L258.95624 57.8ZM266.45624 63.05L266.45624 55.784374L267.5656 55.784374L267.5656 56.89375Q267.9875 56.1125 268.34686 55.878124Q268.70624 55.628124 269.14374 55.628124Q269.76874 55.628124 270.40936 56.01875L269.9875 57.159374Q269.53436 56.89375 269.08124 56.89375Q268.675 56.89375 268.34686 57.14375Q268.03436 57.378124 267.89374 57.815624Q267.6906 58.471874 267.6906 59.253124L267.6906 63.05L266.45624 63.05ZM271.01874 59.425Q271.01874 57.409374 272.14374 56.425Q273.0656 55.628124 274.425 55.628124Q275.90936 55.628124 276.8625 56.6125Q277.8156 57.58125 277.8156 59.315624Q277.8156 60.721874 277.39374 61.534374Q276.97186 62.33125 276.15936 62.784374Q275.3625 63.221874 274.425 63.221874Q272.89374 63.221874 271.95624 62.2375Q271.01874 61.253124 271.01874 59.425ZM272.28436 59.425Q272.28436 60.815624 272.89374 61.51875Q273.5031 62.20625 274.425 62.20625Q275.33124 62.20625 275.9406 61.503124Q276.55 60.8 276.55 59.378124Q276.55 58.034374 275.9406 57.346874Q275.33124 56.64375 274.425 56.64375Q273.5031 56.64375 272.89374 57.33125Q272.28436 58.01875 272.28436 59.425ZM284.1906 63.05L284.1906 62.128124Q283.4875 63.221874 282.15936 63.221874Q281.28436 63.221874 280.55 62.7375Q279.83124 62.253124 279.425 61.39375Q279.03436 60.534374 279.03436 59.425Q279.03436 58.346874 279.39374 57.45625Q279.7531 56.565624 280.47186 56.096874Q281.20624 55.628124 282.09686 55.628124Q282.7531 55.628124 283.26874 55.909374Q283.78436 56.175 284.09686 56.628124L284.09686 53.034374L285.33124 53.034374L285.33124 63.05L284.1906 63.05ZM280.3 59.425Q280.3 60.815624 280.8781 61.51875Q281.47186 62.20625 282.26874 62.20625Q283.08124 62.20625 283.64374 61.55Q284.20624 60.878124 284.20624 59.534374Q284.20624 58.034374 283.6281 57.346874Q283.05 56.64375 282.22186 56.64375Q281.39374 56.64375 280.84686 57.315624Q280.3 57.9875 280.3 59.425ZM292.2375 63.05L292.2375 61.9875Q291.3781 63.221874 289.925 63.221874Q289.28436 63.221874 288.72186 62.971874Q288.175 62.721874 287.89374 62.346874Q287.6281 61.971874 287.51874 61.440624Q287.4406 61.08125 287.4406 60.284374L287.4406 55.784374L288.675 55.784374L288.675 59.815624Q288.675 60.784374 288.7531 61.1125Q288.8625 61.596874 289.2375 61.878124Q289.6125 62.159374 290.175 62.159374Q290.72186 62.159374 291.20624 61.878124Q291.6906 61.58125 291.89374 61.096874Q292.09686 60.6125 292.09686 59.675L292.09686 55.784374L293.33124 55.784374L293.33124 63.05L292.2375 63.05ZM300.20624 60.39375L301.425 60.55Q301.22186 61.8 300.39374 62.51875Q299.58124 63.221874 298.39374 63.221874Q296.90936 63.221874 296.0031 62.253124Q295.09686 61.26875 295.09686 59.440624Q295.09686 58.26875 295.4875 57.39375Q295.8781 56.503124 296.675 56.065624Q297.47186 55.628124 298.40936 55.628124Q299.58124 55.628124 300.33124 56.221874Q301.09686 56.815624 301.3 57.925L300.1125 58.1125Q299.9406 57.378124 299.5031 57.01875Q299.0656 56.64375 298.45624 56.64375Q297.51874 56.64375 296.9406 57.315624Q296.3625 57.971874 296.3625 59.409374Q296.3625 60.878124 296.925 61.55Q297.4875 62.20625 298.3781 62.20625Q299.1125 62.20625 299.59686 61.76875Q300.08124 61.315624 300.20624 60.39375ZM305.15936 61.95625L305.33124 63.034374Q304.8156 63.14375 304.40936 63.14375Q303.7375 63.14375 303.3625 62.940624Q303.0031 62.721874 302.84686 62.378124Q302.70624 62.034374 302.70624 60.925L302.70624 56.753124L301.8 56.753124L301.8 55.784374L302.70624 55.784374L302.70624 53.9875L303.925 53.253124L303.925 55.784374L305.15936 55.784374L305.15936 56.753124L303.925 56.753124L303.925 60.9875Q303.925 61.51875 303.9875 61.675Q304.05 61.815624 304.1906 61.909374Q304.34686 62.003124 304.6125 62.003124Q304.83124 62.003124 305.15936 61.95625Z" fill-rule="nonzero"/><path fill="#757575" d="M19.128124 33.4875L20.83125 33.253124Q20.909374 34.89375 21.45625 35.503124Q22.003124 36.096874 22.971874 36.096874Q23.675 36.096874 24.190624 35.784374Q24.70625 35.45625 24.89375 34.89375Q25.096874 34.33125 25.096874 33.096874L25.096874 23.2375L27.003124 23.2375L27.003124 32.9875Q27.003124 34.784374 26.565624 35.76875Q26.128124 36.753124 25.175 37.284374Q24.2375 37.8 22.971874 37.8Q21.096874 37.8 20.08125 36.721874Q19.08125 35.628124 19.128124 33.4875ZM36.659374 37.55L36.659374 36.01875Q35.45625 37.784374 33.378124 37.784374Q32.45625 37.784374 31.659374 37.440624Q30.8625 37.08125 30.471874 36.55Q30.096874 36.01875 29.940624 35.2375Q29.83125 34.721874 29.83125 33.596874L29.83125 27.175L31.58125 27.175L31.58125 32.925Q31.58125 34.3 31.690624 34.784374Q31.8625 35.471874 32.39375 35.878124Q32.940624 36.26875 33.721874 36.26875Q34.51875 36.26875 35.20625 35.8625Q35.909374 35.45625 36.190624 34.76875Q36.4875 34.065624 36.4875 32.7375L36.4875 27.175L38.2375 27.175L38.2375 37.55L36.659374 37.55ZM46.596874 37.55L46.596874 36.2375Q45.6125 37.784374 43.690624 37.784374Q42.45625 37.784374 41.409374 37.096874Q40.378124 36.409374 39.8 35.190624Q39.2375 33.971874 39.2375 32.378124Q39.2375 30.815624 39.753124 29.55Q40.26875 28.284374 41.3 27.6125Q42.346874 26.940624 43.6125 26.940624Q44.55 26.940624 45.284374 27.346874Q46.01875 27.7375 46.4875 28.3625L46.4875 23.2375L48.221874 23.2375L48.221874 37.55L46.596874 37.55ZM41.034374 32.378124Q41.034374 34.3625 41.878124 35.346874Q42.721874 36.33125 43.8625 36.33125Q45.01875 36.33125 45.815624 35.39375Q46.628124 34.45625 46.628124 32.51875Q46.628124 30.39375 45.8 29.39375Q44.9875 28.39375 43.784374 28.39375Q42.6125 28.39375 41.815624 29.3625Q41.034374 30.315624 41.034374 32.378124ZM50.878124 25.253124L50.878124 23.2375L52.64375 23.2375L52.64375 25.253124L50.878124 25.253124ZM50.878124 37.55L50.878124 27.175L52.64375 27.175L52.64375 37.55L50.878124 37.55ZM61.64375 33.753124L63.3625 33.971874Q63.08125 35.76875 61.909374 36.784374Q60.753124 37.784374 59.05 37.784374Q56.925 37.784374 55.628124 36.39375Q54.33125 35.003124 54.33125 32.409374Q54.33125 30.721874 54.878124 29.471874Q55.440624 28.20625 56.58125 27.58125Q57.721874 26.940624 59.065624 26.940624Q60.753124 26.940624 61.815624 27.8Q62.89375 28.659374 63.20625 30.221874L61.4875 30.4875Q61.253124 29.440624 60.628124 28.925Q60.003124 28.39375 59.128124 28.39375Q57.8 28.39375 56.971874 29.346874Q56.14375 30.3 56.14375 32.346874Q56.14375 34.440624 56.940624 35.39375Q57.7375 36.33125 59.034374 36.33125Q60.065624 36.33125 60.753124 35.70625Q61.45625 35.065624 61.64375 33.753124ZM64.87813 25.253124L64.87813 23.2375L66.64375 23.2375L66.64375 25.253124L64.87813 25.253124ZM64.87813 37.55L64.87813 27.175L66.64375 27.175L66.64375 37.55L64.87813 37.55ZM75.64375 36.26875Q74.65938 37.096874 73.75313 37.440624Q72.84688 37.784374 71.81563 37.784374Q70.1125 37.784374 69.19063 36.95625Q68.26875 36.1125 68.26875 34.815624Q68.26875 34.05 68.6125 33.425Q68.97188 32.8 69.53438 32.425Q70.09688 32.034374 70.8 31.83125Q71.31563 31.70625 72.3625 31.565624Q74.4875 31.315624 75.4875 30.971874Q75.50313 30.6125 75.50313 30.503124Q75.50313 29.440624 75.00313 28.9875Q74.33125 28.39375 73.00313 28.39375Q71.75313 28.39375 71.15938 28.83125Q70.58125 29.26875 70.3 30.378124L68.58125 30.14375Q68.81563 29.034374 69.34688 28.3625Q69.87813 27.675 70.89375 27.315624Q71.90938 26.940624 73.25313 26.940624Q74.58125 26.940624 75.40938 27.253124Q76.2375 27.565624 76.62813 28.05Q77.01875 28.51875 77.175 29.2375Q77.26875 29.690624 77.26875 30.8625L77.26875 33.20625Q77.26875 35.659374 77.37813 36.315624Q77.4875 36.95625 77.83125 37.55L75.9875 37.55Q75.72188 37.003124 75.64375 36.26875ZM75.4875 32.346874Q74.53438 32.7375 72.6125 33.003124Q71.53438 33.159374 71.08125 33.3625Q70.64375 33.55 70.39375 33.925Q70.14375 34.3 70.14375 34.76875Q70.14375 35.471874 70.675 35.940624Q71.20625 36.409374 72.2375 36.409374Q73.25313 36.409374 74.03438 35.971874Q74.83125 35.51875 75.20625 34.753124Q75.4875 34.14375 75.4875 32.9875L75.4875 32.346874ZM79.84688 37.55L79.84688 27.175L81.425 27.175L81.425 28.753124Q82.03438 27.64375 82.55 27.3Q83.06563 26.940624 83.675 26.940624Q84.56563 26.940624 85.4875 27.503124L84.87813 29.14375Q84.2375 28.753124 83.59688 28.753124Q83.01875 28.753124 82.55 29.1125Q82.09688 29.45625 81.89375 30.065624Q81.6125 31.003124 81.6125 32.1125L81.6125 37.55L79.84688 37.55ZM86.78438 41.55L86.59688 39.89375Q87.175 40.05 87.59688 40.05Q88.19063 40.05 88.53438 39.846874Q88.89375 39.659374 89.1125 39.315624Q89.28438 39.05 89.65938 38.003124Q89.70625 37.846874 89.81563 37.565624L85.87813 27.175L87.76875 27.175L89.925 33.190624Q90.34688 34.33125 90.675 35.58125Q90.9875 34.378124 91.39375 33.221874L93.6125 27.175L95.37813 27.175L91.425 37.721874Q90.8 39.440624 90.44063 40.08125Q89.97188 40.95625 89.3625 41.346874Q88.76875 41.753124 87.925 41.753124Q87.40938 41.753124 86.78438 41.55ZM102.45625 32.95625L104.2375 32.8Q104.3625 33.8625 104.81563 34.55Q105.28438 35.2375 106.25313 35.675Q107.2375 36.096874 108.47188 36.096874Q109.55 36.096874 110.37813 35.784374Q111.20625 35.45625 111.6125 34.89375Q112.01875 34.33125 112.01875 33.659374Q112.01875 32.9875 111.62813 32.4875Q111.2375 31.9875 110.34688 31.64375Q109.76875 31.409374 107.78438 30.940624Q105.81563 30.471874 105.03438 30.05Q104.00313 29.51875 103.50313 28.721874Q103.00313 27.925 103.00313 26.940624Q103.00313 25.846874 103.6125 24.909374Q104.22188 23.971874 105.40938 23.4875Q106.59688 22.9875 108.03438 22.9875Q109.62813 22.9875 110.84688 23.503124Q112.06563 24.01875 112.70625 25.01875Q113.3625 26.003124 113.40938 27.26875L111.59688 27.409374Q111.45625 26.05 110.6125 25.3625Q109.76875 24.659374 108.1125 24.659374Q106.39375 24.659374 105.59688 25.3Q104.81563 25.925 104.81563 26.8Q104.81563 27.58125 105.37813 28.08125Q105.925 28.58125 108.2375 29.096874Q110.55 29.6125 111.40938 30.003124Q112.65938 30.58125 113.25313 31.471874Q113.84688 32.346874 113.84688 33.503124Q113.84688 34.64375 113.19063 35.659374Q112.53438 36.675 111.3 37.2375Q110.08125 37.8 108.55 37.8Q106.6125 37.8 105.3 37.2375Q103.9875 36.659374 103.2375 35.51875Q102.4875 34.378124 102.45625 32.95625ZM115.8625 41.51875L115.8625 27.175L117.47188 27.175L117.47188 28.51875Q118.03438 27.7375 118.7375 27.346874Q119.45625 26.940624 120.47188 26.940624Q121.8 26.940624 122.81563 27.628124Q123.83125 28.315624 124.34688 29.565624Q124.87813 30.8 124.87813 32.284374Q124.87813 33.878124 124.3 35.159374Q123.7375 36.425 122.64375 37.1125Q121.55 37.784374 120.34688 37.784374Q119.47188 37.784374 118.76875 37.409374Q118.08125 37.034374 117.62813 36.471874L117.62813 41.51875L115.8625 41.51875ZM117.45625 32.425Q117.45625 34.425 118.26875 35.378124Q119.08125 36.33125 120.2375 36.33125Q121.40938 36.33125 122.2375 35.346874Q123.08125 34.3625 123.08125 32.26875Q123.08125 30.3 122.25313 29.315624Q121.44063 28.315624 120.31563 28.315624Q119.19063 28.315624 118.31563 29.378124Q117.45625 30.425 117.45625 32.425ZM133.97188 34.20625L135.78438 34.440624Q135.3625 36.01875 134.19063 36.909374Q133.03438 37.784374 131.22188 37.784374Q128.95625 37.784374 127.6125 36.39375Q126.28438 34.9875 126.28438 32.45625Q126.28438 29.83125 127.62813 28.39375Q128.97188 26.940624 131.12813 26.940624Q133.20625 26.940624 134.51875 28.3625Q135.84688 29.76875 135.84688 32.346874Q135.84688 32.503124 135.83125 32.815624L128.09688 32.815624Q128.19063 34.51875 129.06563 35.425Q129.94063 36.33125 131.2375 36.33125Q132.20625 36.33125 132.87813 35.83125Q133.56563 35.315624 133.97188 34.20625ZM128.19063 31.3625L133.9875 31.3625Q133.87813 30.065624 133.33125 29.409374Q132.4875 28.39375 131.14375 28.39375Q129.94063 28.39375 129.1125 29.20625Q128.28438 30.003124 128.19063 31.3625ZM137.8625 37.55L137.8625 27.175L139.45625 27.175L139.45625 28.659374Q140.59688 26.940624 142.75313 26.940624Q143.69063 26.940624 144.47188 27.284374Q145.26875 27.6125 145.65938 28.159374Q146.05 28.70625 146.20625 29.45625Q146.3 29.95625 146.3 31.175L146.3 37.55L144.53438 37.55L144.53438 31.2375Q144.53438 30.159374 144.33125 29.628124Q144.12813 29.096874 143.59688 28.784374Q143.08125 28.471874 142.37813 28.471874Q141.25313 28.471874 140.44063 29.190624Q139.62813 29.89375 139.62813 31.878124L139.62813 37.55L137.8625 37.55ZM154.59688 37.55L154.59688 36.2375Q153.6125 37.784374 151.69063 37.784374Q150.45625 37.784374 149.40938 37.096874Q148.37813 36.409374 147.8 35.190624Q147.2375 33.971874 147.2375 32.378124Q147.2375 30.815624 147.75313 29.55Q148.26875 28.284374 149.3 27.6125Q150.34688 26.940624 151.6125 26.940624Q152.55 26.940624 153.28438 27.346874Q154.01875 27.7375 154.4875 28.3625L154.4875 23.2375L156.22188 23.2375L156.22188 37.55L154.59688 37.55ZM149.03438 32.378124Q149.03438 34.3625 149.87813 35.346874Q150.72188 36.33125 151.8625 36.33125Q153.01875 36.33125 153.81563 35.39375Q154.62813 34.45625 154.62813 32.51875Q154.62813 30.39375 153.8 29.39375Q152.9875 28.39375 151.78438 28.39375Q150.6125 28.39375 149.81563 29.3625Q149.03438 30.315624 149.03438 32.378124ZM158.87813 25.253124L158.87813 23.2375L160.64375 23.2375L160.64375 25.253124L158.87813 25.253124ZM158.87813 37.55L158.87813 27.175L160.64375 27.175L160.64375 37.55L158.87813 37.55ZM162.8625 37.55L162.8625 27.175L164.45625 27.175L164.45625 28.659374Q165.59688 26.940624 167.75313 26.940624Q168.69063 26.940624 169.47188 27.284374Q170.26875 27.6125 170.65938 28.159374Q171.05 28.70625 171.20625 29.45625Q171.3 29.95625 171.3 31.175L171.3 37.55L169.53438 37.55L169.53438 31.2375Q169.53438 30.159374 169.33125 29.628124Q169.12813 29.096874 168.59688 28.784374Q168.08125 28.471874 167.37813 28.471874Q166.25313 28.471874 165.44063 29.190624Q164.62813 29.89375 164.62813 31.878124L164.62813 37.55L162.8625 37.55ZM172.55 38.409374L174.25313 38.659374Q174.3625 39.45625 174.84688 39.815624Q175.50313 40.3 176.64375 40.3Q177.8625 40.3 178.51875 39.815624Q179.19063 39.33125 179.425 38.45625Q179.56563 37.909374 179.55 36.190624Q178.39375 37.55 176.675 37.55Q174.53438 37.55 173.3625 36.003124Q172.19063 34.45625 172.19063 32.3Q172.19063 30.815624 172.72188 29.565624Q173.26875 28.315624 174.28438 27.628124Q175.31563 26.940624 176.69063 26.940624Q178.51875 26.940624 179.72188 28.425L179.72188 27.175L181.33125 27.175L181.33125 36.14375Q181.33125 38.565624 180.83125 39.565624Q180.34688 40.58125 179.26875 41.159374Q178.20625 41.753124 176.64375 41.753124Q174.8 41.753124 173.64375 40.925Q172.50313 40.096874 172.55 38.409374ZM174.00313 32.175Q174.00313 34.221874 174.81563 35.159374Q175.62813 36.096874 176.84688 36.096874Q178.05 36.096874 178.8625 35.159374Q179.69063 34.221874 179.69063 32.2375Q179.69063 30.33125 178.84688 29.3625Q178.00313 28.39375 176.81563 28.39375Q175.64375 28.39375 174.81563 29.346874Q174.00313 30.3 174.00313 32.175ZM191.4875 37.55L189.8625 37.55L189.8625 23.2375L191.6125 23.2375L191.6125 28.346874Q192.7375 26.940624 194.45625 26.940624Q195.40938 26.940624 196.26875 27.33125Q197.12813 27.721874 197.675 28.425Q198.22188 29.1125 198.53438 30.096874Q198.84688 31.08125 198.84688 32.20625Q198.84688 34.878124 197.53438 36.33125Q196.22188 37.784374 194.37813 37.784374Q192.53438 37.784374 191.4875 36.253124L191.4875 37.55ZM191.47188 32.284374Q191.47188 34.14375 191.97188 34.9875Q192.81563 36.33125 194.22188 36.33125Q195.37813 36.33125 196.20625 35.33125Q197.05 34.33125 197.05 32.346874Q197.05 30.315624 196.2375 29.3625Q195.44063 28.39375 194.3 28.39375Q193.14375 28.39375 192.3 29.39375Q191.47188 30.39375 191.47188 32.284374ZM200.78438 41.55L200.59688 39.89375Q201.175 40.05 201.59688 40.05Q202.19063 40.05 202.53438 39.846874Q202.89375 39.659374 203.1125 39.315624Q203.28438 39.05 203.65938 38.003124Q203.70625 37.846874 203.81563 37.565624L199.87813 27.175L201.76875 27.175L203.925 33.190624Q204.34688 34.33125 204.675 35.58125Q204.9875 34.378124 205.39375 33.221874L207.6125 27.175L209.37813 27.175L205.425 37.721874Q204.8 39.440624 204.44063 40.08125Q203.97188 40.95625 203.3625 41.346874Q202.76875 41.753124 201.925 41.753124Q201.40938 41.753124 200.78438 41.55ZM216.70625 26.675Q216.70625 25.14375 217.47188 24.065624Q218.25313 22.9875 219.72188 22.9875Q221.06563 22.9875 221.94063 23.95625Q222.83125 24.909374 222.83125 26.784374Q222.83125 28.596874 221.94063 29.58125Q221.05 30.55 219.7375 30.55Q218.44063 30.55 217.56563 29.596874Q216.70625 28.628124 216.70625 26.675ZM219.76875 24.20625Q219.1125 24.20625 218.675 24.76875Q218.25313 25.33125 218.25313 26.846874Q218.25313 28.221874 218.69063 28.784374Q219.12813 29.346874 219.76875 29.346874Q220.44063 29.346874 220.8625 28.784374Q221.3 28.20625 221.3 26.70625Q221.3 25.315624 220.8625 24.76875Q220.425 24.20625 219.76875 24.20625ZM219.78438 38.08125L227.6125 22.9875L229.03438 22.9875L221.2375 38.08125L219.78438 38.08125ZM225.97188 34.190624Q225.97188 32.64375 226.7375 31.58125Q227.51875 30.503124 228.9875 30.503124Q230.33125 30.503124 231.20625 31.471874Q232.09688 32.425 232.09688 34.3Q232.09688 36.1125 231.20625 37.096874Q230.31563 38.08125 229.00313 38.08125Q227.70625 38.08125 226.83125 37.1125Q225.97188 36.128124 225.97188 34.190624ZM229.03438 31.721874Q228.37813 31.721874 227.94063 32.284374Q227.50313 32.846874 227.50313 34.3625Q227.50313 35.7375 227.94063 36.3Q228.37813 36.8625 229.03438 36.8625Q229.70625 36.8625 230.12813 36.3Q230.56563 35.7375 230.56563 34.221874Q230.56563 32.846874 230.12813 32.284374Q229.69063 31.721874 229.03438 31.721874Z" fill-rule="nonzero"/></svg>