<svg version="1.1" viewBox="0.0 0.0 600.0 371.0" fill="none" stroke="none" stroke-linecap="square" stroke-miterlimit="10" width="600" height="371" xmlns:xlink="http://www.w3.org/1999/xlink" xmlns="http://www.w3.org/2000/svg"><path fill="#ffffff" d="M0 0L600.0 0L600.0 371.0L0 371.0L0 0Z" fill-rule="nonzero"/><path stroke="#333333" stroke-width="1.0" stroke-linecap="butt" d="M73.5 332.5L581.5 332.5" fill-rule="nonzero"/><path stroke="#cccccc" stroke-width="1.0" stroke-linecap="butt" d="M73.5 283.5L581.5 283.5" fill-rule="nonzero"/><path stroke="#cccccc" stroke-width="1.0" stroke-linecap="butt" d="M73.5 233.5L581.5 233.5" fill-rule="nonzero"/><path stroke="#cccccc" stroke-width="1.0" stroke-linecap="butt" d="M73.5 184.5L581.5 184.5" fill-rule="nonzero"/><path stroke="#cccccc" stroke-width="1.0" stroke-linecap="butt" d="M73.5 134.5L581.5 134.5" fill-rule="nonzero"/><path stroke="#cccccc" stroke-width="1.0" stroke-linecap="butt" d="M73.5 85.5L581.5 85.5" fill-rule="nonzero"/><clipPath id="id_0"><path d="M73.55 85.416664L581.45 85.416664L581.45 332.45L73.55 332.45L73.55 85.416664Z" clip-rule="nonzero"/></clipPath><path fill="#34a853" clip-path="url(#id_0)" d="M120.375 85.74275C120.375 88.228035 118.36028 90.24275 115.875 90.24275C113.38972 90.24275 111.375 88.228035 111.375 85.74275C111.375 83.25747 113.38972 81.24275 115.875 81.24275C118.36028 81.24275 120.375 83.25747 120.375 85.74275Z" fill-rule="nonzero"/><path fill="#34a853" clip-path="url(#id_0)" d="M205.025 165.58392C205.025 168.0692 203.01028 170.08392 200.525 170.08392C198.03972 170.08392 196.025 168.0692 196.025 165.58392C196.025 163.09865 198.03972 161.08392 200.525 161.08392C203.01028 161.08392 205.025 163.09865 205.025 165.58392Z" fill-rule="nonzero"/><path fill="#34a853" clip-path="url(#id_0)" d="M289.675 210.89972C289.675 213.385 287.66028 215.39972 285.175 215.39972C282.68973 215.39972 280.675 213.385 280.675 210.89972C280.675 208.41444 282.68973 206.39972 285.175 206.39972C287.66028 206.39972 289.675 208.41444 289.675 210.89972Z" fill-rule="nonzero"/><path fill="#34a853" clip-path="url(#id_0)" d="M374.325 249.4468C374.325 251.93208 372.31027 253.9468 369.825 253.9468C367.33972 253.9468 365.325 251.93208 365.325 249.4468C365.325 246.96152 367.33972 244.9468 369.825 244.9468C372.31027 244.9468 374.325 246.96152 374.325 249.4468Z" fill-rule="nonzero"/><path fill="#34a853" clip-path="url(#id_0)" d="M458.975 270.53357C458.975 273.01886 456.9603 275.03357 454.475 275.03357C451.98972 275.03357 449.975 273.01886 449.975 270.53357C449.975 268.04828 451.98972 266.03357 454.475 266.03357C456.9603 266.03357 458.975 268.04828 458.975 270.53357Z" fill-rule="nonzero"/><path fill="#34a853" clip-path="url(#id_0)" d="M543.625 291.02747C543.625 293.51273 541.6103 295.52747 539.125 295.52747C536.6397 295.52747 534.625 293.51273 534.625 291.02747C534.625 288.54218 536.6397 286.52747 539.125 286.52747C541.6103 286.52747 543.625 288.54218 543.625 291.02747Z" fill-rule="nonzero"/><path fill="#000000" d="M33.05 332.21564Q33.05 330.6844 33.3625 329.7625Q33.675 328.825 34.284374 328.325Q34.909374 327.825 35.846874 327.825Q36.534374 327.825 37.05 328.10626Q37.58125 328.3875 37.925 328.91876Q38.26875 329.4344 38.45625 330.1844Q38.64375 330.9344 38.64375 332.21564Q38.64375 333.73126 38.33125 334.65314Q38.034374 335.575 37.409374 336.09064Q36.8 336.59064 35.846874 336.59064Q34.6125 336.59064 33.89375 335.7Q33.05 334.6375 33.05 332.21564ZM34.128124 332.21564Q34.128124 334.325 34.628124 335.02814Q35.128124 335.73126 35.846874 335.73126Q36.58125 335.73126 37.065624 335.02814Q37.565624 334.325 37.565624 332.21564Q37.565624 330.09064 37.065624 329.40314Q36.58125 328.7 35.83125 328.7Q35.1125 328.7 34.675 329.3094Q34.128124 330.09064 34.128124 332.21564ZM40.64375 336.45L40.64375 335.2469L41.846874 335.2469L41.846874 336.45L40.64375 336.45ZM43.05 332.21564Q43.05 330.6844 43.3625 329.7625Q43.675 328.825 44.284374 328.325Q44.909374 327.825 45.846874 327.825Q46.534374 327.825 47.05 328.10626Q47.58125 328.3875 47.925 328.91876Q48.26875 329.4344 48.45625 330.1844Q48.64375 330.9344 48.64375 332.21564Q48.64375 333.73126 48.33125 334.65314Q48.034374 335.575 47.409374 336.09064Q46.8 336.59064 45.846874 336.59064Q44.6125 336.59064 43.89375 335.7Q43.05 334.6375 43.05 332.21564ZM44.128124 332.21564Q44.128124 334.325 44.628124 335.02814Q45.128124 335.73126 45.846874 335.73126Q46.58125 335.73126 47.065624 335.02814Q47.565624 334.325 47.565624 332.21564Q47.565624 330.09064 47.065624 329.40314Q46.58125 328.7 45.83125 328.7Q45.1125 328.7 44.675 329.3094Q44.128124 330.09064 44.128124 332.21564ZM50.05 332.21564Q50.05 330.6844 50.3625 329.7625Q50.675 328.825 51.284374 328.325Q51.909374 327.825 52.846874 327.825Q53.534374 327.825 54.05 328.10626Q54.58125 328.3875 54.925 328.91876Q55.26875 329.4344 55.45625 330.1844Q55.64375 330.9344 55.64375 332.21564Q55.64375 333.73126 55.33125 334.65314Q55.034374 335.575 54.409374 336.09064Q53.8 336.59064 52.846874 336.59064Q51.6125 336.59064 50.89375 335.7Q50.05 334.6375 50.05 332.21564ZM51.128124 332.21564Q51.128124 334.325 51.628124 335.02814Q52.128124 335.73126 52.846874 335.73126Q53.58125 335.73126 54.065624 335.02814Q54.565624 334.325 54.565624 332.21564Q54.565624 330.09064 54.065624 329.40314Q53.58125 328.7 52.83125 328.7Q52.1125 328.7 51.675 329.3094Q51.128124 330.09064 51.128124 332.21564ZM57.253124 329.91876Q57.253124 328.9969 57.70625 328.35626Q58.175 327.71564 59.05 327.71564Q59.8625 327.71564 60.39375 328.29376Q60.925 328.8719 60.925 329.98126Q60.925 331.075 60.378124 331.66876Q59.846874 332.2469 59.065624 332.2469Q58.284374 332.2469 57.76875 331.66876Q57.253124 331.09064 57.253124 329.91876ZM59.08125 328.4344Q58.690624 328.4344 58.425 328.77814Q58.175 329.1219 58.175 330.02814Q58.175 330.85626 58.425 331.2Q58.690624 331.52814 59.08125 331.52814Q59.4875 331.52814 59.7375 331.1844Q60.003124 330.84064 60.003124 329.95Q60.003124 329.10626 59.7375 328.77814Q59.471874 328.4344 59.08125 328.4344ZM59.08125 336.7625L63.784374 327.71564L64.64375 327.71564L59.95625 336.7625L59.08125 336.7625ZM62.8 334.4344Q62.8 333.5125 63.253124 332.8719Q63.721874 332.23126 64.6125 332.23126Q65.425 332.23126 65.95625 332.8094Q66.4875 333.3719 66.4875 334.4969Q66.4875 335.59064 65.94063 336.1844Q65.40938 336.7625 64.6125 336.7625Q63.846874 336.7625 63.315624 336.1844Q62.8 335.60626 62.8 334.4344ZM64.64375 332.95Q64.2375 332.95 63.971874 333.29376Q63.721874 333.6375 63.721874 334.54376Q63.721874 335.35626 63.9875 335.7Q64.25313 336.04376 64.64375 336.04376Q65.03438 336.04376 65.3 335.7Q65.56563 335.35626 65.56563 334.45Q65.56563 333.6219 65.3 333.29376Q65.03438 332.95 64.64375 332.95Z" fill-rule="nonzero"/><path fill="#000000" d="M26.05 284.79333L27.159374 284.6996Q27.284374 285.5121 27.721874 285.91833Q28.175 286.3246 28.815624 286.3246Q29.565624 286.3246 30.096874 285.74646Q30.628124 285.16833 30.628124 284.23083Q30.628124 283.3246 30.1125 282.80896Q29.6125 282.2777 28.784374 282.2777Q28.284374 282.2777 27.8625 282.5121Q27.45625 282.74646 27.221874 283.10583L26.2375 282.98083L27.065624 278.5746L31.346874 278.5746L31.346874 279.5746L27.909374 279.5746L27.45625 281.8871Q28.221874 281.3402 29.065624 281.3402Q30.190624 281.3402 30.95625 282.12146Q31.7375 282.9027 31.7375 284.1371Q31.7375 285.29333 31.065624 286.1527Q30.2375 287.18396 28.815624 287.18396Q27.64375 287.18396 26.89375 286.5277Q26.159374 285.87146 26.05 284.79333ZM33.05 282.80896Q33.05 281.2777 33.3625 280.35583Q33.675 279.41833 34.284374 278.91833Q34.909374 278.41833 35.846874 278.41833Q36.534374 278.41833 37.05 278.6996Q37.58125 278.98083 37.925 279.5121Q38.26875 280.0277 38.45625 280.7777Q38.64375 281.5277 38.64375 282.80896Q38.64375 284.3246 38.33125 285.24646Q38.034374 286.16833 37.409374 286.68396Q36.8 287.18396 35.846874 287.18396Q34.6125 287.18396 33.89375 286.29333Q33.05 285.23083 33.05 282.80896ZM34.128124 282.80896Q34.128124 284.91833 34.628124 285.62146Q35.128124 286.3246 35.846874 286.3246Q36.58125 286.3246 37.065624 285.62146Q37.565624 284.91833 37.565624 282.80896Q37.565624 280.68396 37.065624 279.99646Q36.58125 279.29333 35.83125 279.29333Q35.1125 279.29333 34.675 279.9027Q34.128124 280.68396 34.128124 282.80896ZM40.64375 287.04333L40.64375 285.8402L41.846874 285.8402L41.846874 287.04333L40.64375 287.04333ZM43.05 282.80896Q43.05 281.2777 43.3625 280.35583Q43.675 279.41833 44.284374 278.91833Q44.909374 278.41833 45.846874 278.41833Q46.534374 278.41833 47.05 278.6996Q47.58125 278.98083 47.925 279.5121Q48.26875 280.0277 48.45625 280.7777Q48.64375 281.5277 48.64375 282.80896Q48.64375 284.3246 48.33125 285.24646Q48.034374 286.16833 47.409374 286.68396Q46.8 287.18396 45.846874 287.18396Q44.6125 287.18396 43.89375 286.29333Q43.05 285.23083 43.05 282.80896ZM44.128124 282.80896Q44.128124 284.91833 44.628124 285.62146Q45.128124 286.3246 45.846874 286.3246Q46.58125 286.3246 47.065624 285.62146Q47.565624 284.91833 47.565624 282.80896Q47.565624 280.68396 47.065624 279.99646Q46.58125 279.29333 45.83125 279.29333Q45.1125 279.29333 44.675 279.9027Q44.128124 280.68396 44.128124 282.80896ZM50.05 282.80896Q50.05 281.2777 50.3625 280.35583Q50.675 279.41833 51.284374 278.91833Q51.909374 278.41833 52.846874 278.41833Q53.534374 278.41833 54.05 278.6996Q54.58125 278.98083 54.925 279.5121Q55.26875 280.0277 55.45625 280.7777Q55.64375 281.5277 55.64375 282.80896Q55.64375 284.3246 55.33125 285.24646Q55.034374 286.16833 54.409374 286.68396Q53.8 287.18396 52.846874 287.18396Q51.6125 287.18396 50.89375 286.29333Q50.05 285.23083 50.05 282.80896ZM51.128124 282.80896Q51.128124 284.91833 51.628124 285.62146Q52.128124 286.3246 52.846874 286.3246Q53.58125 286.3246 54.065624 285.62146Q54.565624 284.91833 54.565624 282.80896Q54.565624 280.68396 54.065624 279.99646Q53.58125 279.29333 52.83125 279.29333Q52.1125 279.29333 51.675 279.9027Q51.128124 280.68396 51.128124 282.80896ZM57.253124 280.5121Q57.253124 279.5902 57.70625 278.9496Q58.175 278.30896 59.05 278.30896Q59.8625 278.30896 60.39375 278.8871Q60.925 279.4652 60.925 280.5746Q60.925 281.66833 60.378124 282.2621Q59.846874 282.8402 59.065624 282.8402Q58.284374 282.8402 57.76875 282.2621Q57.253124 281.68396 57.253124 280.5121ZM59.08125 279.0277Q58.690624 279.0277 58.425 279.37146Q58.175 279.7152 58.175 280.62146Q58.175 281.4496 58.425 281.79333Q58.690624 282.12146 59.08125 282.12146Q59.4875 282.12146 59.7375 281.7777Q60.003124 281.43396 60.003124 280.54333Q60.003124 279.6996 59.7375 279.37146Q59.471874 279.0277 59.08125 279.0277ZM59.08125 287.35583L63.784374 278.30896L64.64375 278.30896L59.95625 287.35583L59.08125 287.35583ZM62.8 285.0277Q62.8 284.10583 63.253124 283.4652Q63.721874 282.8246 64.6125 282.8246Q65.425 282.8246 65.95625 283.4027Q66.4875 283.9652 66.4875 285.0902Q66.4875 286.18396 65.94063 286.7777Q65.40938 287.35583 64.6125 287.35583Q63.846874 287.35583 63.315624 286.7777Q62.8 286.1996 62.8 285.0277ZM64.64375 283.54333Q64.2375 283.54333 63.971874 283.8871Q63.721874 284.23083 63.721874 285.1371Q63.721874 285.9496 63.9875 286.29333Q64.25313 286.6371 64.64375 286.6371Q65.03438 286.6371 65.3 286.29333Q65.56563 285.9496 65.56563 285.04333Q65.56563 284.2152 65.3 283.8871Q65.03438 283.54333 64.64375 283.54333Z" fill-rule="nonzero"/><path fill="#000000" d="M23.01875 237.63667L21.971874 237.63667L21.971874 230.91792Q21.58125 231.2773 20.95625 231.6523Q20.346874 232.01167 19.8625 232.18355L19.8625 231.16792Q20.7375 230.74605 21.39375 230.16792Q22.065624 229.57417 22.346874 229.01167L23.01875 229.01167L23.01875 237.63667ZM26.05 233.4023Q26.05 231.87105 26.3625 230.94917Q26.675 230.01167 27.284374 229.51167Q27.909374 229.01167 28.846874 229.01167Q29.534374 229.01167 30.05 229.29292Q30.58125 229.57417 30.925 230.10542Q31.26875 230.62105 31.45625 231.37105Q31.64375 232.12105 31.64375 233.4023Q31.64375 234.91792 31.33125 235.8398Q31.034374 236.76167 30.409374 237.2773Q29.8 237.7773 28.846874 237.7773Q27.6125 237.7773 26.89375 236.88667Q26.05 235.82417 26.05 233.4023ZM27.128124 233.4023Q27.128124 235.51167 27.628124 236.2148Q28.128124 236.91792 28.846874 236.91792Q29.58125 236.91792 30.065624 236.2148Q30.565624 235.51167 30.565624 233.4023Q30.565624 231.2773 30.065624 230.5898Q29.58125 229.88667 28.83125 229.88667Q28.1125 229.88667 27.675 230.49605Q27.128124 231.2773 27.128124 233.4023ZM33.05 233.4023Q33.05 231.87105 33.3625 230.94917Q33.675 230.01167 34.284374 229.51167Q34.909374 229.01167 35.846874 229.01167Q36.534374 229.01167 37.05 229.29292Q37.58125 229.57417 37.925 230.10542Q38.26875 230.62105 38.45625 231.37105Q38.64375 232.12105 38.64375 233.4023Q38.64375 234.91792 38.33125 235.8398Q38.034374 236.76167 37.409374 237.2773Q36.8 237.7773 35.846874 237.7773Q34.6125 237.7773 33.89375 236.88667Q33.05 235.82417 33.05 233.4023ZM34.128124 233.4023Q34.128124 235.51167 34.628124 236.2148Q35.128124 236.91792 35.846874 236.91792Q36.58125 236.91792 37.065624 236.2148Q37.565624 235.51167 37.565624 233.4023Q37.565624 231.2773 37.065624 230.5898Q36.58125 229.88667 35.83125 229.88667Q35.1125 229.88667 34.675 230.49605Q34.128124 231.2773 34.128124 233.4023ZM40.64375 237.63667L40.64375 236.43355L41.846874 236.43355L41.846874 237.63667L40.64375 237.63667ZM43.05 233.4023Q43.05 231.87105 43.3625 230.94917Q43.675 230.01167 44.284374 229.51167Q44.909374 229.01167 45.846874 229.01167Q46.534374 229.01167 47.05 229.29292Q47.58125 229.57417 47.925 230.10542Q48.26875 230.62105 48.45625 231.37105Q48.64375 232.12105 48.64375 233.4023Q48.64375 234.91792 48.33125 235.8398Q48.034374 236.76167 47.409374 237.2773Q46.8 237.7773 45.846874 237.7773Q44.6125 237.7773 43.89375 236.88667Q43.05 235.82417 43.05 233.4023ZM44.128124 233.4023Q44.128124 235.51167 44.628124 236.2148Q45.128124 236.91792 45.846874 236.91792Q46.58125 236.91792 47.065624 236.2148Q47.565624 235.51167 47.565624 233.4023Q47.565624 231.2773 47.065624 230.5898Q46.58125 229.88667 45.83125 229.88667Q45.1125 229.88667 44.675 230.49605Q44.128124 231.2773 44.128124 233.4023ZM50.05 233.4023Q50.05 231.87105 50.3625 230.94917Q50.675 230.01167 51.284374 229.51167Q51.909374 229.01167 52.846874 229.01167Q53.534374 229.01167 54.05 229.29292Q54.58125 229.57417 54.925 230.10542Q55.26875 230.62105 55.45625 231.37105Q55.64375 232.12105 55.64375 233.4023Q55.64375 234.91792 55.33125 235.8398Q55.034374 236.76167 54.409374 237.2773Q53.8 237.7773 52.846874 237.7773Q51.6125 237.7773 50.89375 236.88667Q50.05 235.82417 50.05 233.4023ZM51.128124 233.4023Q51.128124 235.51167 51.628124 236.2148Q52.128124 236.91792 52.846874 236.91792Q53.58125 236.91792 54.065624 236.2148Q54.565624 235.51167 54.565624 233.4023Q54.565624 231.2773 54.065624 230.5898Q53.58125 229.88667 52.83125 229.88667Q52.1125 229.88667 51.675 230.49605Q51.128124 231.2773 51.128124 233.4023ZM57.253124 231.10542Q57.253124 230.18355 57.70625 229.54292Q58.175 228.9023 59.05 228.9023Q59.8625 228.9023 60.39375 229.48042Q60.925 230.05855 60.925 231.16792Q60.925 232.26167 60.378124 232.85542Q59.846874 233.43355 59.065624 233.43355Q58.284374 233.43355 57.76875 232.85542Q57.253124 232.2773 57.253124 231.10542ZM59.08125 229.62105Q58.690624 229.62105 58.425 229.9648Q58.175 230.30855 58.175 231.2148Q58.175 232.04292 58.425 232.38667Q58.690624 232.7148 59.08125 232.7148Q59.4875 232.7148 59.7375 232.37105Q60.003124 232.0273 60.003124 231.13667Q60.003124 230.29292 59.7375 229.9648Q59.471874 229.62105 59.08125 229.62105ZM59.08125 237.94917L63.784374 228.9023L64.64375 228.9023L59.95625 237.94917L59.08125 237.94917ZM62.8 235.62105Q62.8 234.69917 63.253124 234.05855Q63.721874 233.41792 64.6125 233.41792Q65.425 233.41792 65.95625 233.99605Q66.4875 234.55855 66.4875 235.68355Q66.4875 236.7773 65.94063 237.37105Q65.40938 237.94917 64.6125 237.94917Q63.846874 237.94917 63.315624 237.37105Q62.8 236.79292 62.8 235.62105ZM64.64375 234.13667Q64.2375 234.13667 63.971874 234.48042Q63.721874 234.82417 63.721874 235.73042Q63.721874 236.54292 63.9875 236.88667Q64.25313 237.23042 64.64375 237.23042Q65.03438 237.23042 65.3 236.88667Q65.56563 236.54292 65.56563 235.63667Q65.56563 234.80855 65.3 234.48042Q65.03438 234.13667 64.64375 234.13667Z" fill-rule="nonzero"/><path fill="#000000" d="M23.01875 188.23L21.971874 188.23L21.971874 181.51125Q21.58125 181.87062 20.95625 182.24562Q20.346874 182.605 19.8625 182.77687L19.8625 181.76125Q20.7375 181.33937 21.39375 180.76125Q22.065624 180.1675 22.346874 179.605L23.01875 179.605L23.01875 188.23ZM26.05 185.98L27.159374 185.88625Q27.284374 186.69875 27.721874 187.105Q28.175 187.51125 28.815624 187.51125Q29.565624 187.51125 30.096874 186.93312Q30.628124 186.355 30.628124 185.4175Q30.628124 184.51125 30.1125 183.99562Q29.6125 183.46437 28.784374 183.46437Q28.284374 183.46437 27.8625 183.69875Q27.45625 183.93312 27.221874 184.2925L26.2375 184.1675L27.065624 179.76125L31.346874 179.76125L31.346874 180.76125L27.909374 180.76125L27.45625 183.07375Q28.221874 182.52687 29.065624 182.52687Q30.190624 182.52687 30.95625 183.30812Q31.7375 184.08937 31.7375 185.32375Q31.7375 186.48 31.065624 187.33937Q30.2375 188.37062 28.815624 188.37062Q27.64375 188.37062 26.89375 187.71437Q26.159374 187.05812 26.05 185.98ZM33.05 183.99562Q33.05 182.46437 33.3625 181.5425Q33.675 180.605 34.284374 180.105Q34.909374 179.605 35.846874 179.605Q36.534374 179.605 37.05 179.88625Q37.58125 180.1675 37.925 180.69875Q38.26875 181.21437 38.45625 181.96437Q38.64375 182.71437 38.64375 183.99562Q38.64375 185.51125 38.33125 186.43312Q38.034374 187.355 37.409374 187.87062Q36.8 188.37062 35.846874 188.37062Q34.6125 188.37062 33.89375 187.48Q33.05 186.4175 33.05 183.99562ZM34.128124 183.99562Q34.128124 186.105 34.628124 186.80812Q35.128124 187.51125 35.846874 187.51125Q36.58125 187.51125 37.065624 186.80812Q37.565624 186.105 37.565624 183.99562Q37.565624 181.87062 37.065624 181.18312Q36.58125 180.48 35.83125 180.48Q35.1125 180.48 34.675 181.08937Q34.128124 181.87062 34.128124 183.99562ZM40.64375 188.23L40.64375 187.02687L41.846874 187.02687L41.846874 188.23L40.64375 188.23ZM43.05 183.99562Q43.05 182.46437 43.3625 181.5425Q43.675 180.605 44.284374 180.105Q44.909374 179.605 45.846874 179.605Q46.534374 179.605 47.05 179.88625Q47.58125 180.1675 47.925 180.69875Q48.26875 181.21437 48.45625 181.96437Q48.64375 182.71437 48.64375 183.99562Q48.64375 185.51125 48.33125 186.43312Q48.034374 187.355 47.409374 187.87062Q46.8 188.37062 45.846874 188.37062Q44.6125 188.37062 43.89375 187.48Q43.05 186.4175 43.05 183.99562ZM44.128124 183.99562Q44.128124 186.105 44.628124 186.80812Q45.128124 187.51125 45.846874 187.51125Q46.58125 187.51125 47.065624 186.80812Q47.565624 186.105 47.565624 183.99562Q47.565624 181.87062 47.065624 181.18312Q46.58125 180.48 45.83125 180.48Q45.1125 180.48 44.675 181.08937Q44.128124 181.87062 44.128124 183.99562ZM50.05 183.99562Q50.05 182.46437 50.3625 181.5425Q50.675 180.605 51.284374 180.105Q51.909374 179.605 52.846874 179.605Q53.534374 179.605 54.05 179.88625Q54.58125 180.1675 54.925 180.69875Q55.26875 181.21437 55.45625 181.96437Q55.64375 182.71437 55.64375 183.99562Q55.64375 185.51125 55.33125 186.43312Q55.034374 187.355 54.409374 187.87062Q53.8 188.37062 52.846874 188.37062Q51.6125 188.37062 50.89375 187.48Q50.05 186.4175 50.05 183.99562ZM51.128124 183.99562Q51.128124 186.105 51.628124 186.80812Q52.128124 187.51125 52.846874 187.51125Q53.58125 187.51125 54.065624 186.80812Q54.565624 186.105 54.565624 183.99562Q54.565624 181.87062 54.065624 181.18312Q53.58125 180.48 52.83125 180.48Q52.1125 180.48 51.675 181.08937Q51.128124 181.87062 51.128124 183.99562ZM57.253124 181.69875Q57.253124 180.77687 57.70625 180.13625Q58.175 179.49562 59.05 179.49562Q59.8625 179.49562 60.39375 180.07375Q60.925 180.65187 60.925 181.76125Q60.925 182.855 60.378124 183.44875Q59.846874 184.02687 59.065624 184.02687Q58.284374 184.02687 57.76875 183.44875Q57.253124 182.87062 57.253124 181.69875ZM59.08125 180.21437Q58.690624 180.21437 58.425 180.55812Q58.175 180.90187 58.175 181.80812Q58.175 182.63625 58.425 182.98Q58.690624 183.30812 59.08125 183.30812Q59.4875 183.30812 59.7375 182.96437Q60.003124 182.62062 60.003124 181.73Q60.003124 180.88625 59.7375 180.55812Q59.471874 180.21437 59.08125 180.21437ZM59.08125 188.5425L63.784374 179.49562L64.64375 179.49562L59.95625 188.5425L59.08125 188.5425ZM62.8 186.21437Q62.8 185.2925 63.253124 184.65187Q63.721874 184.01125 64.6125 184.01125Q65.425 184.01125 65.95625 184.58937Q66.4875 185.15187 66.4875 186.27687Q66.4875 187.37062 65.94063 187.96437Q65.40938 188.5425 64.6125 188.5425Q63.846874 188.5425 63.315624 187.96437Q62.8 187.38625 62.8 186.21437ZM64.64375 184.73Q64.2375 184.73 63.971874 185.07375Q63.721874 185.4175 63.721874 186.32375Q63.721874 187.13625 63.9875 187.48Q64.25313 187.82375 64.64375 187.82375Q65.03438 187.82375 65.3 187.48Q65.56563 187.13625 65.56563 186.23Q65.56563 185.40187 65.3 185.07375Q65.03438 184.73 64.64375 184.73Z" fill-rule="nonzero"/><path fill="#000000" d="M24.596874 137.80771L24.596874 138.82333L18.909374 138.82333Q18.909374 138.44833 19.034374 138.08896Q19.253124 137.51083 19.721874 136.94833Q20.20625 136.38583 21.1125 135.65146Q22.51875 134.49521 23.003124 133.82333Q23.503124 133.15146 23.503124 132.55771Q23.503124 131.93271 23.05 131.51083Q22.596874 131.07333 21.878124 131.07333Q21.1125 131.07333 20.659374 131.52646Q20.20625 131.97958 20.190624 132.79208L19.1125 132.68271Q19.221874 131.46396 19.940624 130.83896Q20.675 130.19833 21.909374 130.19833Q23.14375 130.19833 23.8625 130.88583Q24.58125 131.57333 24.58125 132.58896Q24.58125 133.10458 24.3625 133.60458Q24.159374 134.08896 23.659374 134.65146Q23.175 135.19833 22.05 136.15146Q21.096874 136.94833 20.815624 137.24521Q20.55 137.52646 20.378124 137.80771L24.596874 137.80771ZM26.05 134.58896Q26.05 133.05771 26.3625 132.13583Q26.675 131.19833 27.284374 130.69833Q27.909374 130.19833 28.846874 130.19833Q29.534374 130.19833 30.05 130.47958Q30.58125 130.76083 30.925 131.29208Q31.26875 131.80771 31.45625 132.55771Q31.64375 133.30771 31.64375 134.58896Q31.64375 136.10458 31.33125 137.02646Q31.034374 137.94833 30.409374 138.46396Q29.8 138.96396 28.846874 138.96396Q27.6125 138.96396 26.89375 138.07333Q26.05 137.01083 26.05 134.58896ZM27.128124 134.58896Q27.128124 136.69833 27.628124 137.40146Q28.128124 138.10458 28.846874 138.10458Q29.58125 138.10458 30.065624 137.40146Q30.565624 136.69833 30.565624 134.58896Q30.565624 132.46396 30.065624 131.77646Q29.58125 131.07333 28.83125 131.07333Q28.1125 131.07333 27.675 131.68271Q27.128124 132.46396 27.128124 134.58896ZM33.05 134.58896Q33.05 133.05771 33.3625 132.13583Q33.675 131.19833 34.284374 130.69833Q34.909374 130.19833 35.846874 130.19833Q36.534374 130.19833 37.05 130.47958Q37.58125 130.76083 37.925 131.29208Q38.26875 131.80771 38.45625 132.55771Q38.64375 133.30771 38.64375 134.58896Q38.64375 136.10458 38.33125 137.02646Q38.034374 137.94833 37.409374 138.46396Q36.8 138.96396 35.846874 138.96396Q34.6125 138.96396 33.89375 138.07333Q33.05 137.01083 33.05 134.58896ZM34.128124 134.58896Q34.128124 136.69833 34.628124 137.40146Q35.128124 138.10458 35.846874 138.10458Q36.58125 138.10458 37.065624 137.40146Q37.565624 136.69833 37.565624 134.58896Q37.565624 132.46396 37.065624 131.77646Q36.58125 131.07333 35.83125 131.07333Q35.1125 131.07333 34.675 131.68271Q34.128124 132.46396 34.128124 134.58896ZM40.64375 138.82333L40.64375 137.62021L41.846874 137.62021L41.846874 138.82333L40.64375 138.82333ZM43.05 134.58896Q43.05 133.05771 43.3625 132.13583Q43.675 131.19833 44.284374 130.69833Q44.909374 130.19833 45.846874 130.19833Q46.534374 130.19833 47.05 130.47958Q47.58125 130.76083 47.925 131.29208Q48.26875 131.80771 48.45625 132.55771Q48.64375 133.30771 48.64375 134.58896Q48.64375 136.10458 48.33125 137.02646Q48.034374 137.94833 47.409374 138.46396Q46.8 138.96396 45.846874 138.96396Q44.6125 138.96396 43.89375 138.07333Q43.05 137.01083 43.05 134.58896ZM44.128124 134.58896Q44.128124 136.69833 44.628124 137.40146Q45.128124 138.10458 45.846874 138.10458Q46.58125 138.10458 47.065624 137.40146Q47.565624 136.69833 47.565624 134.58896Q47.565624 132.46396 47.065624 131.77646Q46.58125 131.07333 45.83125 131.07333Q45.1125 131.07333 44.675 131.68271Q44.128124 132.46396 44.128124 134.58896ZM50.05 134.58896Q50.05 133.05771 50.3625 132.13583Q50.675 131.19833 51.284374 130.69833Q51.909374 130.19833 52.846874 130.19833Q53.534374 130.19833 54.05 130.47958Q54.58125 130.76083 54.925 131.29208Q55.26875 131.80771 55.45625 132.55771Q55.64375 133.30771 55.64375 134.58896Q55.64375 136.10458 55.33125 137.02646Q55.034374 137.94833 54.409374 138.46396Q53.8 138.96396 52.846874 138.96396Q51.6125 138.96396 50.89375 138.07333Q50.05 137.01083 50.05 134.58896ZM51.128124 134.58896Q51.128124 136.69833 51.628124 137.40146Q52.128124 138.10458 52.846874 138.10458Q53.58125 138.10458 54.065624 137.40146Q54.565624 136.69833 54.565624 134.58896Q54.565624 132.46396 54.065624 131.77646Q53.58125 131.07333 52.83125 131.07333Q52.1125 131.07333 51.675 131.68271Q51.128124 132.46396 51.128124 134.58896ZM57.253124 132.29208Q57.253124 131.37021 57.70625 130.72958Q58.175 130.08896 59.05 130.08896Q59.8625 130.08896 60.39375 130.66708Q60.925 131.24521 60.925 132.35458Q60.925 133.44833 60.378124 134.04208Q59.846874 134.62021 59.065624 134.62021Q58.284374 134.62021 57.76875 134.04208Q57.253124 133.46396 57.253124 132.29208ZM59.08125 130.80771Q58.690624 130.80771 58.425 131.15146Q58.175 131.49521 58.175 132.40146Q58.175 133.22958 58.425 133.57333Q58.690624 133.90146 59.08125 133.90146Q59.4875 133.90146 59.7375 133.55771Q60.003124 133.21396 60.003124 132.32333Q60.003124 131.47958 59.7375 131.15146Q59.471874 130.80771 59.08125 130.80771ZM59.08125 139.13583L63.784374 130.08896L64.64375 130.08896L59.95625 139.13583L59.08125 139.13583ZM62.8 136.80771Q62.8 135.88583 63.253124 135.24521Q63.721874 134.60458 64.6125 134.60458Q65.425 134.60458 65.95625 135.18271Q66.4875 135.74521 66.4875 136.87021Q66.4875 137.96396 65.94063 138.55771Q65.40938 139.13583 64.6125 139.13583Q63.846874 139.13583 63.315624 138.55771Q62.8 137.97958 62.8 136.80771ZM64.64375 135.32333Q64.2375 135.32333 63.971874 135.66708Q63.721874 136.01083 63.721874 136.91708Q63.721874 137.72958 63.9875 138.07333Q64.25313 138.41708 64.64375 138.41708Q65.03438 138.41708 65.3 138.07333Q65.56563 137.72958 65.56563 136.82333Q65.56563 135.99521 65.3 135.66708Q65.03438 135.32333 64.64375 135.32333Z" fill-rule="nonzero"/><path fill="#000000" d="M24.596874 88.40104L24.596874 89.416664L18.909374 89.416664Q18.909374 89.041664 19.034374 88.68229Q19.253124 88.104164 19.721874 87.541664Q20.20625 86.979164 21.1125 86.24479Q22.51875 85.08854 23.003124 84.416664Q23.503124 83.74479 23.503124 83.15104Q23.503124 82.52604 23.05 82.104164Q22.596874 81.666664 21.878124 81.666664Q21.1125 81.666664 20.659374 82.11979Q20.20625 82.572914 20.190624 83.385414L19.1125 83.27604Q19.221874 82.05729 19.940624 81.43229Q20.675 80.791664 21.909374 80.791664Q23.14375 80.791664 23.8625 81.479164Q24.58125 82.166664 24.58125 83.18229Q24.58125 83.697914 24.3625 84.197914Q24.159374 84.68229 23.659374 85.24479Q23.175 85.791664 22.05 86.74479Q21.096874 87.541664 20.815624 87.83854Q20.55 88.11979 20.378124 88.40104L24.596874 88.40104ZM26.05 87.166664L27.159374 87.072914Q27.284374 87.885414 27.721874 88.291664Q28.175 88.697914 28.815624 88.697914Q29.565624 88.697914 30.096874 88.11979Q30.628124 87.541664 30.628124 86.604164Q30.628124 85.697914 30.1125 85.18229Q29.6125 84.65104 28.784374 84.65104Q28.284374 84.65104 27.8625 84.885414Q27.45625 85.11979 27.221874 85.479164L26.2375 85.354164L27.065624 80.947914L31.346874 80.947914L31.346874 81.947914L27.909374 81.947914L27.45625 84.260414Q28.221874 83.71354 29.065624 83.71354Q30.190624 83.71354 30.95625 84.49479Q31.7375 85.27604 31.7375 86.510414Q31.7375 87.666664 31.065624 88.52604Q30.2375 89.55729 28.815624 89.55729Q27.64375 89.55729 26.89375 88.90104Q26.159374 88.24479 26.05 87.166664ZM33.05 85.18229Q33.05 83.65104 33.3625 82.729164Q33.675 81.791664 34.284374 81.291664Q34.909374 80.791664 35.846874 80.791664Q36.534374 80.791664 37.05 81.072914Q37.58125 81.354164 37.925 81.885414Q38.26875 82.40104 38.45625 83.15104Q38.64375 83.90104 38.64375 85.18229Q38.64375 86.697914 38.33125 87.61979Q38.034374 88.541664 37.409374 89.05729Q36.8 89.55729 35.846874 89.55729Q34.6125 89.55729 33.89375 88.666664Q33.05 87.604164 33.05 85.18229ZM34.128124 85.18229Q34.128124 87.291664 34.628124 87.99479Q35.128124 88.697914 35.846874 88.697914Q36.58125 88.697914 37.065624 87.99479Q37.565624 87.291664 37.565624 85.18229Q37.565624 83.05729 37.065624 82.36979Q36.58125 81.666664 35.83125 81.666664Q35.1125 81.666664 34.675 82.27604Q34.128124 83.05729 34.128124 85.18229ZM40.64375 89.416664L40.64375 88.21354L41.846874 88.21354L41.846874 89.416664L40.64375 89.416664ZM43.05 85.18229Q43.05 83.65104 43.3625 82.729164Q43.675 81.791664 44.284374 81.291664Q44.909374 80.791664 45.846874 80.791664Q46.534374 80.791664 47.05 81.072914Q47.58125 81.354164 47.925 81.885414Q48.26875 82.40104 48.45625 83.15104Q48.64375 83.90104 48.64375 85.18229Q48.64375 86.697914 48.33125 87.61979Q48.034374 88.541664 47.409374 89.05729Q46.8 89.55729 45.846874 89.55729Q44.6125 89.55729 43.89375 88.666664Q43.05 87.604164 43.05 85.18229ZM44.128124 85.18229Q44.128124 87.291664 44.628124 87.99479Q45.128124 88.697914 45.846874 88.697914Q46.58125 88.697914 47.065624 87.99479Q47.565624 87.291664 47.565624 85.18229Q47.565624 83.05729 47.065624 82.36979Q46.58125 81.666664 45.83125 81.666664Q45.1125 81.666664 44.675 82.27604Q44.128124 83.05729 44.128124 85.18229ZM50.05 85.18229Q50.05 83.65104 50.3625 82.729164Q50.675 81.791664 51.284374 81.291664Q51.909374 80.791664 52.846874 80.791664Q53.534374 80.791664 54.05 81.072914Q54.58125 81.354164 54.925 81.885414Q55.26875 82.40104 55.45625 83.15104Q55.64375 83.90104 55.64375 85.18229Q55.64375 86.697914 55.33125 87.61979Q55.034374 88.541664 54.409374 89.05729Q53.8 89.55729 52.846874 89.55729Q51.6125 89.55729 50.89375 88.666664Q50.05 87.604164 50.05 85.18229ZM51.128124 85.18229Q51.128124 87.291664 51.628124 87.99479Q52.128124 88.697914 52.846874 88.697914Q53.58125 88.697914 54.065624 87.99479Q54.565624 87.291664 54.565624 85.18229Q54.565624 83.05729 54.065624 82.36979Q53.58125 81.666664 52.83125 81.666664Q52.1125 81.666664 51.675 82.27604Q51.128124 83.05729 51.128124 85.18229ZM57.253124 82.885414Q57.253124 81.96354 57.70625 81.322914Q58.175 80.68229 59.05 80.68229Q59.8625 80.68229 60.39375 81.260414Q60.925 81.83854 60.925 82.947914Q60.925 84.041664 60.378124 84.635414Q59.846874 85.21354 59.065624 85.21354Q58.284374 85.21354 57.76875 84.635414Q57.253124 84.05729 57.253124 82.885414ZM59.08125 81.40104Q58.690624 81.40104 58.425 81.74479Q58.175 82.08854 58.175 82.99479Q58.175 83.822914 58.425 84.166664Q58.690624 84.49479 59.08125 84.49479Q59.4875 84.49479 59.7375 84.15104Q60.003124 83.80729 60.003124 82.916664Q60.003124 82.072914 59.7375 81.74479Q59.471874 81.40104 59.08125 81.40104ZM59.08125 89.729164L63.784374 80.68229L64.64375 80.68229L59.95625 89.729164L59.08125 89.729164ZM62.8 87.40104Q62.8 86.479164 63.253124 85.83854Q63.721874 85.197914 64.6125 85.197914Q65.425 85.197914 65.95625 85.77604Q66.4875 86.33854 66.4875 87.46354Q66.4875 88.55729 65.94063 89.15104Q65.40938 89.729164 64.6125 89.729164Q63.846874 89.729164 63.315624 89.15104Q62.8 88.572914 62.8 87.40104ZM64.64375 85.916664Q64.2375 85.916664 63.971874 86.260414Q63.721874 86.604164 63.721874 87.510414Q63.721874 88.322914 63.9875 88.666664Q64.25313 89.010414 64.64375 89.010414Q65.03438 89.010414 65.3 88.666664Q65.56563 88.322914 65.56563 87.416664Q65.56563 86.58854 65.3 86.260414Q65.03438 85.916664 64.64375 85.916664Z" fill-rule="nonzero"/><path fill="#000000" d="M99.21875 347.0125L100.25 346.8719Q100.28125 347.85626 100.609375 348.21564Q100.9375 348.575 101.53125 348.575Q101.953125 348.575 102.265625 348.3875Q102.578125 348.1844 102.6875 347.85626Q102.8125 347.5125 102.8125 346.77814L102.8125 340.85626L103.9375 340.85626L103.9375 346.71564Q103.9375 347.79376 103.671875 348.3875Q103.421875 348.98126 102.859375 349.29376Q102.296875 349.59064 101.53125 349.59064Q100.40625 349.59064 99.796875 348.95Q99.203125 348.29376 99.21875 347.0125ZM109.734375 348.6844Q109.140625 349.1844 108.59375 349.3875Q108.0625 349.59064 107.4375 349.59064Q106.40625 349.59064 105.859375 349.09064Q105.3125 348.59064 105.3125 347.8094Q105.3125 347.35626 105.515625 346.98126Q105.71875 346.59064 106.0625 346.3719Q106.40625 346.1375 106.828125 346.02814Q107.125 345.9344 107.765625 345.85626Q109.03125 345.71564 109.640625 345.4969Q109.640625 345.27814 109.640625 345.23126Q109.640625 344.575 109.34375 344.3094Q108.9375 343.96564 108.140625 343.96564Q107.40625 343.96564 107.046875 344.23126Q106.6875 344.48126 106.515625 345.1375L105.484375 344.9969Q105.625 344.34064 105.953125 343.9344Q106.28125 343.52814 106.890625 343.3094Q107.5 343.09064 108.296875 343.09064Q109.09375 343.09064 109.59375 343.27814Q110.09375 343.46564 110.328125 343.7469Q110.5625 344.02814 110.65625 344.46564Q110.703125 344.73126 110.703125 345.4344L110.703125 346.84064Q110.703125 348.3094 110.765625 348.7Q110.84375 349.09064 111.046875 349.45L109.9375 349.45Q109.78125 349.1219 109.734375 348.6844ZM109.640625 346.325Q109.0625 346.5594 107.921875 346.73126Q107.265625 346.825 107.0 346.95Q106.734375 347.0594 106.578125 347.27814Q106.4375 347.4969 106.4375 347.77814Q106.4375 348.2 106.75 348.48126Q107.078125 348.7625 107.6875 348.7625Q108.296875 348.7625 108.765625 348.4969Q109.25 348.23126 109.46875 347.7625Q109.640625 347.40314 109.640625 346.71564L109.640625 346.325ZM112.671875 351.84064L112.671875 343.23126L113.625 343.23126L113.625 344.02814Q113.96875 343.5594 114.390625 343.325Q114.828125 343.09064 115.4375 343.09064Q116.234375 343.09064 116.84375 343.4969Q117.453125 343.90314 117.75 344.65314Q118.0625 345.40314 118.0625 346.29376Q118.0625 347.2469 117.71875 348.0125Q117.390625 348.77814 116.734375 349.1844Q116.078125 349.59064 115.359375 349.59064Q114.828125 349.59064 114.40625 349.3719Q113.984375 349.1375 113.71875 348.8094L113.71875 351.84064L112.671875 351.84064ZM113.625 346.3719Q113.625 347.575 114.109375 348.15314Q114.59375 348.71564 115.28125 348.71564Q115.984375 348.71564 116.484375 348.1219Q116.984375 347.52814 116.984375 346.27814Q116.984375 345.09064 116.5 344.5125Q116.015625 343.91876 115.328125 343.91876Q114.65625 343.91876 114.140625 344.54376Q113.625 345.16876 113.625 346.3719ZM123.734375 348.6844Q123.140625 349.1844 122.59375 349.3875Q122.0625 349.59064 121.4375 349.59064Q120.40625 349.59064 119.859375 349.09064Q119.3125 348.59064 119.3125 347.8094Q119.3125 347.35626 119.515625 346.98126Q119.71875 346.59064 120.0625 346.3719Q120.40625 346.1375 120.828125 346.02814Q121.125 345.9344 121.765625 345.85626Q123.03125 345.71564 123.640625 345.4969Q123.640625 345.27814 123.640625 345.23126Q123.640625 344.575 123.34375 344.3094Q122.9375 343.96564 122.140625 343.96564Q121.40625 343.96564 121.046875 344.23126Q120.6875 344.48126 120.515625 345.1375L119.484375 344.9969Q119.625 344.34064 119.953125 343.9344Q120.28125 343.52814 120.890625 343.3094Q121.5 343.09064 122.296875 343.09064Q123.09375 343.09064 123.59375 343.27814Q124.09375 343.46564 124.328125 343.7469Q124.5625 344.02814 124.65625 344.46564Q124.703125 344.73126 124.703125 345.4344L124.703125 346.84064Q124.703125 348.3094 124.765625 348.7Q124.84375 349.09064 125.046875 349.45L123.9375 349.45Q123.78125 349.1219 123.734375 348.6844ZM123.640625 346.325Q123.0625 346.5594 121.921875 346.73126Q121.265625 346.825 121.0 346.95Q120.734375 347.0594 120.578125 347.27814Q120.4375 347.4969 120.4375 347.77814Q120.4375 348.2 120.75 348.48126Q121.078125 348.7625 121.6875 348.7625Q122.296875 348.7625 122.765625 348.4969Q123.25 348.23126 123.46875 347.7625Q123.640625 347.40314 123.640625 346.71564L123.640625 346.325ZM126.671875 349.45L126.671875 343.23126L127.609375 343.23126L127.609375 344.10626Q128.29688 343.09064 129.59375 343.09064Q130.15625 343.09064 130.625 343.29376Q131.10938 343.4969 131.34375 343.825Q131.57812 344.15314 131.67188 344.59064Q131.71875 344.8875 131.71875 345.6219L131.71875 349.45L130.67188 349.45L130.67188 345.66876Q130.67188 345.0125 130.54688 344.7Q130.42188 344.3875 130.10938 344.2Q129.79688 343.9969 129.375 343.9969Q128.70312 343.9969 128.20312 344.4344Q127.71875 344.85626 127.71875 346.04376L127.71875 349.45L126.671875 349.45Z" fill-rule="nonzero"/><path fill="#000000" d="M185.47812 346.075L185.47812 345.075L189.10312 345.0594L189.10312 348.2469Q188.275 348.91876 187.38437 349.2625Q186.49374 349.59064 185.55624 349.59064Q184.29062 349.59064 183.24374 349.0594Q182.2125 348.5125 181.68124 347.4969Q181.16562 346.46564 181.16562 345.2Q181.16562 343.9344 181.68124 342.85626Q182.2125 341.7625 183.19687 341.2469Q184.18124 340.71564 185.4625 340.71564Q186.4 340.71564 187.15 341.0125Q187.9 341.3094 188.32187 341.85626Q188.75937 342.3875 188.97812 343.2625L187.9625 343.54376Q187.75937 342.8875 187.4625 342.5125Q187.18124 342.1375 186.65 341.91876Q186.11874 341.6844 185.47812 341.6844Q184.69687 341.6844 184.11874 341.91876Q183.55624 342.15314 183.19687 342.54376Q182.85312 342.9344 182.66562 343.40314Q182.3375 344.2 182.3375 345.1219Q182.3375 346.27814 182.72812 347.0594Q183.13437 347.825 183.88437 348.2Q184.63437 348.575 185.49374 348.575Q186.22812 348.575 186.93124 348.29376Q187.63437 347.9969 187.99374 347.6844L187.99374 346.075L185.47812 346.075ZM190.30624 349.45L190.30624 343.23126L191.25937 343.23126L191.25937 344.16876Q191.61874 343.5125 191.91562 343.3094Q192.22812 343.09064 192.60312 343.09064Q193.13437 343.09064 193.68124 343.41876L193.32187 344.40314Q192.93124 344.16876 192.55624 344.16876Q192.19687 344.16876 191.91562 344.3875Q191.65 344.59064 191.54062 344.96564Q191.35312 345.52814 191.35312 346.1844L191.35312 349.45L190.30624 349.45ZM198.57187 347.45L199.66562 347.575Q199.41562 348.52814 198.7125 349.0594Q198.00937 349.59064 196.93124 349.59064Q195.57187 349.59064 194.75937 348.7469Q193.9625 347.90314 193.9625 346.3875Q193.9625 344.825 194.775 343.96564Q195.5875 343.09064 196.86874 343.09064Q198.11874 343.09064 198.9 343.9344Q199.69687 344.77814 199.69687 346.325Q199.69687 346.41876 199.69687 346.60626L195.05624 346.60626Q195.11874 347.6375 195.63437 348.1844Q196.15 348.71564 196.93124 348.71564Q197.50937 348.71564 197.91562 348.41876Q198.3375 348.10626 198.57187 347.45ZM195.11874 345.7469L198.5875 345.7469Q198.525 344.95 198.19687 344.5594Q197.68124 343.95 196.88437 343.95Q196.15 343.95 195.65 344.4344Q195.16562 344.91876 195.11874 345.7469ZM205.57187 347.45L206.66562 347.575Q206.41562 348.52814 205.7125 349.0594Q205.00937 349.59064 203.93124 349.59064Q202.57187 349.59064 201.75937 348.7469Q200.9625 347.90314 200.9625 346.3875Q200.9625 344.825 201.775 343.96564Q202.5875 343.09064 203.86874 343.09064Q205.11874 343.09064 205.9 343.9344Q206.69687 344.77814 206.69687 346.325Q206.69687 346.41876 206.69687 346.60626L202.05624 346.60626Q202.11874 347.6375 202.63437 348.1844Q203.15 348.71564 203.93124 348.71564Q204.50937 348.71564 204.91562 348.41876Q205.3375 348.10626 205.57187 347.45ZM202.11874 345.7469L205.5875 345.7469Q205.525 344.95 205.19687 344.5594Q204.68124 343.95 203.88437 343.95Q203.15 343.95 202.65 344.4344Q202.16562 344.91876 202.11874 345.7469ZM212.38437 347.16876L213.41562 347.3094Q213.24374 348.3719 212.54062 348.98126Q211.8375 349.59064 210.82187 349.59064Q209.54062 349.59064 208.75937 348.7625Q207.99374 347.91876 207.99374 346.35626Q207.99374 345.35626 208.32187 344.60626Q208.66562 343.84064 209.3375 343.46564Q210.025 343.09064 210.8375 343.09064Q211.8375 343.09064 212.47812 343.60626Q213.13437 344.10626 213.32187 345.0594L212.29062 345.21564Q212.15 344.59064 211.775 344.27814Q211.4 343.95 210.86874 343.95Q210.07187 343.95 209.57187 344.52814Q209.07187 345.09064 209.07187 346.325Q209.07187 347.59064 209.55624 348.15314Q210.04062 348.71564 210.80624 348.71564Q211.43124 348.71564 211.8375 348.34064Q212.25937 347.96564 212.38437 347.16876ZM218.57187 347.45L219.66562 347.575Q219.41562 348.52814 218.7125 349.0594Q218.00937 349.59064 216.93124 349.59064Q215.57187 349.59064 214.75937 348.7469Q213.9625 347.90314 213.9625 346.3875Q213.9625 344.825 214.775 343.96564Q215.5875 343.09064 216.86874 343.09064Q218.11874 343.09064 218.9 343.9344Q219.69687 344.77814 219.69687 346.325Q219.69687 346.41876 219.69687 346.60626L215.05624 346.60626Q215.11874 347.6375 215.63437 348.1844Q216.15 348.71564 216.93124 348.71564Q217.50937 348.71564 217.91562 348.41876Q218.3375 348.10626 218.57187 347.45ZM215.11874 345.7469L218.5875 345.7469Q218.525 344.95 218.19687 344.5594Q217.68124 343.95 216.88437 343.95Q216.15 343.95 215.65 344.4344Q215.16562 344.91876 215.11874 345.7469Z" fill-rule="nonzero"/><path fill="#000000" d="M281.7375 340.85626L282.8781 340.85626L282.8781 345.825Q282.8781 347.1219 282.58124 347.8875Q282.28436 348.6375 281.51874 349.1219Q280.7531 349.59064 279.51874 349.59064Q278.3156 349.59064 277.53436 349.1844Q276.76874 348.7625 276.4406 347.98126Q276.1125 347.1844 276.1125 345.825L276.1125 340.85626L277.2531 340.85626L277.2531 345.8094Q277.2531 346.9344 277.45624 347.46564Q277.675 347.9969 278.175 348.29376Q278.6906 348.575 279.425 348.575Q280.675 348.575 281.20624 348.0125Q281.7375 347.4344 281.7375 345.8094L281.7375 340.85626ZM285.26874 349.45L285.26874 348.2469L286.47186 348.2469L286.47186 349.45L285.26874 349.45ZM287.72186 346.6844L288.78436 346.59064Q288.8625 347.2469 289.14374 347.65314Q289.425 348.0594 290.0031 348.325Q290.59686 348.575 291.33124 348.575Q291.97186 348.575 292.47186 348.3875Q292.97186 348.1844 293.20624 347.85626Q293.45624 347.5125 293.45624 347.1219Q293.45624 346.71564 293.22186 346.41876Q292.9875 346.10626 292.45624 345.90314Q292.09686 345.7625 290.90936 345.48126Q289.7375 345.2 289.26874 344.95Q288.64374 344.6219 288.34686 344.15314Q288.05 343.66876 288.05 343.075Q288.05 342.4344 288.40936 341.8719Q288.78436 341.29376 289.4875 341.0125Q290.20624 340.71564 291.0656 340.71564Q292.01874 340.71564 292.7531 341.02814Q293.4875 341.325 293.8781 341.9344Q294.26874 342.52814 294.3 343.27814L293.20624 343.35626Q293.1125 342.54376 292.59686 342.1375Q292.09686 341.71564 291.1125 341.71564Q290.08124 341.71564 289.6125 342.09064Q289.14374 342.46564 289.14374 342.9969Q289.14374 343.46564 289.47186 343.7625Q289.8 344.0594 291.175 344.3719Q292.5656 344.6844 293.08124 344.91876Q293.83124 345.27814 294.1906 345.8094Q294.55 346.325 294.55 347.02814Q294.55 347.71564 294.15936 348.325Q293.76874 348.91876 293.03436 349.2625Q292.3 349.59064 291.3781 349.59064Q290.20624 349.59064 289.40936 349.2625Q288.6281 348.91876 288.175 348.23126Q287.7375 347.54376 287.72186 346.6844Z" fill-rule="nonzero"/><path fill="#000000" d="M360.3875 346.4344L361.5125 346.73126Q361.15314 348.1219 360.23126 348.85626Q359.3094 349.59064 357.96564 349.59064Q356.575 349.59064 355.7 349.02814Q354.825 348.46564 354.3719 347.40314Q353.91876 346.325 353.91876 345.09064Q353.91876 343.7469 354.4344 342.7469Q354.95 341.7469 355.8875 341.23126Q356.84064 340.71564 357.98126 340.71564Q359.2625 340.71564 360.1375 341.3719Q361.02814 342.02814 361.3719 343.21564L360.2469 343.48126Q359.95 342.54376 359.3719 342.1219Q358.8094 341.6844 357.95 341.6844Q356.96564 341.6844 356.29376 342.16876Q355.6375 342.6375 355.35626 343.4344Q355.09064 344.23126 355.09064 345.09064Q355.09064 346.1844 355.40314 346.9969Q355.73126 347.8094 356.40314 348.21564Q357.075 348.6219 357.8719 348.6219Q358.825 348.6219 359.48126 348.075Q360.15314 347.52814 360.3875 346.4344ZM363.1219 349.45L363.1219 340.85626L364.16876 340.85626L364.16876 343.9344Q364.90314 343.09064 366.02814 343.09064Q366.73126 343.09064 367.23126 343.3719Q367.7469 343.6375 367.96564 344.1219Q368.1844 344.59064 368.1844 345.5125L368.1844 349.45L367.1375 349.45L367.1375 345.5125Q367.1375 344.71564 366.79376 344.35626Q366.45 343.9969 365.825 343.9969Q365.35626 343.9969 364.9344 344.2469Q364.52814 344.48126 364.34064 344.90314Q364.16876 345.3094 364.16876 346.04376L364.16876 349.45L363.1219 349.45ZM370.1219 342.075L370.1219 340.85626L371.1844 340.85626L371.1844 342.075L370.1219 342.075ZM370.1219 349.45L370.1219 343.23126L371.1844 343.23126L371.1844 349.45L370.1219 349.45ZM373.1219 349.45L373.1219 343.23126L374.0594 343.23126L374.0594 344.10626Q374.7469 343.09064 376.04376 343.09064Q376.60626 343.09064 377.075 343.29376Q377.5594 343.4969 377.79376 343.825Q378.02814 344.15314 378.1219 344.59064Q378.16876 344.8875 378.16876 345.6219L378.16876 349.45L377.1219 349.45L377.1219 345.66876Q377.1219 345.0125 376.9969 344.7Q376.8719 344.3875 376.5594 344.2Q376.2469 343.9969 375.825 343.9969Q375.15314 343.9969 374.65314 344.4344Q374.16876 344.85626 374.16876 346.04376L374.16876 349.45L373.1219 349.45ZM384.1844 348.6844Q383.59064 349.1844 383.04376 349.3875Q382.5125 349.59064 381.8875 349.59064Q380.85626 349.59064 380.3094 349.09064Q379.7625 348.59064 379.7625 347.8094Q379.7625 347.35626 379.96564 346.98126Q380.16876 346.59064 380.5125 346.3719Q380.85626 346.1375 381.27814 346.02814Q381.575 345.9344 382.21564 345.85626Q383.48126 345.71564 384.09064 345.4969Q384.09064 345.27814 384.09064 345.23126Q384.09064 344.575 383.79376 344.3094Q383.3875 343.96564 382.59064 343.96564Q381.85626 343.96564 381.4969 344.23126Q381.1375 344.48126 380.96564 345.1375L379.9344 344.9969Q380.075 344.34064 380.40314 343.9344Q380.73126 343.52814 381.34064 343.3094Q381.95 343.09064 382.7469 343.09064Q383.54376 343.09064 384.04376 343.27814Q384.54376 343.46564 384.77814 343.7469Q385.0125 344.02814 385.10626 344.46564Q385.15314 344.73126 385.15314 345.4344L385.15314 346.84064Q385.15314 348.3094 385.21564 348.7Q385.29376 349.09064 385.4969 349.45L384.3875 349.45Q384.23126 349.1219 384.1844 348.6844ZM384.09064 346.325Q383.5125 346.5594 382.3719 346.73126Q381.71564 346.825 381.45 346.95Q381.1844 347.0594 381.02814 347.27814Q380.8875 347.4969 380.8875 347.77814Q380.8875 348.2 381.2 348.48126Q381.52814 348.7625 382.1375 348.7625Q382.7469 348.7625 383.21564 348.4969Q383.7 348.23126 383.91876 347.7625Q384.09064 347.40314 384.09064 346.71564L384.09064 346.325Z" fill-rule="nonzero"/><path fill="#000000" d="M434.42813 346.075L434.42813 345.075L438.05313 345.0594L438.05313 348.2469Q437.225 348.91876 436.33438 349.2625Q435.44376 349.59064 434.50626 349.59064Q433.24063 349.59064 432.19376 349.0594Q431.1625 348.5125 430.63126 347.4969Q430.11563 346.46564 430.11563 345.2Q430.11563 343.9344 430.63126 342.85626Q431.1625 341.7625 432.14688 341.2469Q433.13126 340.71564 434.4125 340.71564Q435.35 340.71564 436.1 341.0125Q436.85 341.3094 437.27188 341.85626Q437.70938 342.3875 437.92813 343.2625L436.9125 343.54376Q436.70938 342.8875 436.4125 342.5125Q436.13126 342.1375 435.6 341.91876Q435.06876 341.6844 434.42813 341.6844Q433.64688 341.6844 433.06876 341.91876Q432.50626 342.15314 432.14688 342.54376Q431.80313 342.9344 431.61563 343.40314Q431.2875 344.2 431.2875 345.1219Q431.2875 346.27814 431.67813 347.0594Q432.08438 347.825 432.83438 348.2Q433.58438 348.575 434.44376 348.575Q435.17813 348.575 435.88126 348.29376Q436.58438 347.9969 436.94376 347.6844L436.94376 346.075L434.42813 346.075ZM443.52188 347.45L444.61563 347.575Q444.36563 348.52814 443.6625 349.0594Q442.95938 349.59064 441.88126 349.59064Q440.52188 349.59064 439.70938 348.7469Q438.9125 347.90314 438.9125 346.3875Q438.9125 344.825 439.725 343.96564Q440.5375 343.09064 441.81876 343.09064Q443.06876 343.09064 443.85 343.9344Q444.64688 344.77814 444.64688 346.325Q444.64688 346.41876 444.64688 346.60626L440.00626 346.60626Q440.06876 347.6375 440.58438 348.1844Q441.1 348.71564 441.88126 348.71564Q442.45938 348.71564 442.86563 348.41876Q443.2875 348.10626 443.52188 347.45ZM440.06876 345.7469L443.5375 345.7469Q443.475 344.95 443.14688 344.5594Q442.63126 343.95 441.83438 343.95Q441.1 343.95 440.6 344.4344Q440.11563 344.91876 440.06876 345.7469ZM446.25626 349.45L446.25626 343.23126L447.20938 343.23126L447.20938 344.16876Q447.56876 343.5125 447.86563 343.3094Q448.17813 343.09064 448.55313 343.09064Q449.08438 343.09064 449.63126 343.41876L449.27188 344.40314Q448.88126 344.16876 448.50626 344.16876Q448.14688 344.16876 447.86563 344.3875Q447.6 344.59064 447.49063 344.96564Q447.30313 345.52814 447.30313 346.1844L447.30313 349.45L446.25626 349.45ZM450.27188 349.45L450.27188 343.23126L451.20938 343.23126L451.20938 344.10626Q451.50626 343.6375 451.99063 343.3719Q452.475 343.09064 453.1 343.09064Q453.7875 343.09064 454.225 343.3719Q454.67813 343.65314 454.85 344.16876Q455.6 343.09064 456.77188 343.09064Q457.70938 343.09064 458.19376 343.60626Q458.69376 344.10626 458.69376 345.1844L458.69376 349.45L457.64688 349.45L457.64688 345.52814Q457.64688 344.90314 457.5375 344.6219Q457.44376 344.34064 457.17813 344.16876Q456.9125 343.9969 456.5375 343.9969Q455.88126 343.9969 455.44376 344.4344Q455.02188 344.8719 455.02188 345.84064L455.02188 349.45L453.95938 349.45L453.95938 345.40314Q453.95938 344.7 453.69376 344.35626Q453.44376 343.9969 452.86563 343.9969Q452.4125 343.9969 452.0375 344.23126Q451.6625 344.46564 451.49063 344.91876Q451.31876 345.3719 451.31876 346.21564L451.31876 349.45L450.27188 349.45ZM465.33438 348.6844Q464.74063 349.1844 464.19376 349.3875Q463.6625 349.59064 463.0375 349.59064Q462.00626 349.59064 461.45938 349.09064Q460.9125 348.59064 460.9125 347.8094Q460.9125 347.35626 461.11563 346.98126Q461.31876 346.59064 461.6625 346.3719Q462.00626 346.1375 462.42813 346.02814Q462.725 345.9344 463.36563 345.85626Q464.63126 345.71564 465.24063 345.4969Q465.24063 345.27814 465.24063 345.23126Q465.24063 344.575 464.94376 344.3094Q464.5375 343.96564 463.74063 343.96564Q463.00626 343.96564 462.64688 344.23126Q462.2875 344.48126 462.11563 345.1375L461.08438 344.9969Q461.225 344.34064 461.55313 343.9344Q461.88126 343.52814 462.49063 343.3094Q463.1 343.09064 463.89688 343.09064Q464.69376 343.09064 465.19376 343.27814Q465.69376 343.46564 465.92813 343.7469Q466.1625 344.02814 466.25626 344.46564Q466.30313 344.73126 466.30313 345.4344L466.30313 346.84064Q466.30313 348.3094 466.36563 348.7Q466.44376 349.09064 466.64688 349.45L465.5375 349.45Q465.38126 349.1219 465.33438 348.6844ZM465.24063 346.325Q464.6625 346.5594 463.52188 346.73126Q462.86563 346.825 462.6 346.95Q462.33438 347.0594 462.17813 347.27814Q462.0375 347.4969 462.0375 347.77814Q462.0375 348.2 462.35 348.48126Q462.67813 348.7625 463.2875 348.7625Q463.89688 348.7625 464.36563 348.4969Q464.85 348.23126 465.06876 347.7625Q465.24063 347.40314 465.24063 346.71564L465.24063 346.325ZM468.27188 349.45L468.27188 343.23126L469.20938 343.23126L469.20938 344.10626Q469.89688 343.09064 471.19376 343.09064Q471.75626 343.09064 472.225 343.29376Q472.70938 343.4969 472.94376 343.825Q473.17813 344.15314 473.27188 344.59064Q473.31876 344.8875 473.31876 345.6219L473.31876 349.45L472.27188 349.45L472.27188 345.66876Q472.27188 345.0125 472.14688 344.7Q472.02188 344.3875 471.70938 344.2Q471.39688 343.9969 470.975 343.9969Q470.30313 343.9969 469.80313 344.4344Q469.31876 344.85626 469.31876 346.04376L469.31876 349.45L468.27188 349.45ZM475.225 351.84064L475.1 350.85626Q475.44376 350.95 475.70938 350.95Q476.05313 350.95 476.25626 350.825Q476.475 350.71564 476.61563 350.5125Q476.70938 350.34064 476.94376 349.71564Q476.95938 349.6375 477.0375 349.46564L474.6625 343.23126L475.80313 343.23126L477.1 346.825Q477.35 347.5125 477.55313 348.27814Q477.74063 347.54376 477.99063 346.85626L479.31876 343.23126L480.36563 343.23126L478.00626 349.5594Q477.61563 350.575 477.4125 350.96564Q477.13126 351.4969 476.75626 351.73126Q476.39688 351.98126 475.89688 351.98126Q475.6 351.98126 475.225 351.84064Z" fill-rule="nonzero"/><path fill="#000000" d="M514.0469 349.45L514.0469 340.85626L517.2969 340.85626Q518.1406 340.85626 518.59375 340.9344Q519.2344 341.04376 519.65625 341.34064Q520.09375 341.6375 520.34375 342.16876Q520.6094 342.7 520.6094 343.34064Q520.6094 344.4344 519.90625 345.2Q519.21875 345.95 517.3906 345.95L515.1875 345.95L515.1875 349.45L514.0469 349.45ZM515.1875 344.95L517.40625 344.95Q518.5156 344.95 518.96875 344.54376Q519.4375 344.1219 519.4375 343.3719Q519.4375 342.84064 519.15625 342.46564Q518.8906 342.075 518.4531 341.95Q518.15625 341.8719 517.3906 341.8719L515.1875 341.8719L515.1875 344.95ZM525.9844 348.6844Q525.3906 349.1844 524.84375 349.3875Q524.3125 349.59064 523.6875 349.59064Q522.65625 349.59064 522.1094 349.09064Q521.5625 348.59064 521.5625 347.8094Q521.5625 347.35626 521.7656 346.98126Q521.96875 346.59064 522.3125 346.3719Q522.65625 346.1375 523.0781 346.02814Q523.375 345.9344 524.0156 345.85626Q525.28125 345.71564 525.8906 345.4969Q525.8906 345.27814 525.8906 345.23126Q525.8906 344.575 525.59375 344.3094Q525.1875 343.96564 524.3906 343.96564Q523.65625 343.96564 523.2969 344.23126Q522.9375 344.48126 522.7656 345.1375L521.7344 344.9969Q521.875 344.34064 522.2031 343.9344Q522.53125 343.52814 523.1406 343.3094Q523.75 343.09064 524.5469 343.09064Q525.34375 343.09064 525.84375 343.27814Q526.34375 343.46564 526.5781 343.7469Q526.8125 344.02814 526.90625 344.46564Q526.9531 344.73126 526.9531 345.4344L526.9531 346.84064Q526.9531 348.3094 527.0156 348.7Q527.09375 349.09064 527.2969 349.45L526.1875 349.45Q526.03125 349.1219 525.9844 348.6844ZM525.8906 346.325Q525.3125 346.5594 524.1719 346.73126Q523.5156 346.825 523.25 346.95Q522.9844 347.0594 522.8281 347.27814Q522.6875 347.4969 522.6875 347.77814Q522.6875 348.2 523.0 348.48126Q523.3281 348.7625 523.9375 348.7625Q524.5469 348.7625 525.0156 348.4969Q525.5 348.23126 525.71875 347.7625Q525.8906 347.40314 525.8906 346.71564L525.8906 346.325ZM528.90625 349.45L528.90625 343.23126L529.8594 343.23126L529.8594 344.16876Q530.21875 343.5125 530.5156 343.3094Q530.8281 343.09064 531.2031 343.09064Q531.7344 343.09064 532.28125 343.41876L531.9219 344.40314Q531.53125 344.16876 531.15625 344.16876Q530.7969 344.16876 530.5156 344.3875Q530.25 344.59064 530.1406 344.96564Q529.9531 345.52814 529.9531 346.1844L529.9531 349.45L528.90625 349.45ZM536.9844 348.6844Q536.3906 349.1844 535.84375 349.3875Q535.3125 349.59064 534.6875 349.59064Q533.65625 349.59064 533.1094 349.09064Q532.5625 348.59064 532.5625 347.8094Q532.5625 347.35626 532.7656 346.98126Q532.96875 346.59064 533.3125 346.3719Q533.65625 346.1375 534.0781 346.02814Q534.375 345.9344 535.0156 345.85626Q536.28125 345.71564 536.8906 345.4969Q536.8906 345.27814 536.8906 345.23126Q536.8906 344.575 536.59375 344.3094Q536.1875 343.96564 535.3906 343.96564Q534.65625 343.96564 534.2969 344.23126Q533.9375 344.48126 533.7656 345.1375L532.7344 344.9969Q532.875 344.34064 533.2031 343.9344Q533.53125 343.52814 534.1406 343.3094Q534.75 343.09064 535.5469 343.09064Q536.34375 343.09064 536.84375 343.27814Q537.34375 343.46564 537.5781 343.7469Q537.8125 344.02814 537.90625 344.46564Q537.9531 344.73126 537.9531 345.4344L537.9531 346.84064Q537.9531 348.3094 538.0156 348.7Q538.09375 349.09064 538.2969 349.45L537.1875 349.45Q537.03125 349.1219 536.9844 348.6844ZM536.8906 346.325Q536.3125 346.5594 535.1719 346.73126Q534.5156 346.825 534.25 346.95Q533.9844 347.0594 533.8281 347.27814Q533.6875 347.4969 533.6875 347.77814Q533.6875 348.2 534.0 348.48126Q534.3281 348.7625 534.9375 348.7625Q535.5469 348.7625 536.0156 348.4969Q536.5 348.23126 536.71875 347.7625Q536.8906 347.40314 536.8906 346.71564L536.8906 346.325ZM539.71875 349.96564L540.75 350.1219Q540.8125 350.59064 541.1094 350.8094Q541.5 351.10626 542.1719 351.10626Q542.90625 351.10626 543.2969 350.8094Q543.7031 350.5125 543.84375 349.9969Q543.9375 349.66876 543.9219 348.6375Q543.2344 349.45 542.2031 349.45Q540.9219 349.45 540.21875 348.52814Q539.5156 347.59064 539.5156 346.3094Q539.5156 345.41876 539.8281 344.66876Q540.15625 343.90314 540.7656 343.4969Q541.375 343.09064 542.2031 343.09064Q543.3125 343.09064 544.03125 343.98126L544.03125 343.23126L545.0 343.23126L545.0 348.60626Q545.0 350.0594 544.7031 350.66876Q544.40625 351.27814 543.7656 351.6219Q543.125 351.98126 542.1875 351.98126Q541.0781 351.98126 540.3906 351.48126Q539.7031 350.98126 539.71875 349.96564ZM540.59375 346.23126Q540.59375 347.45 541.0781 348.0125Q541.5625 348.575 542.2969 348.575Q543.03125 348.575 543.5156 348.0125Q544.0156 347.45 544.0156 346.2625Q544.0156 345.1219 543.5 344.54376Q543.0 343.96564 542.28125 343.96564Q541.5781 343.96564 541.0781 344.54376Q540.59375 345.10626 540.59375 346.23126ZM551.0 349.45L551.0 348.52814Q550.2656 349.59064 549.0156 349.59064Q548.46875 349.59064 547.9844 349.3875Q547.5156 349.16876 547.28125 348.85626Q547.0469 348.52814 546.9531 348.0594Q546.8906 347.7625 546.8906 347.075L546.8906 343.23126L547.9531 343.23126L547.9531 346.6844Q547.9531 347.4969 548.0156 347.79376Q548.1094 348.2 548.4219 348.45Q548.75 348.6844 549.2344 348.6844Q549.7031 348.6844 550.1094 348.45Q550.53125 348.2 550.7031 347.77814Q550.8906 347.35626 550.8906 346.5594L550.8906 343.23126L551.9375 343.23126L551.9375 349.45L551.0 349.45ZM557.9844 348.6844Q557.3906 349.1844 556.84375 349.3875Q556.3125 349.59064 555.6875 349.59064Q554.65625 349.59064 554.1094 349.09064Q553.5625 348.59064 553.5625 347.8094Q553.5625 347.35626 553.7656 346.98126Q553.96875 346.59064 554.3125 346.3719Q554.65625 346.1375 555.0781 346.02814Q555.375 345.9344 556.0156 345.85626Q557.28125 345.71564 557.8906 345.4969Q557.8906 345.27814 557.8906 345.23126Q557.8906 344.575 557.59375 344.3094Q557.1875 343.96564 556.3906 343.96564Q555.65625 343.96564 555.2969 344.23126Q554.9375 344.48126 554.7656 345.1375L553.7344 344.9969Q553.875 344.34064 554.2031 343.9344Q554.53125 343.52814 555.1406 343.3094Q555.75 343.09064 556.5469 343.09064Q557.34375 343.09064 557.84375 343.27814Q558.34375 343.46564 558.5781 343.7469Q558.8125 344.02814 558.90625 344.46564Q558.9531 344.73126 558.9531 345.4344L558.9531 346.84064Q558.9531 348.3094 559.0156 348.7Q559.09375 349.09064 559.2969 349.45L558.1875 349.45Q558.03125 349.1219 557.9844 348.6844ZM557.8906 346.325Q557.3125 346.5594 556.1719 346.73126Q555.5156 346.825 555.25 346.95Q554.9844 347.0594 554.8281 347.27814Q554.6875 347.4969 554.6875 347.77814Q554.6875 348.2 555.0 348.48126Q555.3281 348.7625 555.9375 348.7625Q556.5469 348.7625 557.0156 348.4969Q557.5 348.23126 557.71875 347.7625Q557.8906 347.40314 557.8906 346.71564L557.8906 346.325ZM560.875 351.84064L560.75 350.85626Q561.09375 350.95 561.3594 350.95Q561.7031 350.95 561.90625 350.825Q562.125 350.71564 562.2656 350.5125Q562.3594 350.34064 562.59375 349.71564Q562.6094 349.6375 562.6875 349.46564L560.3125 343.23126L561.4531 343.23126L562.75 346.825Q563.0 347.5125 563.2031 348.27814Q563.3906 347.54376 563.6406 346.85626L564.96875 343.23126L566.0156 343.23126L563.65625 349.5594Q563.2656 350.575 563.0625 350.96564Q562.78125 351.4969 562.40625 351.73126Q562.0469 351.98126 561.5469 351.98126Q561.25 351.98126 560.875 351.84064Z" fill-rule="nonzero"/><path fill="#999999" d="M19.64375 63.05L19.64375 53.034374L24.096874 53.034374Q25.440624 53.034374 26.128124 53.3Q26.83125 53.565624 27.2375 54.253124Q27.659374 54.940624 27.659374 55.76875Q27.659374 56.83125 26.971874 57.565624Q26.284374 58.284374 24.846874 58.4875Q25.3625 58.7375 25.64375 58.9875Q26.221874 59.51875 26.7375 60.315624L28.4875 63.05L26.815624 63.05L25.4875 60.971874Q24.909374 60.065624 24.534374 59.596874Q24.159374 59.1125 23.8625 58.925Q23.565624 58.721874 23.253124 58.64375Q23.034374 58.596874 22.51875 58.596874L20.971874 58.596874L20.971874 63.05L19.64375 63.05ZM20.971874 57.45625L23.83125 57.45625Q24.7375 57.45625 25.253124 57.26875Q25.76875 57.08125 26.034374 56.675Q26.3 56.253124 26.3 55.76875Q26.3 55.05 25.784374 54.596874Q25.26875 54.128124 24.14375 54.128124L20.971874 54.128124L20.971874 57.45625ZM34.20625 62.159374Q33.534374 62.7375 32.89375 62.9875Q32.26875 63.221874 31.534374 63.221874Q30.346874 63.221874 29.690624 62.64375Q29.05 62.05 29.05 61.128124Q29.05 60.596874 29.284374 60.159374Q29.534374 59.721874 29.925 59.45625Q30.33125 59.190624 30.815624 59.05Q31.175 58.95625 31.909374 58.8625Q33.409374 58.690624 34.1125 58.440624Q34.1125 58.190624 34.1125 58.128124Q34.1125 57.3625 33.76875 57.065624Q33.3 56.64375 32.3625 56.64375Q31.503124 56.64375 31.08125 56.95625Q30.675 57.253124 30.471874 58.01875L29.26875 57.8625Q29.425 57.08125 29.8 56.6125Q30.190624 56.14375 30.89375 55.89375Q31.6125 55.628124 32.55 55.628124Q33.471874 55.628124 34.05 55.846874Q34.628124 56.065624 34.89375 56.39375Q35.175 56.721874 35.284374 57.2375Q35.346874 57.55 35.346874 58.3625L35.346874 60.003124Q35.346874 61.721874 35.425 62.175Q35.503124 62.628124 35.7375 63.05L34.45625 63.05Q34.26875 62.659374 34.20625 62.159374ZM34.1125 59.409374Q33.440624 59.675 32.096874 59.878124Q31.346874 59.9875 31.01875 60.128124Q30.70625 60.253124 30.534374 60.51875Q30.3625 60.784374 30.3625 61.096874Q30.3625 61.596874 30.7375 61.925Q31.1125 62.253124 31.83125 62.253124Q32.55 62.253124 33.096874 61.940624Q33.64375 61.628124 33.909374 61.08125Q34.1125 60.675 34.1125 59.8625L34.1125 59.409374ZM37.471874 63.05L37.471874 55.784374L38.58125 55.784374L38.58125 56.815624Q39.378124 55.628124 40.89375 55.628124Q41.55 55.628124 42.096874 55.8625Q42.64375 56.096874 42.909374 56.4875Q43.190624 56.8625 43.3 57.39375Q43.378124 57.7375 43.378124 58.58125L43.378124 63.05L42.14375 63.05L42.14375 58.628124Q42.14375 57.878124 42.003124 57.51875Q41.8625 57.14375 41.4875 56.925Q41.128124 56.690624 40.628124 56.690624Q39.846874 56.690624 39.26875 57.190624Q38.70625 57.690624 38.70625 59.08125L38.70625 63.05L37.471874 63.05ZM45.4875 63.05L45.4875 53.034374L46.70625 53.034374L46.70625 58.7375L49.628124 55.784374L51.221874 55.784374L48.440624 58.4875L51.503124 63.05L49.971874 63.05L47.58125 59.33125L46.70625 60.175L46.70625 63.05L45.4875 63.05ZM57.440624 60.70625L58.721874 60.8625Q58.409374 61.9875 57.596874 62.6125Q56.784374 63.221874 55.51875 63.221874Q53.925 63.221874 52.9875 62.2375Q52.065624 61.253124 52.065624 59.4875Q52.065624 57.64375 53.003124 56.64375Q53.95625 55.628124 55.45625 55.628124Q56.909374 55.628124 57.83125 56.628124Q58.753124 57.6125 58.753124 59.409374Q58.753124 59.51875 58.753124 59.7375L53.33125 59.7375Q53.409374 60.925 54.003124 61.565624Q54.6125 62.20625 55.534374 62.20625Q56.20625 62.20625 56.675 61.846874Q57.159374 61.4875 57.440624 60.70625ZM53.409374 58.721874L57.45625 58.721874Q57.378124 57.8 56.9875 57.346874Q56.409374 56.64375 55.471874 56.64375Q54.6125 56.64375 54.034374 57.20625Q53.471874 57.76875 53.409374 58.721874ZM65.19063 63.05L65.19063 62.128124Q64.4875 63.221874 63.159374 63.221874Q62.284374 63.221874 61.55 62.7375Q60.83125 62.253124 60.425 61.39375Q60.034374 60.534374 60.034374 59.425Q60.034374 58.346874 60.39375 57.45625Q60.753124 56.565624 61.471874 56.096874Q62.20625 55.628124 63.096874 55.628124Q63.753124 55.628124 64.26875 55.909374Q64.78438 56.175 65.09688 56.628124L65.09688 53.034374L66.33125 53.034374L66.33125 63.05L65.19063 63.05ZM61.3 59.425Q61.3 60.815624 61.878124 61.51875Q62.471874 62.20625 63.26875 62.20625Q64.08125 62.20625 64.64375 61.55Q65.20625 60.878124 65.20625 59.534374Q65.20625 58.034374 64.62813 57.346874Q64.05 56.64375 63.221874 56.64375Q62.39375 56.64375 61.846874 57.315624Q61.3 57.9875 61.3 59.425ZM73.6125 63.05L72.47188 63.05L72.47188 53.034374L73.69063 53.034374L73.69063 56.596874Q74.47188 55.628124 75.69063 55.628124Q76.3625 55.628124 76.95625 55.89375Q77.55 56.159374 77.94063 56.659374Q78.33125 57.14375 78.55 57.83125Q78.76875 58.51875 78.76875 59.315624Q78.76875 61.175 77.83125 62.20625Q76.90938 63.221874 75.62813 63.221874Q74.34688 63.221874 73.6125 62.14375L73.6125 63.05ZM73.59688 59.3625Q73.59688 60.675 73.95625 61.253124Q74.53438 62.20625 75.51875 62.20625Q76.33125 62.20625 76.90938 61.503124Q77.50313 60.8 77.50313 59.409374Q77.50313 57.9875 76.94063 57.315624Q76.37813 56.64375 75.58125 56.64375Q74.76875 56.64375 74.175 57.346874Q73.59688 58.034374 73.59688 59.3625ZM80.425 65.84688L80.28438 64.69063Q80.69063 64.8 80.9875 64.8Q81.39375 64.8 81.64375 64.65938Q81.89375 64.53438 82.05 64.28438Q82.15938 64.09688 82.425 63.3625Q82.45625 63.26875 82.53438 63.065624L79.76875 55.784374L81.09688 55.784374L82.6125 59.9875Q82.90938 60.8 83.14375 61.675Q83.34688 60.83125 83.64375 60.01875L85.19063 55.784374L86.425 55.784374L83.65938 63.175Q83.22188 64.3625 82.97188 64.81563Q82.64375 65.425 82.22188 65.70625Q81.8 66.00313 81.20625 66.00313Q80.8625 66.00313 80.425 65.84688ZM96.20625 60.39375L97.425 60.55Q97.22188 61.8 96.39375 62.51875Q95.58125 63.221874 94.39375 63.221874Q92.90938 63.221874 92.00313 62.253124Q91.09688 61.26875 91.09688 59.440624Q91.09688 58.26875 91.4875 57.39375Q91.87813 56.503124 92.675 56.065624Q93.47188 55.628124 94.40938 55.628124Q95.58125 55.628124 96.33125 56.221874Q97.09688 56.815624 97.3 57.925L96.1125 58.1125Q95.94063 57.378124 95.50313 57.01875Q95.06563 56.64375 94.45625 56.64375Q93.51875 56.64375 92.94063 57.315624Q92.3625 57.971874 92.3625 59.409374Q92.3625 60.878124 92.925 61.55Q93.4875 62.20625 94.37813 62.20625Q95.1125 62.20625 95.59688 61.76875Q96.08125 61.315624 96.20625 60.39375ZM98.01875 59.425Q98.01875 57.409374 99.14375 56.425Q100.06563 55.628124 101.425 55.628124Q102.90938 55.628124 103.8625 56.6125Q104.81563 57.58125 104.81563 59.315624Q104.81563 60.721874 104.39375 61.534374Q103.97188 62.33125 103.15938 62.784374Q102.3625 63.221874 101.425 63.221874Q99.89375 63.221874 98.95625 62.2375Q98.01875 61.253124 98.01875 59.425ZM99.28438 59.425Q99.28438 60.815624 99.89375 61.51875Q100.50313 62.20625 101.425 62.20625Q102.33125 62.20625 102.94063 61.503124Q103.55 60.8 103.55 59.378124Q103.55 58.034374 102.94063 57.346874Q102.33125 56.64375 101.425 56.64375Q100.50313 56.64375 99.89375 57.33125Q99.28438 58.01875 99.28438 59.425ZM111.2375 63.05L111.2375 61.9875Q110.37813 63.221874 108.925 63.221874Q108.28438 63.221874 107.72188 62.971874Q107.175 62.721874 106.89375 62.346874Q106.62813 61.971874 106.51875 61.440624Q106.44063 61.08125 106.44063 60.284374L106.44063 55.784374L107.675 55.784374L107.675 59.815624Q107.675 60.784374 107.75313 61.1125Q107.8625 61.596874 108.2375 61.878124Q108.6125 62.159374 109.175 62.159374Q109.72188 62.159374 110.20625 61.878124Q110.69063 61.58125 110.89375 61.096874Q111.09688 60.6125 111.09688 59.675L111.09688 55.784374L112.33125 55.784374L112.33125 63.05L111.2375 63.05ZM114.47188 63.05L114.47188 55.784374L115.58125 55.784374L115.58125 56.815624Q116.37813 55.628124 117.89375 55.628124Q118.55 55.628124 119.09688 55.8625Q119.64375 56.096874 119.90938 56.4875Q120.19063 56.8625 120.3 57.39375Q120.37813 57.7375 120.37813 58.58125L120.37813 63.05L119.14375 63.05L119.14375 58.628124Q119.14375 57.878124 119.00313 57.51875Q118.8625 57.14375 118.4875 56.925Q118.12813 56.690624 117.62813 56.690624Q116.84688 56.690624 116.26875 57.190624Q115.70625 57.690624 115.70625 59.08125L115.70625 63.05L114.47188 63.05ZM125.15938 61.95625L125.33125 63.034374Q124.81563 63.14375 124.40938 63.14375Q123.7375 63.14375 123.3625 62.940624Q123.00313 62.721874 122.84688 62.378124Q122.70625 62.034374 122.70625 60.925L122.70625 56.753124L121.8 56.753124L121.8 55.784374L122.70625 55.784374L122.70625 53.9875L123.925 53.253124L123.925 55.784374L125.15938 55.784374L125.15938 56.753124L123.925 56.753124L123.925 60.9875Q123.925 61.51875 123.9875 61.675Q124.05 61.815624 124.19063 61.909374Q124.34688 62.003124 124.6125 62.003124Q124.83125 62.003124 125.15938 61.95625ZM126.45625 63.05L126.45625 55.784374L127.56563 55.784374L127.56563 56.89375Q127.9875 56.1125 128.34688 55.878124Q128.70625 55.628124 129.14375 55.628124Q129.76875 55.628124 130.40938 56.01875L129.9875 57.159374Q129.53438 56.89375 129.08125 56.89375Q128.675 56.89375 128.34688 57.14375Q128.03438 57.378124 127.89375 57.815624Q127.69063 58.471874 127.69063 59.253124L127.69063 63.05L126.45625 63.05ZM131.425 65.84688L131.28438 64.69063Q131.69063 64.8 131.9875 64.8Q132.39375 64.8 132.64375 64.65938Q132.89375 64.53438 133.05 64.28438Q133.15938 64.09688 133.425 63.3625Q133.45625 63.26875 133.53438 63.065624L130.76875 55.784374L132.09688 55.784374L133.6125 59.9875Q133.90938 60.8 134.14375 61.675Q134.34688 60.83125 134.64375 60.01875L136.19063 55.784374L137.425 55.784374L134.65938 63.175Q134.22188 64.3625 133.97188 64.81563Q133.64375 65.425 133.22188 65.70625Q132.8 66.00313 132.20625 66.00313Q131.8625 66.00313 131.425 65.84688Z" fill-rule="nonzero"/><path fill="#757575" d="M20.096874 37.55L20.096874 23.2375L25.01875 23.2375Q26.690624 23.2375 27.58125 23.440624Q28.8 23.721874 29.675 24.45625Q30.8 25.425 31.3625 26.909374Q31.925 28.39375 31.925 30.315624Q31.925 31.940624 31.55 33.20625Q31.175 34.45625 30.565624 35.284374Q29.971874 36.1125 29.26875 36.596874Q28.565624 37.065624 27.565624 37.315624Q26.565624 37.55 25.253124 37.55L20.096874 37.55ZM21.9875 35.8625L25.05 35.8625Q26.45625 35.8625 27.253124 35.596874Q28.065624 35.33125 28.55 34.846874Q29.221874 34.175 29.596874 33.05Q29.971874 31.909374 29.971874 30.284374Q29.971874 28.034374 29.2375 26.83125Q28.503124 25.628124 27.440624 25.221874Q26.690624 24.925 25.003124 24.925L21.9875 24.925L21.9875 35.8625ZM40.971874 34.20625L42.784374 34.440624Q42.3625 36.01875 41.190624 36.909374Q40.034374 37.784374 38.221874 37.784374Q35.95625 37.784374 34.6125 36.39375Q33.284374 34.9875 33.284374 32.45625Q33.284374 29.83125 34.628124 28.39375Q35.971874 26.940624 38.128124 26.940624Q40.20625 26.940624 41.51875 28.3625Q42.846874 29.76875 42.846874 32.346874Q42.846874 32.503124 42.83125 32.815624L35.096874 32.815624Q35.190624 34.51875 36.065624 35.425Q36.940624 36.33125 38.2375 36.33125Q39.20625 36.33125 39.878124 35.83125Q40.565624 35.315624 40.971874 34.20625ZM35.190624 31.3625L40.9875 31.3625Q40.878124 30.065624 40.33125 29.409374Q39.4875 28.39375 38.14375 28.39375Q36.940624 28.39375 36.1125 29.20625Q35.284374 30.003124 35.190624 31.3625ZM46.4875 37.55L44.8625 37.55L44.8625 23.2375L46.6125 23.2375L46.6125 28.346874Q47.7375 26.940624 49.45625 26.940624Q50.409374 26.940624 51.26875 27.33125Q52.128124 27.721874 52.675 28.425Q53.221874 29.1125 53.534374 30.096874Q53.846874 31.08125 53.846874 32.20625Q53.846874 34.878124 52.534374 36.33125Q51.221874 37.784374 49.378124 37.784374Q47.534374 37.784374 46.4875 36.253124L46.4875 37.55ZM46.471874 32.284374Q46.471874 34.14375 46.971874 34.9875Q47.815624 36.33125 49.221874 36.33125Q50.378124 36.33125 51.20625 35.33125Q52.05 34.33125 52.05 32.346874Q52.05 30.315624 51.2375 29.3625Q50.440624 28.39375 49.3 28.39375Q48.14375 28.39375 47.3 29.39375Q46.471874 30.39375 46.471874 32.284374ZM59.70625 35.971874L59.95625 37.534374Q59.221874 37.690624 58.628124 37.690624Q57.675 37.690624 57.14375 37.39375Q56.628124 37.08125 56.409374 36.596874Q56.190624 36.096874 56.190624 34.51875L56.190624 28.55L54.909374 28.55L54.909374 27.175L56.190624 27.175L56.190624 24.6125L57.940624 23.55L57.940624 27.175L59.70625 27.175L59.70625 28.55L57.940624 28.55L57.940624 34.6125Q57.940624 35.3625 58.034374 35.58125Q58.128124 35.784374 58.33125 35.925Q58.55 36.05 58.940624 36.05Q59.221874 36.05 59.70625 35.971874ZM69.4875 37.55L67.8625 37.55L67.8625 23.2375L69.6125 23.2375L69.6125 28.346874Q70.7375 26.940624 72.45625 26.940624Q73.40938 26.940624 74.26875 27.33125Q75.12813 27.721874 75.675 28.425Q76.22188 29.1125 76.53438 30.096874Q76.84688 31.08125 76.84688 32.20625Q76.84688 34.878124 75.53438 36.33125Q74.22188 37.784374 72.37813 37.784374Q70.53438 37.784374 69.4875 36.253124L69.4875 37.55ZM69.47188 32.284374Q69.47188 34.14375 69.97188 34.9875Q70.81563 36.33125 72.22188 36.33125Q73.37813 36.33125 74.20625 35.33125Q75.05 34.33125 75.05 32.346874Q75.05 30.315624 74.2375 29.3625Q73.44063 28.39375 72.3 28.39375Q71.14375 28.39375 70.3 29.39375Q69.47188 30.39375 69.47188 32.284374ZM78.78438 41.55L78.59688 39.89375Q79.175 40.05 79.59688 40.05Q80.19063 40.05 80.53438 39.846874Q80.89375 39.659374 81.1125 39.315624Q81.28438 39.05 81.65938 38.003124Q81.70625 37.846874 81.81563 37.565624L77.87813 27.175L79.76875 27.175L81.925 33.190624Q82.34688 34.33125 82.675 35.58125Q82.9875 34.378124 83.39375 33.221874L85.6125 27.175L87.37813 27.175L83.425 37.721874Q82.8 39.440624 82.44063 40.08125Q81.97188 40.95625 81.3625 41.346874Q80.76875 41.753124 79.925 41.753124Q79.40938 41.753124 78.78438 41.55ZM94.70625 26.675Q94.70625 25.14375 95.47188 24.065624Q96.25313 22.9875 97.72188 22.9875Q99.06563 22.9875 99.94063 23.95625Q100.83125 24.909374 100.83125 26.784374Q100.83125 28.596874 99.94063 29.58125Q99.05 30.55 97.7375 30.55Q96.44063 30.55 95.56563 29.596874Q94.70625 28.628124 94.70625 26.675ZM97.76875 24.20625Q97.1125 24.20625 96.675 24.76875Q96.25313 25.33125 96.25313 26.846874Q96.25313 28.221874 96.69063 28.784374Q97.12813 29.346874 97.76875 29.346874Q98.44063 29.346874 98.8625 28.784374Q99.3 28.20625 99.3 26.70625Q99.3 25.315624 98.8625 24.76875Q98.425 24.20625 97.76875 24.20625ZM97.78438 38.08125L105.6125 22.9875L107.03438 22.9875L99.2375 38.08125L97.78438 38.08125ZM103.97188 34.190624Q103.97188 32.64375 104.7375 31.58125Q105.51875 30.503124 106.9875 30.503124Q108.33125 30.503124 109.20625 31.471874Q110.09688 32.425 110.09688 34.3Q110.09688 36.1125 109.20625 37.096874Q108.31563 38.08125 107.00313 38.08125Q105.70625 38.08125 104.83125 37.1125Q103.97188 36.128124 103.97188 34.190624ZM107.03438 31.721874Q106.37813 31.721874 105.94063 32.284374Q105.50313 32.846874 105.50313 34.3625Q105.50313 35.7375 105.94063 36.3Q106.37813 36.8625 107.03438 36.8625Q107.70625 36.8625 108.12813 36.3Q108.56563 35.7375 108.56563 34.221874Q108.56563 32.846874 108.12813 32.284374Q107.69063 31.721874 107.03438 31.721874ZM118.22188 32.3625Q118.22188 29.4875 119.81563 28.096874Q121.15938 26.940624 123.08125 26.940624Q125.22188 26.940624 126.56563 28.346874Q127.925 29.753124 127.925 32.221874Q127.925 34.221874 127.33125 35.378124Q126.7375 36.51875 125.58125 37.159374Q124.44063 37.784374 123.08125 37.784374Q120.89375 37.784374 119.55 36.39375Q118.22188 34.9875 118.22188 32.3625ZM120.01875 32.3625Q120.01875 34.3625 120.87813 35.346874Q121.75313 36.33125 123.08125 36.33125Q124.39375 36.33125 125.25313 35.346874Q126.12813 34.346874 126.12813 32.3Q126.12813 30.378124 125.25313 29.39375Q124.37813 28.39375 123.08125 28.39375Q121.75313 28.39375 120.87813 29.39375Q120.01875 30.378124 120.01875 32.3625ZM130.28438 37.55L130.28438 28.55L128.7375 28.55L128.7375 27.175L130.28438 27.175L130.28438 26.08125Q130.28438 25.034374 130.47188 24.51875Q130.72188 23.83125 131.3625 23.409374Q132.00313 22.9875 133.15938 22.9875Q133.90938 22.9875 134.8 23.159374L134.53438 24.690624Q133.9875 24.596874 133.50313 24.596874Q132.70625 24.596874 132.3625 24.940624Q132.03438 25.284374 132.03438 26.221874L132.03438 27.175L134.06563 27.175L134.06563 28.55L132.03438 28.55L132.03438 37.55L130.28438 37.55ZM148.8 31.940624L148.8 30.253124L154.8625 30.2375L154.8625 35.55Q153.45625 36.675 151.97188 37.2375Q150.4875 37.8 148.925 37.8Q146.81563 37.8 145.09688 36.89375Q143.37813 35.9875 142.4875 34.284374Q141.6125 32.565624 141.6125 30.45625Q141.6125 28.3625 142.4875 26.565624Q143.3625 24.753124 145.00313 23.878124Q146.64375 22.9875 148.78438 22.9875Q150.33125 22.9875 151.58125 23.4875Q152.84688 23.9875 153.55 24.89375Q154.26875 25.784374 154.64375 27.2375L152.94063 27.70625Q152.6125 26.6125 152.12813 25.9875Q151.65938 25.3625 150.76875 24.9875Q149.87813 24.6125 148.8 24.6125Q147.4875 24.6125 146.53438 25.003124Q145.59688 25.39375 145.01875 26.05Q144.44063 26.690624 144.1125 27.45625Q143.56563 28.784374 143.56563 30.346874Q143.56563 32.253124 144.22188 33.55Q144.89375 34.83125 146.14375 35.45625Q147.40938 36.08125 148.81563 36.08125Q150.05 36.08125 151.22188 35.6125Q152.39375 35.14375 153.00313 34.596874L153.00313 31.940624L148.8 31.940624ZM158.09688 37.55L158.09688 23.2375L163.01875 23.2375Q164.69063 23.2375 165.58125 23.440624Q166.8 23.721874 167.675 24.45625Q168.8 25.425 169.3625 26.909374Q169.925 28.39375 169.925 30.315624Q169.925 31.940624 169.55 33.20625Q169.175 34.45625 168.56563 35.284374Q167.97188 36.1125 167.26875 36.596874Q166.56563 37.065624 165.56563 37.315624Q164.56563 37.55 163.25313 37.55L158.09688 37.55ZM159.9875 35.8625L163.05 35.8625Q164.45625 35.8625 165.25313 35.596874Q166.06563 35.33125 166.55 34.846874Q167.22188 34.175 167.59688 33.05Q167.97188 31.909374 167.97188 30.284374Q167.97188 28.034374 167.2375 26.83125Q166.50313 25.628124 165.44063 25.221874Q164.69063 24.925 163.00313 24.925L159.9875 24.925L159.9875 35.8625ZM172.09688 37.55L172.09688 23.2375L177.4875 23.2375Q178.925 23.2375 179.675 23.3625Q180.72188 23.55 181.44063 24.05Q182.15938 24.534374 182.58125 25.425Q183.01875 26.315624 183.01875 27.378124Q183.01875 29.20625 181.84688 30.471874Q180.69063 31.721874 177.65938 31.721874L173.9875 31.721874L173.9875 37.55L172.09688 37.55ZM173.9875 30.034374L177.69063 30.034374Q179.51875 30.034374 180.28438 29.3625Q181.06563 28.675 181.06563 27.425Q181.06563 26.534374 180.6125 25.89375Q180.15938 25.253124 179.425 25.05Q178.94063 24.925 177.64375 24.925L173.9875 24.925L173.9875 30.034374Z" fill-rule="nonzero"/></svg>